<svg width="62" height="64" viewBox="0 0 62 64" fill="none" xmlns="http://www.w3.org/2000/svg">
<path d="M35.6406 18.9219V17.2344C35.6406 15.2656 35.6406 13.8594 35.5 13.0156C35.2188 11.75 34.7969 10.7656 34.0938 10.2031C33.3906 9.64062 32.2656 9.21875 30.7188 9.21875C29.7344 9.21875 28.75 9.5 27.7656 10.0625C25.5156 11.1875 23.9688 13.2969 23.125 16.1094L12.7188 15.125C12.7188 12.875 13.4219 10.4844 14.9688 8.23438C16.375 5.98438 18.4844 4.15625 21.2969 2.75C24.25 1.34375 27.625 0.5 31.5625 0.5C35.3594 0.5 38.5938 1.34375 41.2656 2.75C43.2344 3.875 44.9219 5.5625 46.0469 7.53125C46.8906 9.21875 47.4531 10.625 47.4531 12.0312V32.7031C47.4531 33.9688 47.7344 35.2344 48.5781 36.3594C49.1406 37.3438 49.8438 38.3281 50.8281 39.1719L51.9531 40.1562L43.9375 48.0312C40.2812 44.6562 38.1719 42.5469 37.6094 41.4219C36.0625 43.9531 33.8125 45.7812 31 46.9062C28.1875 48.0312 25.2344 48.4531 22.2812 48.0312C19.1875 47.6094 16.7969 46.3438 14.9688 44.2344C12.8594 41.9844 11.875 39.0312 11.875 35.375C11.875 29.1875 14.9688 24.6875 21.1562 21.875C25.0938 20.1875 29.875 19.2031 35.6406 18.9219ZM35.6406 31.0156V25.3906C32.5469 25.5312 29.875 26.0938 27.9062 27.0781C25.0938 28.4844 23.8281 30.5938 23.8281 33.5469C23.8281 35.2344 24.3906 36.6406 25.5156 37.7656C26.6406 38.8906 28.0469 39.3125 29.7344 39.3125C31.4219 39.3125 32.6875 38.6094 33.8125 37.2031C34.9375 35.7969 35.6406 33.8281 35.6406 31.0156ZM54.7656 54.0781C55.3281 53.5156 55.4688 52.9531 55.1875 52.5312C54.9062 52.25 54.625 52.1094 54.0625 52.3906C46.1875 56.1875 38.5938 58.1562 31.5625 58.1562C25.7969 58.2969 20.1719 57.1719 14.5469 54.9219C11.3125 53.7969 7.23438 51.5469 2.17188 48.4531L1.60938 48.1719C1.1875 47.8906 0.90625 47.8906 0.625 48.1719C0.34375 48.4531 0.34375 48.875 0.90625 49.2969C2.3125 51.125 4.28125 52.9531 6.8125 54.7812C9.90625 57.3125 13.2812 59.2812 16.9375 60.6875C21.2969 62.6562 25.6562 63.5 30.1562 63.5C34.6562 63.5 38.875 62.7969 42.9531 61.3906C45.9062 60.2656 48.7188 58.8594 51.25 57.1719C52.9375 56.0469 54.0625 54.9219 54.7656 54.0781ZM60.3906 54.3594C60.8125 53.2344 61.0938 52.1094 61.375 50.8438C61.5156 49.5781 61.5156 48.7344 61.2344 48.3125C60.9531 48.0312 60.1094 47.75 58.7031 47.6094C57.2969 47.4688 56.0312 47.4688 54.9062 47.6094C53.6406 47.75 52.375 48.0312 51.1094 48.5938C49.8438 49.1562 49.2812 49.7188 49.5625 50C49.5625 50.1406 49.7031 50.1406 49.8438 50.1406L51.9531 50C55.6094 49.7188 57.7188 49.8594 58.2812 50.4219C58.5625 50.9844 58.4219 52.3906 57.8594 54.5C57.4375 55.9062 57.0156 57.1719 56.4531 58.1562C56.1719 58.7188 56.1719 59 56.4531 59.1406C56.7344 59.2812 57.0156 59.1406 57.4375 58.7188C58.5625 57.875 59.5469 56.3281 60.3906 54.3594Z" fill="black"/>
</svg>
