<svg width="82" height="64" viewBox="0 0 82 64" fill="none" xmlns="http://www.w3.org/2000/svg">
	<path d="M81.5 31.8594V7.25C81.5 5.42188 80.7969 3.875 79.5312 2.46875C78.125 1.20312 76.5781 0.5 74.75 0.5H7.25C5.28125 0.5 3.73438 1.20312 2.46875 2.46875C1.0625 3.875 0.5 5.42188 0.5 7.25V22.7188L3.73438 15.125H9.35938L10.625 18.0781V15.125H17.0938L19.0625 19.3438L20.75 15.125H39.1719C41.4219 15.125 42.9688 15.2656 43.6719 15.2656C44.5156 15.4062 45.3594 15.5469 45.9219 15.8281V15.125H51.5469V16.3906C52.6719 15.5469 54.0781 15.125 55.9062 15.125H59.7031H59.9844H64.625L65.8906 18.0781V15.125H71.9375L73.4844 17.7969V15.125H79.1094V28.0625H73.3438L71.375 24.9688V28.0625H64.0625L63.0781 25.9531H60.4062L59.5625 28.0625H55.7656C53.9375 28.0625 52.5312 27.6406 51.5469 26.7969V28.0625H42.2656V24.5469H40.8594V28.0625H21.7344V26.5156L21.0312 28.0625H16.9531L16.25 26.5156V28.0625H8.79688L7.8125 25.9531H5.14062L4.29688 28.0625H0.5V56.75C0.5 58.7188 1.0625 60.2656 2.46875 61.5312C3.73438 62.9375 5.28125 63.5 7.25 63.5H74.75C76.5781 63.5 78.125 62.9375 79.5312 61.5312C80.7969 60.2656 81.5 58.7188 81.5 56.75V44.0938C80.7969 44.5156 79.8125 44.7969 78.6875 44.7969C77.8438 44.9375 76.5781 44.9375 74.6094 44.9375H72.0781V44.2344L71.9375 44.375C71.375 44.6562 70.5312 44.9375 69.4062 44.9375C68.2812 44.9375 64.7656 44.9375 58.8594 44.9375H50V41.2812H48.7344L48.5938 44.9375H43.1094V40.7188C41.9844 41.4219 40.4375 41.7031 38.3281 41.7031V44.9375H31.4375L29.1875 42.4062L26.9375 44.9375H15.4062V31.8594H27.0781L29.3281 34.3906L31.4375 31.8594H39.5938C41 31.8594 42.125 32.1406 43.1094 32.7031V31.8594H46.4844C49.0156 31.8594 50.5625 32 51.4062 32C52.25 32.1406 53.0938 32.2812 53.6562 32.5625V31.8594H64.7656V32.7031C65.3281 32.4219 66.0312 32.1406 66.875 32C67.4375 32 68.7031 31.8594 70.8125 31.8594H73.9062V32.5625C74.4688 32.2812 75.0312 32.1406 75.7344 32C76.4375 32 77.8438 31.8594 80.0938 31.8594H81.5ZM55.2031 20.6094C55.2031 20.6094 55.625 20.4688 56.3281 20.4688H56.75L55.7656 22.8594C55.4844 22.8594 55.2031 22.8594 55.2031 22.7188C55.0625 22.7188 55.0625 22.2969 55.0625 21.7344C55.0625 21.1719 55.0625 20.75 55.2031 20.6094ZM52.5312 39.0312C52.9531 38.75 53.375 38.4688 53.6562 37.9062C53.9375 37.4844 54.0781 36.9219 54.0781 36.3594C54.0781 34.6719 52.8125 33.8281 50.2812 33.8281H44.7969V43.5312H47.0469L47.1875 40.0156H49.5781C50.4219 40.0156 50.9844 40.1562 51.2656 40.4375C51.5469 40.7188 51.6875 41.1406 51.6875 41.8438V43.5312H53.9375L54.0781 41.5625C54.0781 41 53.9375 40.4375 53.6562 40.0156C53.375 39.5938 53.0938 39.3125 52.5312 39.0312ZM51.5469 36.7812C51.5469 37.625 50.9844 38.0469 50 38.0469H47.1875V35.7969H50C50.9844 35.7969 51.5469 36.2188 51.5469 36.7812ZM77.1406 35.7969C76.2969 35.7969 75.875 36.2188 75.875 36.7812C75.875 37.2031 76.0156 37.4844 76.2969 37.4844C76.5781 37.625 77.1406 37.625 77.9844 37.625C78.8281 37.625 79.3906 37.7656 79.8125 37.7656C80.375 38.0469 80.9375 38.3281 81.3594 38.6094V42.2656C80.7969 43.1094 79.6719 43.5312 78.2656 43.5312H73.7656V41.4219H78.2656C78.9688 41.4219 79.3906 41.1406 79.3906 40.5781C79.3906 40.2969 79.1094 40.0156 78.8281 39.875C78.5469 39.875 77.9844 39.7344 77.2812 39.5938C76.0156 39.5938 75.1719 39.4531 74.75 39.1719C73.7656 38.75 73.3438 37.9062 73.3438 36.6406C73.3438 35.7969 73.625 35.0938 74.3281 34.5312C74.8906 34.1094 75.7344 33.8281 76.7188 33.8281H81.3594V35.7969H77.1406ZM63.2188 35.7969H57.7344V37.4844H63.0781V39.4531H57.7344V41.4219L63.2188 41.5625V43.5312H55.3438L55.4844 33.8281H63.2188V35.7969ZM69.125 41.4219C69.9688 41.4219 70.3906 41.1406 70.3906 40.5781C70.3906 40.2969 70.1094 40.0156 69.8281 39.875C69.4062 39.7344 68.8438 39.5938 68.2812 39.5938C67.0156 39.5938 66.1719 39.4531 65.6094 39.1719C64.7656 38.75 64.3438 37.9062 64.3438 36.6406C64.3438 35.7969 64.625 35.0938 65.1875 34.5312C65.75 33.9688 66.5938 33.6875 67.7188 33.6875H72.3594V35.7969H68C67.1562 35.7969 66.7344 36.0781 66.7344 36.6406C66.7344 37.2031 66.875 37.4844 67.1562 37.4844C67.4375 37.625 68 37.625 68.8438 37.625C69.9688 37.625 70.9531 37.7656 71.5156 37.9062C72.3594 38.4688 72.7812 39.3125 72.7812 40.4375C72.7812 42.5469 71.5156 43.5312 69.125 43.5312H64.625V41.4219H69.125ZM58.1562 19.0625V16.9531H55.9062C52.6719 16.9531 51.125 18.6406 51.125 21.875C51.125 25.1094 52.6719 26.6562 55.7656 26.6562H58.4375L59.2812 24.5469H64.2031L65.0469 26.6562H69.8281V19.3438L74.1875 26.6562H77.5625V16.9531H75.1719V23.7031L71.0938 16.9531H67.4375V26.2344L63.5 16.9531H60.125L56.75 24.6875H55.7656C54.7812 24.6875 54.2188 24.5469 53.9375 23.9844C53.6562 23.5625 53.5156 22.8594 53.5156 21.875C53.5156 20.6094 53.7969 19.7656 54.6406 19.3438C55.0625 19.2031 55.9062 19.0625 57.3125 19.0625H58.1562ZM60.125 22.5781L61.8125 18.6406L63.3594 22.5781H60.125ZM50 16.9531V26.6562H47.6094V16.9531H50ZM44.5156 22.1562V22.2969C45.0781 22.0156 45.5 21.7344 45.7812 21.1719C46.0625 20.75 46.2031 20.1875 46.2031 19.625C46.2031 18.6406 45.7812 17.9375 44.9375 17.375C44.375 17.0938 43.5312 16.9531 42.4062 16.9531H36.9219V26.6562H39.1719V23.1406H41.7031C42.5469 23.1406 43.1094 23.4219 43.3906 23.7031C43.6719 24.125 43.8125 24.8281 43.8125 25.6719V26.6562H46.0625V24.8281C46.0625 24.125 45.9219 23.5625 45.7812 23.1406C45.5 22.8594 45.0781 22.4375 44.5156 22.1562ZM43.6719 20.0469C43.6719 20.8906 43.1094 21.1719 42.125 21.1719H39.1719V19.0625H42.125C43.1094 19.0625 43.6719 19.4844 43.6719 20.0469ZM35.2344 19.0625H29.75V20.75H35.0938V22.7188H29.75V24.6875H35.2344V26.6562H27.5V16.9531H35.2344V19.0625ZM23.4219 26.6562H25.6719V16.9531H21.875L19.0625 23.5625L15.9688 16.9531H12.1719V26.2344L8.23438 16.9531H4.85938L0.640625 26.6562H3.17188L4.01562 24.5469H8.9375L9.78125 26.6562H14.5625V19.0625L17.9375 26.6562H20.0469L23.4219 19.0625V26.6562ZM8.09375 22.5781H4.85938L6.40625 18.6406L8.09375 22.5781ZM43.6719 36.9219C43.6719 34.9531 42.2656 33.8281 39.7344 33.8281H32.2812L29.3281 36.9219L26.5156 33.8281H17.0938V43.5312H26.375L29.3281 40.2969L32.1406 43.5312H36.7812V40.2969H37.7656C39.5938 40.2969 40.8594 40.1562 41.7031 39.875C42.9688 39.5938 43.6719 38.6094 43.6719 36.9219ZM27.7812 38.6094L25.1094 41.4219H19.4844V39.4531H24.5469V37.4844H19.4844V35.7969H25.25L27.7812 38.6094ZM34.3906 34.8125V42.5469L30.875 38.6094L34.3906 34.8125ZM41.1406 36.9219C41.1406 37.7656 40.5781 38.1875 39.7344 38.1875H36.7812V35.7969H39.7344C40.5781 35.7969 41.1406 36.2188 41.1406 36.9219Z" fill="black"/>
</svg>