<svg width="90" height="36" viewBox="0 0 90 36" fill="none" xmlns="http://www.w3.org/2000/svg">
<path d="M56.9531 19.125C58.3594 19.125 60.3281 18.9844 62.5781 18.9844V19.4062C62.5781 21.6562 61.875 23.3438 60.6094 24.4688C59.3438 25.7344 57.5156 26.2969 55.2656 26.2969C53.5781 26.2969 52.4531 26.0156 51.6094 25.3125C50.7656 24.6094 50.3438 23.7656 50.3438 22.6406C50.3438 21.5156 50.9062 20.6719 52.0312 20.1094C53.1562 19.5469 54.7031 19.2656 56.9531 19.125ZM67.0781 24.6094V24.75V15.4688C67.0781 12.9375 66.0938 10.9688 64.125 9.5625C62.4375 8.4375 60.0469 7.875 57.0938 7.875C54.4219 7.875 52.3125 8.29688 50.625 9.14062C48.375 10.2656 47.25 11.8125 47.1094 13.9219H51.8906C51.8906 13.0781 52.4531 12.2344 53.2969 11.6719C54.1406 11.1094 55.4062 10.8281 56.8125 10.8281C60.6094 10.8281 62.5781 12.375 62.5781 15.4688V16.0312H56.6719C53.0156 16.1719 50.2031 16.7344 48.375 17.7188C46.4062 18.8438 45.5625 20.5312 45.5625 22.9219C45.5625 24.75 46.2656 26.2969 47.8125 27.4219C49.2188 28.6875 51.3281 29.25 54.1406 29.25C56.1094 29.25 57.6562 28.9688 59.0625 28.4062C60.4688 27.8438 61.7344 27 62.8594 25.5938C62.8594 26.7188 62.8594 27.5625 63 28.4062H67.2188C67.0781 27.4219 67.0781 26.1562 67.0781 24.6094ZM18 16.7344H4.64062C4.92188 14.9062 5.625 13.5 7.03125 12.375C8.29688 11.3906 9.84375 10.8281 11.5312 10.8281C13.2188 10.8281 14.625 11.3906 15.8906 12.375C17.1562 13.5 17.8594 14.9062 18 16.7344ZM4.64062 19.6875H22.6406V18.5625C22.6406 15.0469 21.6562 12.375 19.6875 10.5469C17.7188 8.85938 15.0469 7.875 11.6719 7.875C7.73438 7.875 4.92188 8.85938 2.95312 10.8281C0.984375 12.7969 0 15.4688 0 18.8438C0 21.9375 0.84375 24.4688 2.8125 26.2969C4.78125 28.2656 7.73438 29.25 11.6719 29.25C14.2031 29.25 16.3125 28.8281 18.1406 27.8438C20.3906 26.7188 21.6562 25.0312 22.0781 22.7812H17.4375C16.875 24.4688 15.4688 25.4531 13.5 26.0156C11.3906 26.5781 9.42188 26.2969 7.73438 25.3125C5.76562 24.1875 4.64062 22.2188 4.64062 19.6875ZM34.3125 26.1562C32.0625 26.1562 30.375 25.4531 29.1094 24.0469C27.8438 22.6406 27.2812 20.8125 27.2812 18.5625C27.2812 16.3125 27.8438 14.4844 29.1094 13.0781C30.375 11.6719 32.0625 10.9688 34.1719 10.9688C36.2812 10.9688 37.9688 11.6719 39.375 13.0781C40.6406 14.4844 41.3438 16.3125 41.3438 18.5625C41.3438 20.8125 40.6406 22.6406 39.375 24.0469C37.9688 25.4531 36.2812 26.1562 34.3125 26.1562ZM22.7812 0V23.7656C22.7812 24.8906 22.6406 26.4375 22.5 28.4062H27C27 27.5625 27.1406 26.7188 27.1406 25.7344C27.9844 26.8594 29.25 27.8438 30.6562 28.4062C32.0625 28.9688 33.75 29.25 35.4375 29.25C38.5312 29.25 41.0625 28.2656 43.0312 26.2969C45 24.3281 46.125 21.6562 46.125 18.5625C46.125 15.1875 44.8594 12.5156 42.6094 10.5469C40.6406 8.85938 38.25 7.875 35.4375 7.875C31.7812 7.875 29.1094 9 27.2812 11.25V0H22.7812ZM90 8.57812H85.2188L77.4844 24.0469L69.75 8.57812H64.5469L74.9531 28.4062L71.0156 36H76.0781L90 8.57812Z" fill="black"/>
</svg>
