<svg width="14" height="14" viewBox="0 0 14 14" fill="none" xmlns="http://www.w3.org/2000/svg">
<path d="M14 0.78125C14 0.5625 13.9062 0.375 13.75 0.21875C13.5938 0.09375 13.4062 0 13.2188 0H0.78125C0.53125 0 0.34375 0.09375 0.21875 0.21875C0.0625 0.375 0 0.5625 0 0.78125V13.2188C0 13.4375 0.0625 13.625 0.21875 13.7812C0.34375 13.9375 0.53125 14 0.78125 14H7.46875V8.5625H5.65625V6.46875H7.46875V4.90625C7.46875 4.03125 7.71875 3.34375 8.21875 2.84375C8.71875 2.375 9.375 2.125 10.1875 2.125C10.8125 2.125 11.375 2.15625 11.8125 2.1875V4.09375H10.6875C10.2812 4.09375 10 4.1875 9.84375 4.375C9.71875 4.53125 9.65625 4.78125 9.65625 5.125V6.46875H11.75L11.4688 8.5625H9.65625V14H13.2188C13.4375 14 13.625 13.9375 13.7812 13.7812C13.9062 13.625 14 13.4375 14 13.2188V0.78125Z" fill="#333333"/>
</svg>
