<?xml version="1.0" encoding="utf-8"?>
<!-- Generator: Adobe Illustrator 24.1.3, SVG Export Plug-In . SVG Version: 6.00 Build 0)  -->
<svg version="1.1" id="light" xmlns="http://www.w3.org/2000/svg" xmlns:xlink="http://www.w3.org/1999/xlink" x="0px" y="0px"
	 viewBox="0 0 512 512" style="enable-background:new 0 0 512 512;" xml:space="preserve">
<style type="text/css">
	.st0{fill:#2D827C;}
</style>
<path class="st0" d="M183.59,184.53c-20.78,0-42.09-7.82-58.24-23.36c-16.93-16.25-21.03-36.77-25.38-58.5
	c-4.82-24.17-9.82-49.18-33.69-72.13c-2.77-2.67-3.73-6.72-2.49-10.33c1.26-3.65,4.52-6.24,8.35-6.6l2.71-0.28
	c49.06-5,110.11-11.04,158.06,35.04c15.19,14.58,24.37,36.95,24.59,59.8c0.22,21.76-7.43,41.51-21.53,55.58
	C222.08,177.64,203.08,184.53,183.59,184.53z M93.37,31.39c17.06,22.75,21.74,46.25,25.97,67.43c3.87,19.37,7.21,36.14,19.67,48.13
	c21.15,20.3,59.55,26.33,82.97,2.88c10.31-10.29,15.9-25.02,15.74-41.44c-0.18-17.68-7.09-34.78-18.53-45.76
	C182.6,27.46,136.35,27.59,93.37,31.39L93.37,31.39z"/>
<path class="st0" d="M359.84,148.25c-1.38,0-2.78-0.04-4.17-0.14c-16.04-0.95-29.96-7.31-39.22-17.91
	c-26.39-30.2-17.66-71.46,5.57-92.37c39.16-35.25,87.1-28.97,125.57-23.9l2.07,0.28c3.81,0.49,6.99,3.18,8.16,6.87
	c1.15,3.69,0.04,7.7-2.82,10.29c-18.6,16.75-23.03,35.69-27.29,54c-3.81,16.33-7.74,33.22-21.82,45.9
	C393.87,142.05,376.9,148.25,359.84,148.25z M401.55,29.73c-23.31,0-46.47,4.88-66.34,22.79c-16.27,14.63-22.38,43.53-3.91,64.66
	c5.77,6.6,14.83,10.57,25.54,11.2c13.19,0.69,26.66-3.65,35.81-11.85c9.48-8.53,12.28-20.52,15.82-35.71
	c3.46-14.87,7.58-32.51,19.91-49.41C419.54,30.46,410.52,29.73,401.55,29.73z M328.61,45.17h0.2H328.61z"/>
<path class="st0" d="M273.17,248.18c-4.66,0-8.83-3.32-9.7-8.08c-13-70.21-79.75-128.02-80.44-128.59
	c-4.15-3.54-4.62-9.78-1.09-13.9c3.54-4.17,9.76-4.68,13.92-1.11c2.96,2.53,72.74,62.81,87.04,140.01
	c0.99,5.35-2.55,10.51-7.92,11.49C274.38,248.12,273.79,248.18,273.17,248.18L273.17,248.18z"/>
<path class="st0" d="M73.13,444.5H13.88c-5.45,0-9.88-4.42-9.88-9.88V256.87c0-5.45,4.42-9.88,9.88-9.88
	c67.17,0,102.66,22.63,104.14,23.6c3.54,2.31,5.21,6.62,4.19,10.7L82.7,437.05C81.58,441.44,77.65,444.5,73.13,444.5L73.13,444.5z
	 M23.75,424.75h41.69l35.73-140.82c-11.12-5.31-37.31-15.52-77.42-17V424.75z"/>
<path class="st0" d="M260.75,484c-46.61,0-136.73-39.18-186.32-62.57c-4.94-2.31-7.03-8.22-4.72-13.13
	c2.31-4.96,8.22-7.03,13.15-4.72c38.71,18.25,133.51,60.67,177.89,60.67c48.03,0,161.26-56.43,193.83-73.19
	c-5.14-6.72-15.74-15.68-35.83-15.68c-18.23,0-41.34,7.29-63.69,14.36C331.3,397.22,306.71,405,285.44,405
	c-40.76,0-94.9-19.51-97.19-20.34c-5.12-1.86-7.76-7.52-5.91-12.66c1.86-5.12,7.51-7.74,12.66-5.91
	c0.51,0.2,53.17,19.16,90.44,19.16c18.23,0,41.34-7.29,63.69-14.36c23.76-7.49,48.35-15.27,69.62-15.27
	c46.08,0,58.24,34.9,58.74,36.38c1.52,4.56-0.45,9.56-4.72,11.85C466.63,407.09,321.76,484,260.75,484L260.75,484z"/>
<path class="st0" d="M329.88,396.9c-5.45,0-9.88-4.42-9.88-9.88v-9.88c0-13.79-9.28-25.6-22.59-28.68l-190.67-46.04
	c-5.31-1.28-8.57-6.62-7.29-11.93c1.26-5.33,6.7-8.47,11.91-7.29l190.59,46.02c22.24,5.19,37.8,24.9,37.8,47.91v9.88
	C339.75,392.48,335.33,396.9,329.88,396.9z"/>
<path class="st0" d="M273.19,248.14c-0.02,0-0.04,0-0.06,0c-5.43-0.04-9.84-4.44-9.82-9.88c0-3.42,1.24-83.88,91.09-137.97
	c4.66-2.8,10.72-1.32,13.55,3.38c2.82,4.66,1.3,10.74-3.36,13.57c-79.93,48.13-81.49,118.17-81.51,121.13
	C283.03,243.76,278.63,248.14,273.19,248.14L273.19,248.14z"/>
<path class="st0" d="M192.85,184.53c-20.78,0-42.09-7.82-58.24-23.36c-16.93-16.25-21.03-36.77-25.38-58.5
	c-4.82-24.17-9.82-49.18-33.69-72.13c-2.77-2.67-3.73-6.72-2.49-10.33c1.26-3.65,4.52-6.24,8.35-6.6l2.71-0.28
	c49.06-5,110.11-11.04,158.06,35.04c15.19,14.58,24.37,36.95,24.59,59.8c0.22,21.76-7.43,41.51-21.53,55.58
	C231.34,177.64,212.34,184.53,192.85,184.53z M102.63,31.39c17.06,22.75,21.74,46.25,25.97,67.43c3.87,19.37,7.21,36.14,19.67,48.13
	c21.15,20.3,59.55,26.33,82.97,2.88c10.31-10.29,15.9-25.02,15.74-41.44c-0.18-17.68-7.09-34.78-18.53-45.76
	C191.86,27.46,145.6,27.59,102.63,31.39L102.63,31.39z"/>
<path class="st0" d="M369.1,148.25c-1.38,0-2.78-0.04-4.17-0.14c-16.04-0.95-29.96-7.31-39.22-17.91
	c-26.39-30.2-17.66-71.46,5.57-92.37c39.16-35.25,87.1-28.97,125.57-23.9l2.07,0.28c3.81,0.49,6.99,3.18,8.16,6.87
	c1.15,3.69,0.04,7.7-2.82,10.29c-18.6,16.75-23.03,35.69-27.29,54c-3.81,16.33-7.74,33.22-21.82,45.9
	C403.13,142.05,386.16,148.25,369.1,148.25z M410.81,29.73c-23.31,0-46.47,4.88-66.34,22.79c-16.27,14.63-22.38,43.53-3.91,64.66
	c5.77,6.6,14.83,10.57,25.54,11.2c13.19,0.69,26.66-3.65,35.81-11.85c9.48-8.53,12.28-20.52,15.82-35.71
	c3.46-14.87,7.58-32.51,19.91-49.41C428.8,30.46,419.77,29.73,410.81,29.73z M337.87,45.17h0.2H337.87z"/>
<path class="st0" d="M282.43,248.18c-4.66,0-8.83-3.32-9.7-8.08c-13-70.21-79.75-128.02-80.44-128.59
	c-4.15-3.54-4.62-9.78-1.09-13.9c3.54-4.17,9.76-4.68,13.92-1.11c2.96,2.53,72.74,62.81,87.04,140.01
	c0.99,5.35-2.55,10.51-7.92,11.49C283.64,248.12,283.04,248.18,282.43,248.18L282.43,248.18z"/>
<path class="st0" d="M82.38,444.5H23.13c-5.45,0-9.88-4.42-9.88-9.88V256.87c0-5.45,4.42-9.88,9.88-9.88
	c67.17,0,102.66,22.63,104.14,23.6c3.54,2.31,5.21,6.62,4.19,10.7l-39.5,155.75C90.84,441.44,86.91,444.5,82.38,444.5L82.38,444.5z
	 M33.01,424.75H74.7l35.73-140.82c-11.12-5.31-37.31-15.52-77.42-17V424.75z"/>
<path class="st0" d="M280.01,494c-46.61,0-136.73-39.18-186.32-62.57c-4.94-2.31-7.03-8.22-4.72-13.13
	c2.31-4.96,8.22-7.03,13.15-4.72c38.71,18.25,133.51,60.67,177.89,60.67c48.03,0,161.26-56.43,193.83-73.19
	c-5.14-6.72-15.74-15.68-35.83-15.68c-18.23,0-41.34,7.29-63.69,14.36C350.56,407.22,325.97,415,304.7,415
	c-40.76,0-94.9-19.51-97.19-20.34c-5.12-1.86-7.76-7.52-5.91-12.66c1.86-5.12,7.51-7.74,12.66-5.91
	c0.51,0.2,53.17,19.16,90.44,19.16c18.23,0,41.34-7.29,63.69-14.36c23.76-7.49,48.35-15.27,69.62-15.27
	c46.08,0,58.24,34.9,58.74,36.38c1.52,4.56-0.45,9.56-4.72,11.85C485.89,417.09,341.02,494,280.01,494L280.01,494z"/>
<path class="st0" d="M339.14,396.9c-5.45,0-9.88-4.42-9.88-9.88v-9.88c0-13.79-9.28-25.6-22.59-28.68L116,302.44
	c-5.31-1.28-8.57-6.62-7.29-11.93c1.26-5.33,6.7-8.47,11.91-7.29l190.59,46.02c22.24,5.19,37.8,24.9,37.8,47.91v9.88
	C349.01,392.48,344.59,396.9,339.14,396.9z"/>
<path class="st0" d="M282.45,248.14c-0.02,0-0.04,0-0.06,0c-5.43-0.04-9.84-4.44-9.82-9.88c0-3.42,1.24-83.88,91.09-137.97
	c4.66-2.8,10.72-1.32,13.55,3.38c2.82,4.66,1.3,10.74-3.36,13.57c-79.93,48.13-81.49,118.17-81.51,121.13
	C292.29,243.76,287.88,248.14,282.45,248.14L282.45,248.14z"/>
</svg>
