<?xml version="1.0" encoding="utf-8"?>
<!-- Generator: Adobe Illustrator 24.1.3, SVG Export Plug-In . SVG Version: 6.00 Build 0)  -->
<svg version="1.1" id="Layer_1" xmlns="http://www.w3.org/2000/svg" xmlns:xlink="http://www.w3.org/1999/xlink" x="0px" y="0px"
	 viewBox="0 0 1440 922.34" style="enable-background:new 0 0 1440 922.34;" xml:space="preserve">
<style type="text/css">
	.st0{fill:#ECFDF7;}
	.st1{fill:#CDF3F0;}
	.st2{fill:#F0FEF7;}
	.st3{fill:#EDFCF6;}
	.st4{fill:#D7F4F4;}
	.st5{fill:#F4FEF6;}
	.st6{fill:#ECFCF6;}
	.st7{fill:#E2F8F5;}
	.st8{fill:#DAF5F4;}
	.st9{fill:#EDFDF7;}
	.st10{fill:#E9FAF6;}
	.st11{fill:#DEF7F5;}
	.st12{fill:#EBFCF6;}
	.st13{fill:#E4F9F6;}
	.st14{fill:#DDF6F5;}
	.st15{fill:#F1FDF6;}
	.st16{fill:#E7FAF6;}
	.st17{fill:#E6F9F5;}
	.st18{fill:#EEFCF6;}
	.st19{fill:#EAFAF6;}
	.st20{fill:#ECFBF6;}
	.st21{fill:#E8FAF5;}
	.st22{fill:#D9F5F4;}
	.st23{fill:#E8FBF6;}
	.st24{fill:#D3F3F4;}
	.st25{fill:#DEF6F5;}
	.st26{fill:#D4F3F4;}
	.st27{fill:#DFF7F5;}
	.st28{fill:#E5F9F5;}
	.st29{fill:#D0F2F3;}
	.st30{fill:#DBF5F4;}
	.st31{fill:#D9F5F5;}
	.st32{fill:#D2F2F4;}
	.st33{fill:#CAF0F3;}
	.st34{fill:#CFF1F4;}
	.st35{fill:#CCF0F3;}
	.st36{fill:#D8F4F4;}
	.st37{fill:#CDF1F4;}
	.st38{fill:#E4F9F5;}
	.st39{fill:#EAFAF5;}
	.st40{fill:#EFFCF6;}
	.st41{fill:#F0FDF6;}
	.st42{fill:#CBF0F3;}
	.st43{fill:#E3F8F5;}
	.st44{fill:#D0F2F4;}
	.st45{fill:#FDFDFD;}
	.st46{fill:#E9FBF6;}
	.st47{fill:#E7FCF6;}
	.st48{fill:#C7F1EF;}
	.st49{fill:#E1F8F5;}
	.st50{fill:#E5FAF6;}
	.st51{fill:#E3F9F6;}
	.st52{fill:#CBF3F0;}
	.st53{fill:#DEF8F5;}
	.st54{fill:#DAF6F5;}
	.st55{fill:#E1F9F6;}
	.st56{fill:#E4FAF6;}
	.st57{fill:#D6F5F5;}
	.st58{fill:#E2F9F6;}
	.st59{fill:#F0FCFD;}
	.st60{fill:#C6F1EF;}
	.st61{fill:#D6F6F0;}
	.st62{fill:#D0F4F0;}
	.st63{fill:#CBF2EF;}
	.st64{fill:#D8F5F5;}
	.st65{fill:#D5F6F1;}
	.st66{fill:#C8F2ED;}
	.st67{fill:#CFF4ED;}
	.st68{fill:#DBF8F1;}
</style>
<path class="st0" d="M1277.05,124.99c9.66,0,19.32,0,28.97,0c1.84,1.3,4.15-0.25,5.99,1c15.32,1.14,30.42,3.55,45.35,7.23
	c27.71,6.82,53.64,17.86,78.09,32.49c1.42,0.85,2.96,1.51,4.44,2.25c0,19.65,0,39.3,0,58.95c-3.41-3.44-7.11-1.42-10.72-0.52
	c-3.9,0.98-7.38,1.06-9.25-3.96c-2.15,2.02-4.21,3.47-6.82,1.21c-0.95-0.82-2.21,0-3.31,0.4c-4.22,1.54-7.88,0.05-11.14-2.47
	c-1.7-1.32-3.41-3.07-1.06-5.37c0.88-0.86,0.95-1.69,0.11-2.59c-0.56-0.61-1.15-1.39-2.06-1.06c-1.13,0.41-1.16,1.59-1.15,2.55
	c0.05,2.97-1.4,5.79-0.47,8.89c0.75,2.53-0.9,3.83-3.31,3.66s-4.62,0.07-6.74,1.25c-2.24,1.25-3.82-0.12-5.25-1.57
	c-1.98-2.01-4.07-2.79-6.64-1.04c-2.03,1.39-4.16,1.13-6.12-0.08c-2.93-1.8-5.47-1.5-8.27,0.52c-3.04,2.19-6.27,3.83-9.79,0.29
	c-1.41-1.41-3.74-1.44-5.73-0.96c-2.33,0.57-4.48,0.75-6.78-0.33c-1.91-0.9-3.45,0.5-4.96,1.57c-3.79,2.67-4.04,2.55-5.26-2.17
	c-0.12-0.48-0.25-0.96-1.11-1.37c-3.98,3.23-8.55,3.05-13.22,0.98c-1.78-0.78-3.56-0.8-5.35-0.13c-3.08,1.14-5.65,1.14-8.88-0.68
	c-3.27-1.84-6.83,1.46-9.05,3.46c-1.6,1.45-2.63,4.75-3.52,7.38c-0.42,1.25-0.05,3.43,1.12,3.49c5.57,0.32,6.23,6.12,9.97,8.64
	c3.69,2.49,2.89,8.23,3.93,12.54c0.96,3.97,2.64,6.41,6.87,6.46c3.13,0.04,4.91,1.72,5.85,4.51c0.86,2.56,1.15,4.96-2.18,6.01
	c-1.39,0.44-0.23,0.92,0.05,1.18c3.69,3.37,2.28,6.82,0.28,10.3c4.56,0.27,9.35,4.77,9.64,9.36c0.2,3.22-0.3,6.67,4.79,5.98
	c1.37-0.18,2.07,0.98,1.95,2.34c-0.18,2.09,0.22,4.31-2.03,5.8c-3.19,2.11-2.95,3.02-0.17,5.55c5,4.55,11.07,8.26,14.72,13.86
	c2.19,3.36,1.21,8.69,5.69,11.24c0.17,0.09,0.13,0.71-0.04,0.95c-3.53,4.94,0.93,7.46,2.83,11.12c1.76,3.38,3.19,4.85,7.1,4.53
	c3.13-0.26,3.83,2.98,3.25,5.07c-1.59,5.8,0.54,9.2,5.75,11.42c2.44,1.04,2.56,3.22,2.14,5.53c-1.03,5.63,1.03,9.88,6.12,12.36
	c3.93,1.92,4.1,5.85,5.4,9.13c0.98,2.46,1.61,4.9,3.69,6.88c2.12,2.02,2.26,4.42-0.74,6.14c-4.94-0.58-8.92-2.24-10.03-7.87
	c-0.38-1.93-1.61-3.83-3.29-4.89c-4.73-2.99-7.43-7.25-8.71-12.57c-0.35-1.47-1.68-1.96-2.84-2.61c-2.77-1.55-4.43-4.58-6.56-6.24
	c-4.39-3.42-6.15-8.07-8.97-12.25c-1.17-1.74-3.07-3.05-4.97-4.12c-2.58-1.46-3.43-3.34-3.27-6.53c0.2-3.92-1.73-7.47-5.73-8.98
	c-2.57-0.97-4.15-2.15-4.66-5.1c-0.6-3.55-3.11-6.93-5.73-8.48c-5.46-3.23-6.25-8.71-8.39-13.54c-1.13-2.55-2.51-4.45-4.81-6.07
	c-4.66-3.28-7.99-7.92-10.78-12.76c-1.22-2.11-2.25-3.9-4.53-4.93c-2.99-1.35-4.39-3.64-2.92-6.86c0.9-1.97,0.12-2.85-1.37-4.09
	c-3.03-2.53-6.2-5.01-7.97-8.72c-0.37-0.76-0.82-1.69-1.58-1.86c-5.01-1.17-6.45-5.53-8.05-9.42c-1.14-2.78-3.34-4.62-5.12-6.61
	c-4.66-5.18-7.38-11.62-11.84-16.87c-0.91-1.07-2.06-1.55-3.34-2.02c-4.3-1.6-5.48-3.71-3.88-8.07c1.3-3.55,1.38-6.03-2.81-7.38
	c-1.74-0.57-3.05-2.08-3.95-3.7c-1.32-2.37-2.63-4.45-5.55-5.31c-1.72-0.51-2.71-2.23-0.66-3.79c3.2-2.43,0.24-4-1.13-4.12
	c-8.38-0.75-9.5-8.64-13.23-13.59c-2.63-3.49-5.08-7.86-5.12-12.78c-0.01-1.31-0.75-1.73-1.97-1.54c-1.43,0.23-3-0.02-3.43-1.39
	c-1.42-4.58-3.73-8.31-7.12-11.88c-1.6-1.68-1.75-4.23-4.96-3.41c-0.63,0.16-1.64-0.34-1.66-0.86c-0.21-6.25-6.74-9.71-6.99-15.91
	c8.96-4.71,18.47-8.02,28.11-10.98c14.24-4.36,28.78-7.52,43.51-9.69c5.06-0.75,10.2-0.89,15.31-1.32
	C1271.6,124.66,1274.52,126.37,1277.05,124.99z"/>
<path class="st1" d="M1439.9,471.71c0,45.63,0,91.26,0,136.89c-3.35,3.72-8.08,2.77-12.16,3.08c-18.48,1.41-36.88,3.73-55.37,5.08
	c-0.66,0.05-1.32-0.03-1.96-0.16c-2.67-0.95-1.71-2.51-0.35-3.66c2.15-1.81,2.91-3.79,2.19-6.57c-0.44-1.67,0.83-3.13,1.4-4.68
	c1.49-4.03,3.43-7.91-1.44-11.49c-2.46-1.8-2-11.21-0.05-13.75c1.72-2.25,2.95-1.61,4.73,2.48c0.85-4.34,0.68-4.38-3.05-4.54
	c-3.02-0.13-6.49-0.96-8.57-2.52c-3.41-2.55-7.04-4.15-10.84-5.72c-2.33-0.96-3.43-3-4.2-5.29c-0.94-2.79-2.59-5.2-5.37-6.22
	c-2.73-1-3.71-3.15-4.69-5.44c-1.78-4.16-1.18-5.24,3.27-5.27c2.97-0.02,2.41-1.88,2.48-3.71c0.15-3.88-1.85-7.29-2.24-11.1
	c-0.38-3.73-0.15-7.2,0.69-10.8c0.93-3.98-1.1-5.86-4.76-4.56c-1.67,0.6-3.47,0.56-3.82-0.99c-0.88-3.95-4.29-4.59-7.01-6.22
	c0.6-2.53,2.98-2.42,4.74-3.25c5.6-1.71,11.4-2.7,16.92-4.68c10.27-3.31,20.31-7.17,29.76-12.45c1.26-0.64,2.45-1.4,3.63-2.19
	c10.79-6.68,20.51-14.42,26.24-26.16c3.84-8.11,7.69-16.21,8.9-25.25c0.2-1.47,0.63-3.37,2.15-3.68c2-0.41,2.63,1.7,3.33,3.11
	C1430.78,444.79,1436.9,457.64,1439.9,471.71z"/>
<path class="st2" d="M1439.9,254.89c0,56.62,0,113.24,0,169.86c-4.52,1.15-8.34-0.01-10.72-3.84c-4.39-7.06-9.9-13.32-14.33-20.3
	c-5.77-9.1-12.62-17.42-18.3-26.62c-3.45-5.59-8.87-10.15-12.86-15.66c-1.18-1.63-2.44-3.15-2.9-5.16
	c-0.35-1.55-1.13-2.88-2.68-3.36c-5.58-1.72-6.72-6.61-7.66-11.26c-0.63-3.11-1.83-4.88-4.96-5.13c-1.71-0.14-2.56-1.14-3.39-2.53
	c-2.75-4.61-5.62-9.17-8.57-13.62c-3.15-4.75-9.51-7.61-9.57-14.45c-0.01-1.23-1.15-2.48-2.19-3.26c-3.99-3-5.57-7.31-6.8-11.85
	c-0.34-1.26-0.63-3.17-2.3-2.65c-3.98,1.22-3.84-1.9-5.29-3.99c-3.12-4.49-4.24-10.56-10.14-13.02c-1.74-0.73-2.64-9.81-1.64-12.37
	c2.3-5.91,3.05-6.14,9.24-4.64c4.56,1.11,9.04,2.24,12.91,5.03c1.63,1.18,3.37,0.92,5.25,0.53c4.51-0.95,5.41-0.2,5.4,4.23
	c0,1.16-0.47,2.37,1.11,2.85c0.49,0.14,1.11,0.24,1.42-0.14c0.98-1.19-0.19-2.14-0.53-3.16c-0.53-1.58-1.29-3.1-1.31-4.79
	c-0.03-2.53,0.82-4.31,3.85-3.71c1.32,0.26,2.67,0.63,3.89-0.13c2.79-1.74,4.28-0.84,4.96,2.18c0.23,0.99,0.96,2.27,1.91,2
	c4.83-1.39,9,1.59,13.59,1.81c2.61,0.12,3.4-0.38,3.55-3.11c0.33-5.94,1.86-5.95,7.54-5.22c6.21,0.8,11.7,3.89,17.91,4.34
	c1.82,0.13,3.33-0.36,4.71-1.24c6.41-4.09,15.7-2.04,20.81,3.4C1434.95,251.11,1435.7,251.01,1439.9,254.89z"/>
<path class="st3" d="M1439.9,254.89c-2.57-0.57-6.27-4.66-6.25,2.41c0.01,2.28-1.76,1.48-3.02,0.1c-5.81-6.35-12.41-7.53-19.84-3.35
	c-2.16,1.21-3.63,1.23-6.19,0.65c-3.51-0.79-6.69-1.67-10.04-3.1c-2.75-1.17-6.23-0.03-9.55-2.06c-1.93-1.18-3.58,2.62-2.97,4.95
	c1.4,5.3-0.84,5.83-5.03,4.4c-3-1.02-6.61,0.33-9.2-2.4c-0.25-0.26-0.95-0.24-1.39-0.14c-5.5,1.33-6.17,0.86-6.45-5.17
	c-2.38,2.06-4.45,3.54-7.76,1.79c-2.39-1.27-2.45,1.5-2,2.95c0.96,3.11,2.3,6.11,3.46,9.11c-1.37,1.11-2.38-0.38-3.47-0.08
	c-4.52,1.21-4.37-1-3.1-4.13c0.43-1.05,1.09-2.15-0.11-3.18c-1.27-1.09-2.54-0.61-3.67,0.13c-2.32,1.51-4.4,1-6.41-0.55
	c-3.6-2.78-7.57-4.5-12.2-4.44c-0.33,0-0.66-0.06-0.98-0.1c-1.64-0.21-3.4-3.84-4.13-1.68c-1,2.93-4.92,4.91-3.19,8.92
	c0.69,1.58,0.45,3.58,0.6,5.38c0.08,1,0.08,1.93,1.28,2.41c7.57,2.98,7.91,10.95,12.45,16.39c3.38-2.49,4.76-1.11,5.66,3.83
	c0.65,3.55,1.63,7.53,5.63,10.02c2.11,1.31,4.54,4.02,4,7.55c-0.09,0.61,0.04,1.72,0.38,1.87c4.97,2.19,5.92,8.08,10.15,10.92
	c0.8,0.54,2.05,1.5,1.95,2.08c-0.72,4.68,5.59,6.14,4.82,10.81c-0.12,0.72,0.87,1.27,1.81,1.35c4.89,0.46,5.09,1.87,6.38,6.32
	c1.04,3.59,1.45,8.78,6.93,9.69c2.23,0.37,3.71,1.48,3.5,3.99c-0.28,3.4,2.88,4.67,4.41,6.89c2.72,3.95,5.45,7.81,9.24,11.12
	c3.64,3.18,5.94,8.09,8.22,12.55c1.13,2.21,1.58,4.42,4.24,5.53c2.28,0.96,3.44,2.76,4.18,5.56c0.88,3.31,3.05,7.43,5.85,8.82
	c5.14,2.55,3.51,9.92,9.34,11.37c0.46,0.11,0.92,1.04,1.02,1.64c1.01,6.63,5.8,8.23,11.45,8.75c0,15.65,0,31.31,0,46.96
	c-3.67-9.19-7.23-18.42-11.06-27.54c-2.1-5-4.66-9.81-7.69-16.12c-1.62,11.9-5.26,21.53-10.22,30.67c-2.25,1.31-4,0.46-3.44-1.9
	c0.72-3.03-1.16-3.84-2.89-4.99c-6.27-4.19-8.84-10.45-9.94-17.55c0.03-4.7-4.14-5.07-7.01-6.77c-0.58-0.42-0.99-0.94-0.95-1.7
	c3.32-4.8-1.2-5.7-3.78-7.56c-1.09-1.07-2.21-2.12-2.96-3.49c0.8-1.38,2.53-3.09,0.7-4.33c-4.83-3.29-4.91-8.48-6.24-13.28
	c-0.34-1.23-1.87-2.36-3.13-3.05c-6.45-3.58-8.36-6.96-6.86-13.92c0.62-2.85-0.15-3.67-2.78-4.52c-5.07-1.65-6.6-4.96-5.43-10.18
	c1.11-4.98,0.48-5.52-4.39-5.8c-1.72-0.1-7.12,2.9-4.55-3.79c0.48-1.25-3.07-4.29-5.08-6.16c-1.48-1.38-1.91-1.79-0.28-3.69
	c3.1-3.59,2.29-5.62-2.1-6.12c-3.34-0.38-3.26-2.15-1.77-3.93c2.34-2.76,1.05-4.01-1.22-5.77c-3.11-2.42-4.5-7.15-9.54-6.95
	c0.86-4.94-5.02-4.28-6.15-7.38c-0.84-2.28-3.88-5.64,2.48-5.65c2.83,0,0.54-3.95,2.09-5.96c-5.82,0.77-7.38-0.4-7.63-5.2
	c-0.38-7.53-4.04-10.66-10.7-9.16c-0.44-0.94,0.15-1.43,0.74-2.07c3.87-4.26,3.78-6.43-0.44-10.11c-0.93-0.81-1.99-1.64-1.34-2.86
	c0.7-1.31,1.63-0.25,2.46,0.21c2.66,1.47,2.73-1.64,2.47-2.09c-1.28-2.18-0.3-6.15-5.11-5.78c-4.96,0.38-7.97-2.16-8.23-7.67
	c-0.15-3.14-1.21-6.25-2.01-9.33c-0.55-2.13-1.33-4.23-4.09-4.32c-4.27-0.14-2.04-6.79-4.1-5.9c-5.26,2.28-4.14-1.72-5.11-3.89
	c-0.61-1.35-0.7-2.72,0.52-3.63c1.85-1.39,3.06-2.83,2.14-5.32c-0.14-0.38,0.57-1.53,0.95-1.56c3.46-0.29,6.03-2.4,8.81-4.1
	c0.78-0.47,1.83-0.43,2.21,0.39c1.98,4.3,5.03,2.63,7.92,1.46c2.31-0.93,4.28-0.53,6.63,0.32c3.61,1.31,7.81,3.75,10.74-1.46
	c0.42-0.75,1.2-1.25,2.1-0.79c1.22,0.63,2.18,1.55,2.27,3.04c0.07,1.22-1.56,2.82,0.1,3.59c2.04,0.95,1.76-2.2,3.09-2.41
	c2.31-0.38,4.4-4.41,7.1-0.38c0.86,1.28,2.39,0.12,3.66-0.21c3.4-0.88,6.53-1.02,9.35,2.03c2.76,2.98,5.51-0.18,7.14-1.59
	c3.16-2.72,5.69-2.51,8.85-0.53c1.44,0.9,3.02,2.32,4.9,0.51c3.56-3.41,6.44-1.44,9.08,1.35c1.04,1.1,1.71,2.49,3.54,0.96
	c2.01-1.68,4.22-2.22,6.95-1.2c1.97,0.74,3.4-0.25,2.27-2.65c-1.85-3.93,0.73-7.53,0.75-11.32c0.01-0.98,0.28-2.64,1.88-2.46
	c2.63,0.31,3.12,3.18,4.9,4.62c1.14,0.92-0.21,1.88-1.53,2.18c-2.91,0.65-1.3,1.97-0.35,3.07c2.8,3.22,7.99,4.12,11.98,2.12
	c0.3-0.15,0.7-0.5,0.88-0.4c3.23,1.59,6.25,2.52,8.7-1.39c0.21-0.34,1.56,0.87,1.5,2.03c-0.17,3.48,2.22,3.6,4.67,3.47
	c2.06-0.11,9.39-2.52,11.65-3.77c0.29,1.81-0.46,4.13,1.95,4.85c0,3.33,0,6.66,0,9.99c-1.14,1.67-1.53,3.33,0,5
	C1439.9,246.23,1439.9,250.56,1439.9,254.89z"/>
<path class="st4" d="M1368.97,615.59c12.8-1.34,25.65-2.1,38.42-3.8c8.5-1.13,17.11-1.59,25.68-2.11c2.35-0.14,4.59-0.54,6.84-1.07
	c0,7.99,0,15.99,0,23.98c-4.01,9.32-8.01,18.65-12.02,27.97c-4.29,2.25-7.32-0.5-9.29-3.33c-5.27-7.55-12.42-12.65-20.24-16.99
	c-8.66-4.81-17.59-9.57-24.38-16.64c-3.74-3.89-8.19-3.44-11.99-5.61c-1.12-0.64-3.21-0.06-2.98-2.39
	C1362.33,613.52,1365.65,613.48,1368.97,615.59z"/>
<path class="st0" d="M1439.9,241.9c-3.77-1.67-2.09-3.33,0-5C1439.9,238.57,1439.9,240.23,1439.9,241.9z"/>
<path class="st5" d="M178.09,822.42c-8.58-1.59-17.16-3.17-25.73-4.78c-22.8-4.3-44.46-12.11-65.13-22.42
	c-18.26-9.11-35.35-20.12-51.18-33.19c-10.68-8.81-20.19-18.73-30.08-28.3c-3.26-3.15-4.8-6.68-4.79-11.43
	c0.13-75.2,0.09-150.4,0.1-225.6c2.69-0.96,5.33-0.41,7.75,0.69c2.65,1.2,4.41,1.7,6.82-1.07c2.91-3.34,2.38,2.21,4.68,2.39
	c1.99-1.29,2.38-4.93,5.79-5.16c2.69-0.18,5.33,0.1,7.97,0.35c2.81,0.27,5.5,0.75,8.24-0.76c1.76-0.97,3.61-0.32,4.66,1.61
	c0.83,1.51,1.95,2.65,3.51,3.42c2.2,1.1,3.84,0.98,4.53-1.75c0.86-3.39,2.51-5.56,6.87-3.78c-3.03-3.03-6.65-2.43-9.75-2.63
	c-3.18-0.21-5.61-0.83-5.47-4.12c0.15-3.47,3.22-2.55,5.45-2.36c6.62,0.54,13.03,2.83,19.77,2.41c1.02-0.06,2.05,0.23,2.42,1.36
	c0.51,1.53-0.49,2.54-1.45,3.46c-1.87,1.79-3.72,3.52-1.17,6.54c1.67-1.68,1.14-3.83,1.74-5.58c0.61-1.78,1.65-3,3.64-2.6
	c1.96,0.4,2.89,1.78,2.1,3.71c-0.86,2.09,0.31,2.85,1.74,3.98c3.33,2.63,5.6,5.9,6.09,10.4c0.96,8.85,5.11,16.84,7.19,25.4
	c1.6,6.58,4.79,12.72,5.41,19.58c0.13,1.5,1.4,2.17,2.19,3.21c3.02,4.03,5.51,8.34,5.64,13.55c0.05,2.08,0.73,3.88,1.68,5.67
	c1.81,3.4,2.36,7.33,3.88,10.74c3.24,7.27,2.83,15.57,6.96,22.52c1.36,2.29,2.25,4.92,2.17,7.62c-0.12,3.96,0.5,8.02,2.66,11.02
	c5.75,7.99,4.73,17.74,7.53,26.48c1.71,5.35,4.77,10.18,5.73,15.85c0.37,2.19,1.89,4.18,1.07,6.63c-0.16,0.46-0.18,1.13,0.12,1.46
	c5.6,6.17,3.5,14.38,5.78,21.34c2.89,8.79,5.9,17.64,10.07,25.96c1.04,2.07,1.48,3.81,0.97,6.11c-1.06,4.84-0.84,9.58,2.7,13.57
	c0.56,0.63,1.09,1.33,1.24,2.14c1.75,9.33,5.25,18.17,7.48,27.39c1.74,7.2,2.01,14.83,5.44,21.61c1.22,2.41,1.71,5.06,2.01,7.7
	c0.53,4.67,1.54,9.18,3.26,13.55C179.18,818.34,179.82,820.46,178.09,822.42z"/>
<path class="st2" d="M178.09,822.42c0.14-2.36-0.33-4.53-1.28-6.76c-1.55-3.65-2.44-7.5-2.83-11.52c-0.31-3.21-0.86-6.42-2.54-9.46
	c-1.65-2.99-1.98-6.51-2.55-9.97c-1.27-7.68-3.54-15.2-5.61-22.74c-1.09-3.98-2.54-7.84-3.32-11.93c-0.47-2.45-1.66-4.54-3.36-6.75
	c-2.69-3.5-3.38-8.55-1.7-13.04c0.91-2.43,0.86-3.95-1.1-5.61c-2.35-1.99-1.91-5.18-3-7.74c-2.51-5.87-6.34-11.71-6.77-17.77
	c-0.34-4.82-3.26-9.2-2-14.11c0.16-0.63,0.35-1.67,0.03-1.94c-3.96-3.39-4.64-8.34-4.89-12.81c-0.34-6.13-5.31-10.31-5.53-16.47
	c-0.13-3.6-3.22-6.95-2.84-10.87c0.76-7.72-5.21-13.06-6.82-19.94c-0.25-1.08-0.97-2.12-0.83-3.3c0.65-5.59-1.44-10.44-4.05-15.14
	c-1.49-2.68-2.62-5.39-1.64-8.54c0.15-0.47,0.45-1.21,0.25-1.41c-5.55-5.82-3.62-14.61-8.38-20.84c-2.6-3.4-0.99-8.1-2.85-12.25
	c-1.96-4.36-6.12-6.91-6.76-12.85c-1.04-9.62-5.44-18.9-8.53-28.28c-1.65-4.99-2.98-9.96-3.54-15.26c-0.31-2.93-2.65-5.87-5.62-7.37
	c-2.59-1.31-5.49-2.04-1.71-5.31c1.02-0.89,0.38-1.91-0.64-2.35c-1.42-0.62-2.68-0.39-2.91,1.45c-0.27,2.11-0.42,4.24-0.62,6.36
	c-0.08,0.86-0.27,1.74-1.14,2.05c-0.93,0.32-1.47-0.48-2.04-1.07c-3.43-3.55-3.29-5.21,0.67-8.44c0.99-0.81,2.32-1.41,1.99-3.42
	c-7.72,1.27-14.99-1.86-22.57-2.33c-1.08-0.07-2.28-1.08-3.24,0.16c-0.77,0.98-0.13,1.93,0.43,2.73c0.79,1.13,1.68,1.83,3.33,1.24
	c3.21-1.15,6.3,1,9.64,0.57c1.64-0.21,3.52,1.64,2.74,3.87c-0.81,2.32-2.62,1.52-4.06,0.54c-3.19-2.15-2.56,1.16-3.32,2.32
	c-0.96,1.45,0.61,4.62-2.64,4.45c-2.99-0.16-6.37-1.22-7.37-4c-1.39-3.86-3.01-3.49-5.29-1.38c-3.18,2.94-6.04-0.64-9.24-0.36
	c-4.11,0.36-8.35-1.33-9.75,4.52c-0.28,1.16-1.5,2-2.74,1.65c-2.42-0.69-2.22-2.87-2.32-5.26c-1.65,5.18-4.26,6.2-8.36,2.84
	c-2.14-1.76-5.32-0.21-7.61-1.89c0-76.6,0-153.21,0-229.81c1.83-3.3,3.78-4.64,7.44-1.76c2.55,2.01,6.01,0.96,8.41-0.76
	c2.87-2.07,4.47-1.76,5.51,1.45c0.52,1.59,0.77,2.12,2.55,1.01c2.08-1.3,3.81,0.13,5.01,1.89c1.4,2.06,2.99,4.18,3.47,6.59
	c1.48,7.42,5.13,14.04,7.36,21.16c0.65,2.09,1.46,4.09,2.96,5.71c2.28,2.47,2.98,5.22,2.89,8.65c-0.14,5.22,4.23,8.47,6.87,12.34
	c2.51,3.67,3.72,7.48,5.1,11.6c1.94,5.79,1.24,12.67,6.3,17.34c0.62,0.57,0.95,1.41,1,2.25c0.44,8.9,5.09,16.32,8.86,23.92
	c2.17,4.37,2.4,9.18,4.71,13.52c3.1,5.8,5.2,12.14,8.31,18c1.78,3.36,3.08,6.9,3.35,10.87c0.25,3.77,1.67,7.18,3.75,10.61
	c3.44,5.68,5.02,12.26,6.13,18.84c0.37,2.16,1.86,3.86,2.52,5.66c1.76,4.8,5.93,8.92,6.43,13.48c0.98,8.97,4.71,16.58,8.42,24.38
	c0.28,0.6,0.13-0.18,0.22,0.43c1.1,7.39,4.35,14.04,6.84,20.97c1.22,3.39,1.94,6.85,3.73,10.15c3.25,6.01,4.49,12.79,5.94,19.44
	c0.41,3.19-0.78,6.92,4.43,7.89c2.06,0.38,2.42,3.66,1.22,5.65c-2.96,4.95-0.33,9.85,2.07,12.84c2.96,3.68,3.04,7.18,2.98,10.98
	c-0.04,3.13,0.37,5.53,3.45,6.98c1.44,0.68,2.4,2.24,2.29,3.66c-0.39,4.65,2.59,7.88,4.12,11.76c1.81,4.61,2.83,9.8,2.79,14.87
	c-0.02,3.17-0.06,5.83,2.76,7.96c3.14,2.38,2.77,6.28,3.43,9.62c1.74,8.93,3.87,17.75,6.62,26.42c0.25,0.79,0.69,1.61,0.61,2.41
	c-0.94,8.66,3.88,15.53,7.08,22.9c0.47,1.08,1.12,2.17,0.92,3.32c-1.47,8.49,1.56,15.67,5.82,22.79c1.87,3.13,2.01,7.26,2.82,10.86
	c2,8.88,4.66,17.63,5.65,26.81c0.62,5.74,2.04,11.6,4.7,17.12c2.89,5.99,2.27,13.04,4.1,19.43c1.81,6.33,3.36,12.74,5.25,19.04
	c0.78,2.6,0.98,5.26,1.23,7.85c0.37,3.85,1.6,5.88,5.75,5.43c1.29-0.14,2.68,0.07,3.64,1.23c-3.71,2.07-7.73,0.72-11.59,0.94
	c-4.45,0.25-8.92,0.06-13.38,0.06c-2.53-1.38-5.45,0.33-7.99-1C183.42,822.42,180.75,822.42,178.09,822.42z"/>
<path class="st6" d="M219.05,822.43c-1.83,0-3.66-0.08-5.49,0.02c-3.33,0.18-4.39-0.56-4.97-4.58c-0.54-3.76,0.82-8.52-3-11.77
	c-1.5-1.28,0.58-3.32-0.17-5.23c-2.38-6.05-3.79-12.39-5.16-18.76c-0.52-2.43-0.18-4.9-0.94-7.22c-2.09-6.41-4.47-12.73-6.32-19.2
	c-0.82-2.88-0.5-6.07-0.95-9.08c-1.26-8.41-4.37-16.41-6.07-24.6c-1.1-5.31-4.07-9.27-5.43-14.05c-0.93-3.28-0.75-6.86-3.03-9.75
	c-0.28-0.35-0.48-1.05-0.32-1.41c3.91-8.86-3.45-14.6-5.98-21.66c-0.16-0.45-0.84-0.91-0.76-1.23c1.46-5.76-1.96-10.8-2.39-15.88
	c-0.46-5.45-2.8-10.07-3.77-15.14c-0.39-2.06,0.25-4.13-0.59-6.07c-1.59-3.69-0.48-8.48-5.66-10.74c-2.11-0.92-1.15-4.61-0.55-6.94
	c0.47-1.81,0.52-3.22-0.8-4.56c-0.11-0.12-0.24-0.27-0.26-0.42c-0.92-5.57-0.69-11.58-6.18-15.37c-0.3-0.21,0.51-1.82,0.55-2.79
	c0.11-2.8,0.45-5.64-3.43-6.58c-2.42-0.58-3.78-3.03-2.88-5.01c1.39-3.04-1.31-5.91,0.34-8.75c0.2-0.34-0.3-1.59-0.61-1.65
	c-4.08-0.73-3.54-4.03-4.18-6.88c-0.79-3.53-4.14-7,0.4-10.4c0.2-0.15,0.19-3.73-1.42-3.72c-6.85,0.03-4.26-5.04-4.9-8.38
	c1.71-4.18,0.14-8.09-0.98-12.04c-0.98-3.45-2.81-6.85-0.54-10.49c1-1.61-0.36-1.86-1.4-2.43c-5.36-2.93-8.26-10.39-5.85-15.97
	c1.07-2.48-0.22-3.97-0.64-6.03c-0.91-4.51-6.99-7.73-3.5-13.3c0.42-0.68-0.15-1.78-0.91-2.12c-4.76-2.16-5.54-7.26-8.04-11.03
	c-3.19-4.82-2.53-6.19,2.71-8.35c0.46-0.19,0.92-0.35,1.31-0.67c0.28-0.23,0.4-0.53,0.34-1.09c-2.45,2.17-4.38,1.64-5.83-1.07
	c5.23-10.27,12.72-18.13,23.71-22.29c4.32,1.3,6.16,3.87,6.37,8.72c0.26,6.26,2.63,12.34,5.52,17.84c2.2,4.19,3.97,8.38,4.95,12.93
	c0.99,4.57,2.12,8.75,5.79,12.32c4.54,4.42,4.15,10.92,5.18,16.77c0.93,5.26,0.52,10.93,4.46,15.36c0.89,1,1.31,2.35,1.31,3.71
	c-0.02,6.46,3.18,11.77,6.12,17.16c0.89,1.62,2.12,3.21,1.81,5.07c-0.56,3.36,0.61,6.18,2.03,9.03c2.22,4.46,3.07,9.14,3.58,14.17
	c0.59,5.8,3.35,11.29,5.09,16.94c1.45,4.71,3.34,9.23,6.29,13.38c1.88,2.65,0.92,6.48,1.13,9.74c0.5,7.77,3.86,14.72,5.98,21.97
	c1.32,4.53,2.95,9.16,5.05,13.51c0.75,1.56,0.86,3.19,0.61,4.87c-0.35,2.36-0.5,5.22,0.88,6.79c4.36,4.94,3.75,11.51,5.34,17.07
	c2.25,7.89,4.92,15.79,6.66,23.9c1.89,8.82,4.58,17.48,7.41,26.1c2.51,7.65,5.84,15.55,6.33,23.27c0.46,7.36,3.66,14.03,3.42,21.31
	c-0.04,1.18,0.56,2.25,1.13,3.27c2.67,4.77,3.45,10.02,3.92,15.35c0.2,2.23-0.72,4.76,2.06,6.16c0.64,0.32,0.67,1.2,0.37,1.8
	c-2.55,5.04,0.54,9.28,1.93,13.75c0.96,3.08,3.21,6.04,0.8,9.4C237.18,821.79,228.23,823.14,219.05,822.43z"/>
<path class="st7" d="M339.94,778.46c-8.28,7.06-17.37,12.9-26.97,17.99c-3.28,0.17-3.74-2.53-4.14-4.63
	c-1.14-5.89-2.16-11.74-5.57-16.88c-0.71-1.08-0.96-2.57-0.84-3.87c0.8-8.67-2.76-16.93-2.26-25.56c0.1-1.68-0.11-3.39-1.46-4.62
	c-5.95-5.42-5.89-12.58-5.71-19.75c0.02-0.99,0.44-2.02,0.1-2.97c-3.1-8.8-2.59-18.48-7.99-26.93c-2.48-3.89-3.1-9.8-2.53-15.24
	c0.61-5.86-2.92-10.81-5.03-15.96c-1.53-3.75-3.21-7.27-2.9-11.41c0.05-0.66,0.12-1.48-0.26-1.95c-2.61-3.26-2.26-7.27-3.25-10.93
	c-1.19-4.38-2.13-8.5-1.99-13.07c0.1-3.19-0.94-6.1-3.24-9.02c-2.3-2.93-4.53-6.95-3.29-11.39c0.18-0.64,0.75-1.57,0.41-1.88
	c-4.07-3.69-2.18-9.62-5.21-13.63c-1.55-2.05-1.95-4.14-1.04-6.54c0.98-2.6,0.57-4.91-1.62-6.77c-2.33-1.97-3.03-4.81-3.51-7.55
	c-0.43-2.47,0.67-5.37-2.79-6.52c-0.4-0.13-0.54-0.86-0.47-1.35c1.05-7.68-3.74-14.47-3.37-22.09c0.09-1.89-1.01-3.9-2.12-5.54
	c-2.61-3.87-3.82-8.08-3.76-12.71c0.01-1.01-0.03-2.05-0.54-2.92c-7.04-11.84-7.79-25.85-13.15-38.29c-1.11-2.58-0.2-6-3.4-7.73
	c-0.59-0.32-0.71-1.18-0.57-1.82c1.5-6.74-2.06-12.5-3.65-18.63c-0.49-1.88-1.15-3.74-3.97-3.58c-1.85,0.11-2.54-1.83-1.88-3.26
	c1.2-2.6,1.07-5.51,2.3-8.06c1.84-0.78,3.61-0.12,5.34,0.36c10.03,2.74,20.32,4.68,29.66,9.56c0.8,0.89,1.37,1.98,1.5,3.11
	c1.25,10.91,5.04,21.21,7.91,31.69c1.5,5.51,2.62,11.32,6.3,16.41c2.46,3.41,4.2,7.74,4.54,12.76c0.41,5.93,1.17,12.24,4.03,17.82
	c0.85,1.65,1.5,3.33,1.52,5.22c0.01,0.83-0.1,1.81,0.46,2.41c6.96,7.43,5.66,17.33,8.01,26.15c2.64,9.89,4.45,20.03,8.73,29.48
	c1.71,3.78,3.84,7.48,2.74,12.33c-0.54,2.39,2.23,5.2,2.83,8.19c1.84,9.27,5.02,18.18,7.91,27.15c0.48,1.49,0.43,2.91,0.37,4.41
	c-0.15,3.54,0.17,6.99,2.33,10.01c0.48,0.67,1.12,1.46,1.05,2.23c-0.76,8.43,5.74,14.19,7.97,21.54c0.85,2.81,1.86,5.23,0.64,8.08
	c-0.6,1.4-0.92,2.98-0.2,4.38c4.95,9.61,6.14,20.15,7.7,30.61c0.34,2.3,0.81,4.61,2.09,6.62c1.32,2.09,1.66,4.34,1.1,6.71
	c-0.84,3.52,0.2,6.54,2.21,9.39c2.42,3.44,4.49,7,3.94,11.51c-0.16,1.34,0.66,2.55,1.26,3.74c1.78,3.52,2.44,7.28,1.92,11.15
	C337.54,770.63,337.91,774.65,339.94,778.46z"/>
<path class="st8" d="M401.84,701.5c-7.01,13.83-15.26,26.87-24.96,38.98c-3.32,1.05-4.09-1.94-4.74-3.69
	c-1.65-4.43-4.59-8.43-4.76-13.4c-0.03-0.78-0.93-1.67-0.62-2.35c2.07-4.59,0.78-7.89-3.32-10.63c-1.73-1.15-1.21-3.03,0.35-4.21
	c1.84-1.39,1.6-2.62,0.15-4.07c-1.08-1.08-1.97-2.43-1.99-3.94c-0.09-9.39-3.37-18.2-5.86-26.97c-3.18-11.21-4.65-22.79-8.55-33.9
	c-2.41-6.89-4.37-14.35-5.29-21.91c-0.36-2.95-2.07-6.33-2.55-9.32c-1.41-8.66-8.18-15.27-8.58-24.16c-0.05-1-0.26-2.01,0.01-2.97
	c1.88-6.54-0.87-12.22-3-18.16c-2.82-7.89-6.77-15.28-7.84-23.93c-1.59-12.82-6.13-25.05-9.85-37.42
	c-5.46-4.62-3.32-12.07-6.55-17.79c-1.76-3.12-2.48-8.22-2.35-12.05c0.14-4.26-4.66-6.21-3.2-10.29c1.66-0.63,3.28-0.14,4.84,0.33
	c10.88,3.27,21.89,6.01,33.1,7.94c0.98,0.17,1.89,0.55,2.72,1.1c5.18,2.82,6.39,7.64,6.5,13.01c0.02,0.83-0.48,1.85-0.05,2.46
	c5.89,8.2,5,18.52,8.43,27.62c2.61,6.94,5.65,14.17,6.85,22.01c1.03,6.78,0.47,14.52,6.11,20.56c2.24,2.4,1.86,7.21,2.31,10.96
	c1.22,10.04,3.05,19.8,7.35,29.13c3.13,6.77,4.18,14.4,4.89,21.72c0.63,6.45,3.66,11.61,5.86,17.26c0.53,1.38,2.01,2.81,1.22,4.13
	c-2.47,4.11-0.31,7.66,0.81,11.41c2.18,7.27,3.29,14.88,7.02,21.64c0.5,0.91,0.55,1.99,0.11,2.9c-1.18,2.49-0.63,4.23,1.59,5.99
	c2.48,1.96,2.33,5.05,2.01,7.87C399.46,692.23,400.39,696.89,401.84,701.5z"/>
<path class="st9" d="M111.17,459.68c1.59,1.15,3.09,3.63,5.02,0.39c0.27-0.46,0.72-0.85,1.11-0.4s0.74,1.18,0.69,1.75
	c-0.17,1.79-1.72,2.65-3.1,2.81c-4.73,0.56-4.1,3.17-2.04,5.66c3.13,3.8,3.47,9.7,8.96,11.75c1.74,0.65,1.9,3.27,1.06,3.79
	c-3.68,2.28-0.66,3.65,0.3,5.43c0.63,1.16,3.28,1.71,0.81,4.02c-1.1,1.03,1.33,2.16,2.48,2.99c1.85,1.35,3.33,2.28,0.92,4.98
	c-2.21,2.49-2.86,5.55-0.62,9.38c2.04,3.48,3.2,6.86,7.83,7.32c1.09,0.11,1.57,1.28,0.33,2.14c-4.5,3.11-1.37,6.7-0.71,10.15
	c0.82,4.28,4.33,8.57-0.07,12.82c-2.39-7.6-2.88-15.88-8.14-22.47c-0.65-0.81-0.56-2.2-0.88-3.3c-0.98-3.45-0.37-7.22-3.63-10.21
	c-1.79-1.64-2.74-4.7-2.44-7.79c0.32-3.32-0.12-6.67-3.57-8.65c-1.33-0.76-1.31-2.19-1.33-3.55c-0.05-3.07-1.14-5.96-2.5-8.52
	c-1.78-3.33-4.4-6.06-2.24-10.36c0.89-1.78-0.97-3.14-2.54-4.3c-2.15-1.6-5.26-3.12-2.45-6.67c0.42-0.54,0.61-1.53-0.14-1.68
	c-6.09-1.22-3.62-6.7-4.94-10.16c-2.24-5.87-2.44-12.41-7.28-17.41c-1.78-1.84-2.85-5.68-2.31-8.19c0.94-4.37-0.99-7.74-2.82-10.72
	c-4.44-7.26-8.39-15.27-10.32-22.95c-2.08-8.25-7.46-14.79-9.05-23.13c-0.64-3.37-3.4-6.49-2.56-10.58c0.24-1.18-1.27-1.75-2.2-2.46
	c-0.89-0.69-2.17-1.62-2.23-2.52c-0.28-4.28-2.83-8.47-2.87-12.07c-0.11-9.04-6.46-14.01-10.51-20.46
	c-1.22-1.94-2.54-3.72-1.85-5.85c1.03-3.2-0.11-5.35-2.27-7.5c-3.83-3.8-3.43-9.57-6.19-13.87c-3.62-5.65-2.71-12.96-6.94-18.4
	c-1.07-1.38-1.29-3.65-3.55-3.63c-2.56,0.03-1.73,2.82-3.03,4.46c-1.92-2.45-0.93-5.7-3.2-8.1c-2.07,4.32-6.57,2.7-10,4.04
	c-0.48,0.19-1.61-0.11-1.78-0.48c-2.22-4.72-4.68-1.83-7.11-0.3c0-41.96,0-83.93,0-125.89c4.39,0.49,4.93,4.45,6.36,7.38
	c3.02,6.2,6.31,12.28,8.72,18.78c2.87,7.77,7.33,14.87,10.29,22.56c1.94,5.05,1.78,10.78,3.2,16.08c0.23,0.84-0.66,1.86,0.67,2.55
	c6.87,3.59,7.77,10.81,10.63,16.99c3.62,7.83,4.9,16.42,8.65,24.15c1.66,3.43,3.25,6.93,3.73,10.79c0.15,1.19,0.57,2.2,1.58,2.98
	c5.23,4.02,8.98,8.66,7.12,15.94c-0.59,2.29,0.93,4.16,2.44,5.75c2.1,2.21,3.09,4.69,2.43,7.73c-0.82,3.74,1.79,5.94,3.97,8.1
	c2.44,2.42,3.84,4.95,3.12,8.42c-0.14,0.65-0.38,1.57,0,1.95c5.35,5.23,5.11,12.88,6.96,19.19c1.8,6.14,7.59,10.55,6.76,17.99
	c-0.34,3.09,3.52,6.77,5.27,10.31c0.83,1.68,1.55,2.98,1.09,5.05c-0.63,2.83,0.55,5.83,2.41,7.72c1.76,1.79,2.6,3.22,1.9,5.57
	c-0.41,1.37,0.07,2.59,0.84,3.76c2.14,3.23,3.61,6.72,4.05,10.6c0.08,0.66,0.04,1.56,0.51,1.89c4.25,2.9,2.78,7.43,3.26,11.36
	c0.29,2.4,0.85,3.94,2.83,5.99c2.82,2.92,5.98,6.54,6.46,11.23C114.33,434.38,114.72,447.3,111.17,459.68z"/>
<path class="st10" d="M246.02,819.43c0.58-6.44-3.75-11.51-5-17.5c-0.58-2.8-1.09-4.69,2.54-6.51c-3.9-0.17-4.71-1.58-4.31-4.52
	c0.8-5.83-0.43-11.49-3.12-16.67c-1.26-2.42-2.05-4.4-1.57-7.39c0.55-3.46-3.42-6.34-2.92-10.14c0.89-6.87-1.97-12.76-4.07-19.02
	c-1.57-4.67-3.18-9.69-3.84-14.35c-0.82-5.82-3.31-11.11-4.49-16.7c-1.37-6.49-2.53-13.46-5.31-19.82
	c-1.37-3.14-1.93-6.7-2.79-10.01c-1.12-4.25-1.49-9-2.99-12.57c-2.15-5.11-3.67-9.48-3.58-15.19c0.07-4.41-2.89-8.95-4.84-13.28
	c-1.31-2.9-2.91-5.7-2.59-8.94c0.27-2.75-2.32-4.02-2.77-6.15c-1.01-4.84-2.5-9.88-1.96-14.63c0.46-4-1.84-5.92-3.26-8.58
	c-0.96-1.81-5.17-13.05-5.12-15.13c0.02-1.02-0.02-1.98-0.67-2.83c-3.31-4.34-3.34-9.19-3.3-14.48c0.03-3.43-2.84-6.9-4.45-10.33
	c-0.35-0.74-1.42-1.56-1.26-2.04c2.94-8.87-5.72-14.03-7.05-21.66c-0.44-2.51,1.06-5.29-0.81-7.49c-6.56-7.69-4.86-17.37-6.59-26.25
	c-0.5-2.59-1.8-6.11-3.79-7.11c-4.68-2.34-4.75-6.71-5.64-10.43c-1.35-5.64-3.85-10.65-5.93-15.9c-2.31-5.82-6.32-11.85-4.76-19.18
	c0.63-2.94-2.58-5.01-5.65-5.89c-0.4-1.62,0.64-2.59,1.83-3.09c4.64-1.96,8.94-4.94,14.24-4.98c1.4,0.17,2.78,0.71,3.19,2.06
	c1.71,5.59,4.72,10.64,6.55,16.15c6.11,18.39,11.08,37.21,20.37,54.4c1.47,2.72,0.96,5.87,2.15,8.67
	c2.98,7.02,6.31,13.97,8.04,21.41c2.19,9.38,8.57,17.22,9.53,27.01c0.16,1.64,1.15,3.1,1.85,4.61c2.17,4.65,4.34,9.19,4.3,14.64
	c-0.04,4.48,1.98,8.74,3.83,12.84c2.95,6.53,4.89,13.35,6.93,20.21c1.49,5.04,3.49,10.33,4.68,15.24c1.13,4.64,4.31,8.53,4.18,14.05
	c-0.13,5.35,3.37,10.94,5.28,16.42c2.13,6.15,3.73,12.35,4.91,18.76c0.85,4.65,3.43,8.89,4.49,13.63c1.18,5.29,2.9,10.43,4.07,15.77
	c2.05,9.32,5.5,18.37,8.31,27.55c0.88,2.87,1.8,5.72,2.24,8.67c1.61,10.68,4.94,20.84,8.44,31.04c3.48,10.16,5.6,20.79,6.3,31.56
	c0.19,2.95,2.48,5.13,2.16,8.08C263.62,816.64,254.85,818.14,246.02,819.43z"/>
<path class="st7" d="M1401.9,704.51c-7.7,11.43-17,21.57-25.97,31.98c-3.52,1.49-6.02-0.72-8.56-2.48
	c-3.21-2.22-5.57-5.67-10.03-6.02c-1.69-0.13-2.72-2-3.02-3.66c-0.56-3.02-2.87-3.84-5.1-5.39c-7.88-5.46-16.85-9.43-23.54-16.57
	c-1.51-1.61-3.25-2.79-5.2-3.78c-3.59-1.81-6.79-4.15-9.43-7.24c-2.18-2.54-4.55-4.86-7.89-5.87c-0.64-0.19-1.41-0.41-1.72-0.96
	c-3.85-6.65-11.55-8-17.04-12.4c-5.26-4.22-11.17-7.59-16.1-12.27c-1.37-1.3-3.39-1.28-4.99-2.18c-8.03-4.5-14.16-11.37-21.34-16.93
	c-6.95-5.39-14.32-10.22-21.09-15.84c-1.71-1.42-4.28-0.7-6.01-2.2c-0.54-0.98-0.45-2.01,0.17-2.83c2.72-3.57,5.13-7.34,7.4-11.21
	c0.69-1.18,1.88-1.85,3.31-1.96c8.01,1.44,15.72,4.1,23.74,5.58c10.14,1.88,20.37,2.91,30.57,4.24c7.55,4.19,14.47,9.5,22,13.62
	c12.97,7.11,22.99,17.66,33.94,27.15c3.19,2.76,7.12,4.24,10.51,6.62c7.82,5.5,16.34,10.01,23.4,16.59
	c0.25,0.23,0.55,0.63,0.79,0.56c7.77-2.1,8.26,6.17,12.46,9.13c3.43,2.41,6.33,5.53,10.29,7.47
	C1396.68,699.26,1399.72,701.46,1401.9,704.51z"/>
<path class="st11" d="M297.97,459.72c2.04,3.26,6.82,5.38,4.22,10.59c-0.44,0.87,0.8,1.66,1.54,2.35c0.57,0.53,1.42,1.55,1.24,1.96
	c-2.85,6.56,4.36,11.32,3.06,17.61c-0.43,2.05,0.55,3.33,2.61,4.68c2.47,1.62,2.43,5.44,3.04,8.15c2.76,12.29,8.27,23.98,8.39,36.87
	c0.01,1.09,0.61,2.25,1.17,3.24c3.42,6.02,4.99,12.81,7.65,19.14c1.82,4.33,2.67,9.34,1.86,14.96c-0.94,6.51,1.25,13.92,6.66,19.22
	c0.47,0.46,1.51,1.17,1.5,1.18c-2.73,3.72,1.39,6.21,1.47,9.07c0.05,2.02-0.77,3.38,1.51,4.51c1,0.5,1.03,1.7,0.35,2.63
	c-1.72,2.34-0.66,4.39,0.59,6.42c1.82,2.97,2.15,6.08,2.48,9.6c0.51,5.46,2.52,10.92,5.18,15.94c1.92,3.63,1.9,7.78,2.19,11.62
	c0.51,6.69,4.58,12.4,4.98,18.68c0.37,5.68,3.96,10.43,3.29,16.15c-0.38,3.28,0.19,6.14,3.32,8.25c1.79,1.2,3.01,3.26-0.7,3.98
	c-1.21,0.23-2.37,0.67-2.22,2.16c0.11,1.13,1.19,1.35,2.12,1.78c3.44,1.59,4.68,6,2.76,9.4c-0.23,0.41-0.71,1.14-0.64,1.19
	c3.69,3.03,0.38,8.61,4.64,11.83c2.1,1.59,1.18,6.12,4.66,7.56c-8.07,9.87-15.09,20.7-25.94,27.99c-3.37,0.61-3.81-1.7-4.18-4.14
	c-0.66-4.4,1.41-8.14,2.99-11.93c0.95-2.27,1.05-3.68-1.3-5.16c-2.52-1.58-4.12-3.93-2.76-7.21c0.33-0.79,0.52-1.59,0.02-2.38
	c-4.86-7.79-4.47-16.83-6.01-25.4c-0.16-0.89-0.76-0.89-1.13-1.33c-2.44-2.89-3.83-6.2-2.84-10c0.63-2.42,0.15-4.56-0.61-6.81
	c-1.9-5.59-3.85-11.19-3.68-17.23c0.09-3.42-1.8-6.12-2.88-9.14c-2.35-6.53-6.58-13.15-3.25-20.69c0.62-1.41,0.07-2.61-0.65-3.75
	c-2.29-3.69,0.15-8.35-1.43-11.41c-1.65-3.21-5.3-5.37-4.28-9.82c0.07-0.32,0.09-0.78-0.11-0.97c-4.27-4-1.69-8.59-1.11-12.97
	c0.57-4.32-1.54-8.19-5.81-9.6c-2-0.66-2.82-1.56-2.29-3.58c1.48-5.69,0.88-11.59,0.8-17.28c-0.05-3.78-2.59-7.95-5.23-11.21
	c-1.49-1.83-2.12-3.13-0.82-5.22c1.65-2.65,0.81-4.84-1.77-6.28c-3.14-1.76-4.02-3.95-2.63-7.44c1.05-2.62-0.1-5.69-1.52-7.58
	c-3.54-4.72-3.03-10.36-4.62-15.49c-0.39-1.27-0.43-2.71-1.36-3.7c-3.61-3.88-3.29-9.12-3.84-13.64c-1.05-8.6-2.91-16.39-9.85-22.18
	c-1.84-1.53-1.62-3.31-0.1-4.74c2.85-2.67,2.48-5.25,0.05-7.78c-2.48-2.59-0.59-5.75-1.24-8.62c-0.55-2.43,0.23-5.05-1.69-7.37
	c-0.84-1.01-0.83-2.87,0.5-4.1C284.11,453.1,291.08,456.31,297.97,459.72z"/>
<path class="st12" d="M115.15,420.76c-0.09-1.13,0.16-2.6-1.38-2.82c-2.13-0.31-2.69-1.48-2.64-3.43c0.1-4.07-2.09-4.63-6.17-2.63
	c2.59-5.03-0.49-9.47,1.09-13.8c0.1-0.28,0.05-0.85-0.12-0.95c-6.55-3.73-2.8-12.79-8.72-16.84c-0.13-0.09-0.33-0.3-0.3-0.38
	c1.53-3.86-0.53-6.55-2.59-9.54c-0.78-1.13-0.33-3.18-2.01-4.19c-0.36-0.22-0.68-0.79-0.72-1.22c-0.71-8.1-0.68-8.12-5.07-14.3
	c-0.64-0.9-0.83-1.67-0.55-2.74c0.93-3.66-0.18-6.61-2.81-9.37c-1.75-1.84-5.17-3.82-1.67-7.11c-4.51-2.39-1.96-8.44-5.59-11.07
	c-3.65-2.65,2.7-2.64,0.98-4.84c-1.31-1.67-5.48-1.21-4.44-3.81c2.74-6.84-2.43-9.83-5.72-13.83c-0.75-0.91-1.9-1.91-1.42-3.01
	c2.14-4.9-0.32-8.05-3.52-11.33c-1.07-1.1-1.8-3.16-1.26-5.12c1.53-5.52-1.05-11.51-6-13.63c-1.41-0.6-2.16-1.4-2.29-2.89
	c-0.59-6.94-3.6-12.89-7.38-18.59c-1.28-1.93,0.43-4.18-0.53-6.6c-2.59-6.55-5.51-13-7.7-19.75c-0.78-2.4-2.2-8.66-8.3-6.48
	c-0.76,0.27-1.23-0.99-0.89-1.35c2.78-3.04,0.12-5.9-0.24-8.78c-0.72-5.69-2.29-10.93-4.78-16.35c-3.78-8.24-7.33-16.79-10.95-25.09
	c-2.62-6.01-4.41-13.38-10.2-17.94c0-7.66,0-15.32,0-22.98c5.22-5.98,10.45-11.96,15.67-17.94c-1.36,11.91-0.58,23.43-0.69,34.93
	c1.18,1.5-0.23,3.51,1,5c1.01,16.93,7.43,31.99,15.9,46.37c7.01,11.88,15.57,22.43,26.19,31.31c2.9,2.42,5.26,5.48,7.86,8.25
	c0.94,0.76,1.3,2.37,2.99,2.01c1.33,1,2.66,2,3.99,3c-1.9,1.99-1.61,4.09-1.32,6.77c0.88,8.26,4.8,14.67,9.4,21.39
	c5.58,8.15,7.96,18.04,9.92,27.75c1.03,5.12,3.8,9.46,5.61,14.19c2.64,6.86,5.85,13.57,9.07,20.23c2.22,4.6,3.71,9.59,5.75,14.08
	c3.01,6.59,4.3,13.97,8.6,19.97c1.7,2.37,2.25,4.99,2.45,7.93c0.33,4.98,3.69,9.16,4.35,14.13c0.28,3.3-1.51,6.06-2.39,9.05
	c-2.95,10-5.66,20.06-7.83,30.27C117.46,418.23,117.77,420.53,115.15,420.76z"/>
<path class="st11" d="M276,452.73c1.26,1.63-0.41,4.95,3.12,5.33c0.64,0.07,1.08,1.26,0.64,1.61c-3.51,2.81,1.89,6.75-1.31,9.69
	c-0.7,0.64,0.71,1.58,1.34,2.33c2.55,3.06,4.95,6.13-0.25,9.12c-1.47,0.85-1.89,3.32,0.02,3.34c4.31,0.04,4.3,3.09,5.25,5.74
	c2.17,6.02,6.98,11.36,4.54,18.55c-0.36,1.05,0.74,1.75,1.39,2.48c0.55,0.62,1.7,1.44,1.57,1.83c-2.61,7.59,6.06,12.67,4.32,20.62
	c-0.6,2.76,3.1,7.49,4.86,11.25c1.55,3.31-2.61,4.18-1.15,7.03c1.32,2.58,5.03,1.2,5.6,4.3c0.39,2.15,2.25,4.34-0.68,6.18
	c-1.16,0.73-1.5,2.38-0.14,2.79c3.48,1.04,2.42,4.53,3.6,6.05c6.25,8.09,2.13,16.41,1.77,24.62c-0.06,1.28,0.05,1.73,1.38,1.89
	c4.85,0.61,8.87,6.67,7.02,11.06c-1.16,2.75,0.64,5.96-1.72,8.35c-0.07,0.07-0.02,0.44,0.04,0.46c5.39,1.67,2.27,6.02,2.91,9.18
	c0.06,0.32,0.21,0.81,0.42,0.87c6.66,2,3.97,7.36,4.03,11.59c0.03,1.65,0.51,2.85,1.38,4.08c1.23,1.76,2.7,3.28-0.03,5.34
	c-2.72,2.05,2.62,5.48-0.82,7.79c2.63,3.04,2.3,7.4,4.02,10.41c1.89,3.3,3.49,5.9,3.59,9.98c0.16,7.01,2.06,13.83,4.83,20.38
	c1.24,2.94-2.37,5.76-0.12,9.43c1.42,2.31,1.07,5.24,5.93,3.01c-4.23,3.59-3.42,6.67-1.44,9.76c2.48,3.86,1.15,8.3,2.01,12.41
	c0.2,0.96,0.15,2.14,0.7,2.82c1.84,2.28,4.52,3.59,1.77,7.66c-1.5,2.23,2.8,4.41,4.99,5.93c1.46,1.01,1.12,0.83,0.55,2.41
	c-1.59,4.42-4.58,8.44-4.1,13.6c0.22,2.37,1.02,3.7,3.11,4.47c-2.83,4.25-7.47,6.51-11,9.99c-4.45-2.11-3.94-6.29-3.42-9.83
	c0.79-5.34,0.45-10.2-2.61-14.75c-0.43-0.64-0.96-1.67-0.74-2.24c1.87-4.73-1.33-7.72-3.54-11.11c-1.18-1.8-3.08-3.91-2.51-5.82
	c2.58-8.69-4.44-15.79-3.52-24.38c0.43-4.04-3.74-8.49-3.55-12.65c0.22-4.97-2.55-8.16-4.04-12.12c-0.11-0.29-0.12-0.7,0-0.99
	c4.04-9.77-3.63-16.29-6.8-24.01c-0.68-1.65-2.28-2.78-0.91-4.76c1.2-1.73,0.2-3.08-0.86-4.47c-2.83-3.75-3.31-7.98-2.36-12.46
	c0.1-0.45,0.31-1.11,0.1-1.37c-4.34-5.22-2.54-12.52-6.39-18.11c-2.01-2.91-1.35-7.31-2.54-10.97c-0.75-2.32-0.29-4.97-3.32-6.01
	c-0.39-0.13-0.86-1.3-0.67-1.63c4.06-7.01-1.94-11.72-3.99-17.28c-0.39-1.06-0.8-1.95-0.94-3.14c-0.53-4.55-1.2-9.06-3.26-13.34
	c-1.48-3.08-2.05-6.58-2.16-10.13c-0.12-4.11-0.46-8.29-3-11.83c-0.74-1.04-0.96-2.03-0.51-3.25c1.11-3.04,1.04-5.54-2.83-6.52
	c-1.11-0.28-2.23-1.29-2.21-2.48c0.08-7.81-4.17-14.58-5.14-22.1c-0.58-4.46-0.42-8.95-3.03-13.06c-0.89-1.39-0.57-3.53-2.83-4.05
	c-1.11-0.26-1.91-1.31-1.81-2.15c0.48-4.19-2.53-7.44-3.1-10.96c-2-12.47-7.6-24.07-8.42-36.75c1.77-1.32,3.47-0.21,5.2,0.14
	c5.63,2,11.34,3.76,16.99,5.72C273.03,450.24,275.17,450.52,276,452.73z"/>
<path class="st13" d="M214.05,433.75c1.74,2.69,0.86,5.1-0.9,7.32c-0.79,1-0.67,1.99,0.07,2.67c0.95,0.86,1.29-0.38,1.85-0.87
	c1.88-1.64,2.21,0.33,2.61,1.32c1.75,4.29,3.53,8.61,4.25,13.21c0.27,1.69,0.4,3.33,1.68,4.54c2.82,2.67-1.47,3.82-1.16,5.46
	c0.38,2.01,4.72,1.26,4.25,4.51c-0.87,6.03,2.81,10.8,4.27,16.18c0.25,0.94,1.11,1.88,0.98,2.72c-1,6.58,2.82,12.3,4.9,17.69
	c2.06,5.33,3.59,10.44,4.29,15.98c0.36,2.8,3.23,4.17,3.86,6.84c1.45,6.15,3.16,12.25,3.18,18.65c0,0.6,0.29,1.6,0.69,1.74
	c3.78,1.34,2.57,3.01,0.71,5.23c-0.98,1.16-0.8,2.65,1.51,2.18c2.38-0.49,3.34,0.97,2.58,2.82c-2,4.85-0.45,8.05,3.48,11.18
	c2.02,1.6,2.62,4.62,0.95,7.29c-1.36,2.18-1.19,4.05,0.87,5.67c1.74,1.37,2.23,3.2,2.05,5.33c-0.26,2.94-0.08,5.64,3.2,7.06
	c0.82,0.36,1.83,1.44,0.85,2.4c-2.57,2.53-2.42,4.37,0.22,7.03c1.49,1.5-0.44,4.62,3.2,6.54c3.03,1.6,2.5,6.94,2.03,10.49
	c-0.4,3.03-0.19,5.45,1.16,8.07c1.14,2.22,3.17,4.38,0.73,7.19c-0.96,1.1,0.17,2.02,1.4,2.55c1.55,0.68,2.32,2.26,2.08,3.68
	c-1.33,7.87,4.01,13.76,5.93,20.65c1.07,3.82,4.15,7.27,1.37,11.61c-0.63,0.99-0.07,2.25,1.09,2.99c0.86,0.56,1.75,1.35,1.3,2.43
	c-1.64,3.96,0.55,6.77,2.27,10.06c2.82,5.4,5.74,10.94,4.31,17.57c-0.25,1.18,0.9,2.78,1.67,4.02c0.74,1.18,1.54,2.38,0.96,3.69
	c-2.43,5.54,0.51,10.62,1.19,15.89c0.1,0.79,0.33,1.98,0.86,2.22c6.49,3.01,4.81,8.97,5.08,14.11c0.22,4.14-0.27,8.33,2.48,11.93
	c0.81,1.07,0.52,2.26-0.16,3.27c-1.14,1.7-1.11,3.47-0.3,5.19c3.36,7.12,5.34,14.66,7.05,22.3c0.18,0.81,1.29,1.41,1.98,2.1
	c-4.33,2-8.65,4.01-12.98,6.01c-3.47-3.67-4.18-8.52-5.1-13.11c-0.95-4.73-2.36-9.29-3.62-13.91c-2.15-7.92-4.76-15.83-5.15-24.15
	c-0.03-0.66,0.24-1.52-0.15-1.96c-3.83-4.34-2.81-10.1-4.48-15.06c-1.58-4.72-2.76-9.36-2.04-14.58c0.89-6.44-3.67-11.57-5.77-17.28
	c-3.28-8.91-5.63-17.97-6.92-27.4c-0.59-4.3-0.99-8.93-3.95-12.62c-0.52-0.65-1.05-1.38-1.15-2.19c-1.14-10-5.71-19.04-7.92-28.78
	c-2.66-11.73-5.49-23.52-10.65-34.52c-1.2-2.56-0.65-5.22-1.23-7.81c-1.31-5.83-3.97-11.24-4.93-17.19
	c-0.52-3.22-1.8-6.17-4.75-8.45c-3.13-2.41-2.45-6.72-3.23-10.18c-2.49-11.17-5.52-22.14-9.1-33.02c-2.4-7.28-4.99-14.4-8.65-21.13
	c-3.49-6.43-3.2-13.84-5.24-20.68c-4.07-13.68-9.01-27.03-14.26-40.28c-1.13-2.86-2.82-5.81-0.49-8.92
	C199.31,428.29,207.01,429.36,214.05,433.75z"/>
<path class="st14" d="M1401.9,704.51c-8.48-4.94-16.89-9.99-23.64-17.28c-0.85-0.92-1.14-2.34-1.75-3.5c-0.52-1-1.35-2.79-2.38-1.86
	c-3.94,3.51-5.03-0.26-6.66-2.38c-1.61-2.1-4.19-2.6-6.12-4.09c-11.15-8.61-24.11-14.52-34.38-24.67
	c-5.68-5.61-11.43-11.93-18.6-15.64c-6.91-3.58-12.84-8.38-19.36-12.23c-2.73-1.61-5.94-2.43-7.97-5.25
	c2.24-2.08,4.97-1.54,7.59-1.32c13.29,1.12,26.56,1.03,39.86,0.02c8.28-0.63,16.62-0.23,24.9-1.21c1.93-0.23,4.03-0.15,5.59,1.49
	c4.27-1.14,7.89,3.53,12.31,1.41c0.2-0.1,0.93,0.45,1.13,0.85c3.99,8.15,12.19,11.27,19.17,15.63c9.16,5.72,18.51,11.14,26.39,18.55
	c1.77,1.66,1.66,4.97,4.78,6.2c1.72,0.68,3.26,1.43,5.13,1.32C1420.74,676.1,1411.74,690.56,1401.9,704.51z"/>
<path class="st15" d="M1276.05,794.44c-5.37-0.36-10.59,1.66-15.99,1.01c-4,0.79-7.99,0.79-11.99,0
	c-63.94-2.4-107.33-43.16-114.89-105.92c1.69-1.31,3.25-0.31,4.61,0.51c4.65,2.8,9.95,4.47,13.64,8.93
	c3.45,4.16,8.77,5.94,13.23,8.77c4.66,2.96,7.62,7.79,12.63,10.28c1.74,0.87,3.27,2.16,5.25,2.64c1.48,0.36,2.96,1.01,3.75,2.32
	c4.07,6.69,11.34,8.92,17.53,12.6c2.72,1.62,5.48,3.11,7.85,5.23c6.4,5.73,12.47,11.88,20.36,15.69c0.74,0.36,1.41,0.92,1.95,1.54
	c6.37,7.32,15.77,10.76,22.48,17.71c2.23,2.31,5.81,3.04,8.73,4.6C1271.07,783.48,1273.86,788.65,1276.05,794.44z"/>
<path class="st16" d="M286.98,808.42c-3.66,1.33-7.33,2.66-10.99,4c-2.17-0.87-4.01-2.69-4.16-4.67
	c-0.52-6.84-4.68-12.91-4.13-19.89c0.41-5.26-2.51-9.62-4.07-14.23c-1.59-4.7-2.84-9.3-2.32-14.07c0.71-6.54-2.06-12.22-4.49-17.62
	c-2.47-5.48-3.83-10.77-4.05-16.66c-0.36-9.37-2.8-18.2-7.39-26.47c-3.4-6.12-3.91-13.37-7.06-19.65c-0.44-0.88-0.51-2.18,0.12-2.9
	c3.38-3.86,1.23-7.61-0.37-11.1c-2.71-5.93-4.3-11.98-5.47-18.45c-1.33-7.33-4.63-14.43-6.13-21.78c-1.41-6.92-4.74-13.33-4.9-20.57
	c-0.1-4.45-2.99-8.05-5.06-11.82c-1.65-3-2.61-5.78-2.04-9.42c0.6-3.83-0.13-7.43-3.19-10.91c-3.21-3.64-3.81-9.08-5.38-13.78
	c-1.25-3.76-2.14-7.7-2.27-11.74c-0.06-1.85-0.42-3.76-1.62-5.17c-3.42-4.03-3.88-9.13-5.05-13.91c-0.91-3.73-2.84-7.32-3.32-10.85
	c-0.98-7.19-4.41-13.32-6.42-19.99c-1.61-5.34-2.82-10.39-5.97-15.31c-2.23-3.49-2.25-8.83-2.42-13.45
	c-0.1-2.78-0.38-5.29-2.89-7.03c-0.68-0.47-1.27-1.25-1.36-2.05c-1.22-10.23-6.69-19.17-8.74-29.14c-0.11-0.51,0.1-0.97,0.37-1.4
	c0.92-0.7,1.99-0.91,3.11-1c3.1-0.01,6.2-0.03,9.3,0c1.08,0,2.12,0.2,3.1,0.65c2.84,3.94,6.72,7.51,5.21,13.15
	c-0.48,1.8,0.6,1.73,1.82,2.06c3.35,0.93,4.87,3.28,4.42,6.75c-0.38,2.92,0.07,5.59,1.8,8.06c1.18,1.69,1.13,3.77,1.48,5.74
	c0.8,4.53,1.75,8.78,4.48,12.95c2.57,3.94,3.45,9.27,3.39,14.32c-0.04,3.84,0.62,7.17,4.21,9.51c2.13,1.39,3.02,3.97,1.86,6.2
	c-1.74,3.35-1.32,6.79,0.16,9.48c3.34,6.1,2.17,13.68,6.97,19.26c2.97,3.45,1.79,8.28,3.03,12.38c0.66,2.18,2.17,4.82,1.9,6.38
	c-0.81,4.75,2.16,7.92,3.37,11.79c0.19,0.59,0.02,1.22,0.65,1.72c6.02,4.7,7.11,10.65,4.26,17.51c-0.59,1.42-0.27,2.58,0.62,3.7
	c1.71,2.14,2.97,4.41,2.38,7.32c-0.21,1,0.03,1.6,1.24,2.21c3.98,2.01,5.64,6.4,3.64,10.13c-1.39,2.59-0.57,4.18,1.37,5.5
	c2.54,1.72,3.15,3.92,2.93,6.86c-0.34,4.62,0.35,8.98,2.11,13.53c1.79,4.63,1.54,10.02,2.63,15.05c1,4.6,2.1,9,4.8,12.87
	c0.9,1.29,0.83,2.43,0.28,3.73c-1.31,3.08-0.29,5.12,2.78,6.29c2.65,1.01,2.95,3.1,1.94,5.31c-1.29,2.83-0.76,5.53,0.04,8.27
	c0.75,2.58,1.05,5.16,0.96,7.87c-0.13,3.87,0.72,7.55,2.8,10.95c1.73,2.83,3.39,5.73,4.62,8.84c0.37,0.93,1.06,2.01,0.79,2.85
	c-2.24,7.15,1.76,12.44,4.5,18.44c1.3,2.84,1.58,6.97,1.59,10.59c0,1.4,0.14,2.68,1.3,3.6c3.73,2.93,3.48,6.95,2.86,10.96
	c-0.31,1.98-0.83,3.86-0.11,5.87c1.34,3.76,2.01,7.66,2.7,11.59c1.03,5.83,1.48,11.83,4.54,17.22c1.18,2.08,1.98,4.68,0.99,7.23
	C284,804.78,287.58,805.94,286.98,808.42z"/>
<path class="st17" d="M1215.11,622.58c4.24-0.94,7.4,1.34,10.21,3.87c4.78,4.3,10.28,7.54,15.41,11.32
	c5.2,3.83,9.57,8.77,14.72,12.67c3.8,2.87,8.09,5.21,12.21,7.63c4.71,2.77,9.17,6.6,13.63,10.11c4.83,3.81,9.89,7.4,15.78,9.54
	c0.6,0.22,1.28,0.58,1.63,1.07c4.8,6.84,12.29,10.69,18.5,15.84c5.61,4.65,10.97,10.24,17.39,13.44
	c6.42,3.21,10.85,9.73,18.49,10.69c1.5,0.19,1.76,1.71,1.93,3.12c0.41,3.39,1.21,6.07,5.85,5.4c2.58-0.37,3.66,2.9,5.47,4.38
	c2.94,2.4,5.98,4.06,9.61,4.81c-6.64,7.03-12.72,14.64-20.95,20.01c-3.48-1.64-5.14-5.07-7.47-7.8c-1.28-1.51-2.22-2.87-4.45-1.89
	c-0.97,0.43-2,0.19-2.78-0.56c-9.85-9.28-20.75-17.21-31.86-24.87c-3.29-2.26-5.01-6.78-9.86-6.84c-0.56-0.01-1.29-0.74-1.34-1.36
	c-0.47-4.9-4.67-4.54-7.82-6.07c-5.58-2.7-11.34-5.41-15.14-10.73c-0.58-0.81-1.06-1.93-2.04-2.1c-8.15-1.37-12.8-7.46-17.8-13.08
	c-0.22-0.25-0.41-0.58-0.69-0.71c-11.67-5.56-18.6-17.72-31.19-22.14c-4.59-1.61-8.86-4.03-11.84-8.64
	c-1.86-2.88-5.88-4.15-8.92-6.16c-2.23-1.48-4.52-2.87-5.17-5.76c0.5-2.79,3.37-3.14,4.94-4.83c3.36-2.08,5.95-5.03,8.8-7.7
	C1211.66,624.01,1212.68,621.97,1215.11,622.58z"/>
<path class="st4" d="M401.84,701.5c-3.75-3.61-3.16-8.27-3.19-12.83c-0.02-3.53,1.97-7.93-3.62-9.41c-1.19-0.31-1.44-1.69-1.06-2.48
	c3.08-6.41-2.48-10.91-3.34-16.36c-0.99-6.32-3.44-12.15-4.79-18.31c-0.07-0.32-0.29-0.74-0.17-0.96
	c3.77-6.63-1.85-11.25-3.94-16.37c-1.85-4.53-1.13-9.23-2.46-13.74c-0.54-1.83-0.18-3.92-1.79-5.58c-0.65-0.67-1.44-2.01-1.18-2.62
	c2.27-5.38-1.76-8.56-3.7-12.68c-1.28-2.7-1.73-6.17-2.31-9.29c-1.51-8.16-2.35-16.44-3.52-24.67c-0.11-0.76-0.47-1.82-1.05-2.13
	c-5.04-2.75-3.73-7.9-4.82-12.17c-1.89-7.42-1.85-15.36-5.95-22.19c-0.98-1.63-2.72-3.14-0.71-5.22c0.21-0.22,0.07-1.02-0.17-1.38
	c-4.18-6.22-6.21-12.98-5.5-20.52c0.06-0.64-0.89-1.32-1.25-2.05c-1.47-2.96-4.1-4.94-3.14-9.45c0.82-3.81-0.8-8.82-5.24-11.39
	c1.86-1.77,4.15-1.33,6.37-1.25c1.05,0.15,2.03,0.45,2.7,1.35c0.69,7.1,5.3,11.83,10.06,16.47c2.74,4.78,4.34,9.92,4.74,15.42
	c-0.87,2.52,0.81,4.02,2.26,5.62c0.92,1.2,1.05,2.76,1.59,3.63c-0.85-4.17-2.71-8.65-1.44-13.52c3.63-3.08,5.61,0.85,8.27,1.94
	c2.1,2.31,1.79,5.12,1.63,7.9c-0.2,1.09-0.51,2.11-1.62,2.64c-1.17,0.05-1.81-0.69-2.36-1.57c-0.11-0.29-0.36-0.68-0.25-0.89
	c0.3-0.59,0.06-1.13-0.11-0.49c-0.17,0.64-0.24-0.4-0.09,0.23c0.54,2.34,0.37,4.8,1.19,7.09c1.73,10.51,3.62,20.97,9.35,30.23
	c-0.41,7.16,1.32,13.89,4.25,20.35c2.03,3.43,2.33,8.04,6.69,9.9c0.42,0.22,0.78,0.51,1.09,0.87c-1.85,3.76,0.91,6.32,2.55,9.02
	c2.05,3.38,4.19,6.7,5.87,10.29c3.89,6.48,7.98,12.84,11.46,19.49c0.33,0.51-0.5,0.61,0.07,0.29c0.55-0.31-0.33-0.51-0.23-0.87
	c-1.42-3.96-4.77-7.34-3.49-12.06c2.42-1.13,3.17,1.01,4.08,2.31c2.63,3.74,5.25,7.49,8.05,11.11c1.46,4.31,2.81,8.66,4.28,12.97
	c-2.98,18.21-7.81,35.89-15.09,52.87C407.9,687.9,404.84,694.69,401.84,701.5z"/>
<path class="st18" d="M1276.05,794.44c-2.2-1.65-3.31-4.16-4.57-6.42c-3.05-5.43-8.28-7.33-13.49-9.75c-3.22-1.5-5.74-4.5-8.55-6.86
	c-1.01-0.85-1.88-2.47-2.93-2.58c-6.6-0.68-8.61-7.41-13.63-10.01c-9.42-4.87-16.46-12.71-24.65-19.11
	c-5.35-4.19-12.03-6.45-17.71-10.34c-1.82-1.24-3.53-2.13-4.18-4.37c-0.39-1.35-1.43-2.69-2.72-2.64c-4.53,0.16-6.8-3.99-10.64-5.28
	c-2.96-0.99-3.69-4.9-6.75-6.83c-5.51-3.46-11.95-5.86-16.3-10.77c-4.63-5.23-10.84-7.17-16.71-9.95
	c-1.52-8.05-0.92-16.19-0.98-24.3c-0.01-1.59-0.55-3.37,0.97-4.68c4.09-0.91,7.22,0.46,9.05,4.22c1.11,2.27,2.94,3.59,5.07,4.56
	c8.29,3.79,15.31,9.38,21.98,15.44c1.58,1.44,3.32,2.28,5.42,1.97c2.7-0.4,4.6,0.86,5.86,2.93c2.28,3.75,5.57,5.92,9.65,7.22
	c2.94,0.94,4.96,2.93,6.77,5.53c2.85,4.09,6.17,7.85,11.63,8.7c2.28,0.36,3.27,2.86,5.13,3.77c7.49,3.66,13.34,9.56,19.98,14.36
	c6.67,4.83,14.01,8.91,20.23,14.06c4.53,3.75,10.39,6.42,13.55,11.88c0.59,1.02,1.74,1.62,2.91,1.78c2.74,0.36,4.53,1.79,5.62,4.3
	c0.54,1.23,1.45,2.52,2.76,2.73c5.91,0.95,8.83,5.92,13.06,9.19c4.73,3.66,9.46,7.51,15.34,9.36c1.13,0.35,2.2,0.78,2.81,1.9
	c-9.29,4.39-19.25,6.59-29.15,8.96C1279.27,793.8,1277.66,794.1,1276.05,794.44z"/>
<path class="st17" d="M286.98,808.42c-2.06-2.29-5.1-3.82-2.88-8.16c0.87-1.7-0.7-5.21-2.04-7.35c-3.7-5.93-2.99-12.67-4.02-19.07
	c-0.31-1.94-1.39-3.35-2.09-4.96c-1.81-4.15-0.17-8.12,0.01-12.17c0.12-2.67,0.22-5.45-3.2-6.49c-0.55-0.17-1.43-1.11-1.34-1.28
	c2.08-4.15-2.94-7.79-0.8-11.93c0.76-1.46,0.08-2.77-1.34-3.23c-2.48-0.8-4.17-1.65-1.84-4.4c0.44-0.52,0.39-0.98-0.54-1.4
	c-4.25-1.9-3.27-4.95-1.74-8.23c1.76-3.77-0.99-6.63-2.43-9.63c-1.91-3.95-5.04-7.39-5.31-12c-0.33-5.58-0.44-11.17-2.3-16.54
	c-0.24-0.7-0.11-1.77,0.28-2.41c1.83-2.98,3.1-5.32-2.19-5.96c-1.89-0.23-3.43-3.45-2.73-4.77c3.03-5.67-3.03-8.71-3.23-13
	c-0.27-5.74-3.38-10.91-2.71-16.65c0.16-1.37,0.53-2.65-0.33-3.78c-3.71-4.86-3.21-10.28-2.28-15.81c0.33-1.94-0.96-2.66-2.42-3.77
	c-2.32-1.78-6.47-3.56-1.63-7.57c2.62-2.17-0.91-4.75-1.19-7.26c-0.3-2.71-1.81-0.22-2.96-0.04c-2.25,0.37-1.98-2.07-1.56-3.11
	c1.55-3.82-0.18-6.43-2.82-8.65c-1.93-1.63-0.91-2.7,0.11-4.16c2.25-3.24,1.54-12.29-1.05-14.87c-0.23-0.23-0.55-0.56-0.8-0.53
	c-1.61,0.17-3.49,0.93-4.19-1.33c-0.51-1.67,1.92-2.21,1.84-3.97c-2.38-0.32-4.45-1.19-5.38-3.69c-0.28-0.75-0.99-1.92-0.01-2.16
	c5.12-1.28,1.16-2.86,0.53-4.81c-1.19-3.66-2.15-7.47-2.19-11.43c-0.04-3.3-1.62-6.1-3.62-8.63c-0.61-0.77-2.16-1.6-2.03-2
	c1.83-5.83-2.71-10.13-3.49-15.28c-0.17-1.14,0.19-2.5-0.76-3.3c-1.95-1.65-0.69-2.34,0.29-4.01c1.42-2.42,2.36-6.18-1.43-7.64
	c-3.71-1.42-4.29-4.45-3.95-7.16c0.67-5.36-0.89-10.58-2.65-14.95c-1.62-4.02-5.12-7.69-4.89-12.26c0.29-5.81-4.69-9.91-4.1-15.7
	c0.35-3.36,1.49-8.01-5.14-5.67c-1.68,0.59-1.96-2.58-1.74-2.81c4.26-4.24-0.49-7.06-1.51-10.42c-0.33-1.1-0.74-2.18-1.12-3.27
	c3.25-1.97,6.16-0.82,8.99,0.99c-0.05,5.48,3.11,9.86,4.95,14.71c1.69,4.45,3.37,8.96,4.74,13.47c2.27,7.45,5.29,14.64,7.19,22.24
	c1.4,5.57,1.12,11.42,3.85,16.81c2.65,5.23,5.8,10.34,7.18,16.14c1.7,7.14,5.9,13.57,6.09,21.12c0.08,3.24,2.89,5.32,3.14,8.74
	c0.44,6.09,3.26,11.85,3.25,18.11c0,0.52,0.63,1.32,1.16,1.53c5.92,2.35,5.19,8.04,6.36,12.71c1.11,4.43,3.37,8.46,3.98,13.07
	c1.25,9.42,6.25,17.75,8.45,26.77c3.05,12.55,5.95,25.07,10.21,37.3c1.47,4.22,2.2,8.45,4.38,12.65c1.37,2.62,2.83,7.06,2.25,11.34
	c-0.56,4.11,1.25,8.47,2.32,12.54c2.25,8.53,5.64,16.76,9.54,24.72c1.1,2.24,1.39,4.73,0.75,6.81c-1.61,5.23,0.85,9.6,2.29,14.19
	c0.51,1.62,0.86,3.18,0.84,4.85c-0.01,1.16-0.43,2.73,0.15,3.43c6.08,7.26,4.12,16.83,6.74,25.11c2.09,6.61,5.51,13.46,5.37,21.11
	c-0.08,4.39,2.4,8.83,3.73,13.24C296.25,805.76,291.43,806.69,286.98,808.42z"/>
<path class="st19" d="M1341,767.47c-3.94,4.13-9.02,6.48-13.99,8.99c-2.65,1.47-4.86,0.56-6.64-1.48c-2.69-3.06-5.72-5.49-9.72-6.67
	c-1.6-0.47-3.3-1.47-3.99-2.87c-3.38-6.93-10.45-10.23-16.2-13.47c-6.98-3.94-11.78-11.18-20.02-12.91
	c-0.62-0.13-0.05,0.27-0.41-0.24c-5.77-8.11-15.37-11.43-22.61-17.91c-6.96-6.23-14.62-12.16-22.29-17.81
	c-1.24-0.92-2.7-1.25-4.16-1.61c-1.3-0.33-2.85-0.52-3.62-1.56c-4.9-6.65-12.6-9.58-19.17-13.72c-8.7-5.48-16.11-12.77-24.99-17.69
	c-10.36-5.74-18.24-14.14-26.88-21.77c-0.72-0.64-1.75-1.15-0.95-2.39c0.92-0.82,2.06-1.16,3.22-1.14
	c7.28,0.12,14.52-0.69,21.78-1.02c1.11-0.03,2.18,0.15,3.21,0.55c9.3,5.69,18.18,12.06,27.28,18.08c0.99,0.65,2.02,1.27,2.56,2.32
	c1.79,3.48,3.93,6.13,8.51,5.15c1.28-0.27,2.49,0.86,3.36,1.9c5.39,6.48,13.03,10.1,19.39,15.34c8.35,6.88,18.11,11.77,26.58,18.37
	c8.35,6.51,16.95,12.73,24.99,19.7c8.98,7.79,18.86,14.51,29.64,19.79c5.49,2.69,8.81,8.03,13.36,11.9
	c0.87,0.74,1.32,2.28,2.45,2.38C1337.74,758.23,1338.94,763.22,1341,767.47z"/>
<path class="st20" d="M1145.17,645.56c4.81,0.25,6.62,4.56,9.41,7.34c1.63,1.62,3.17,3.26,5.03,4.65
	c7.81,5.8,15.75,11.36,24.15,16.3c2.07,1.22,3.73,3.53,5.85,5.2c5.75,4.52,12.07,8.99,18.26,11.76c6.26,2.8,9.07,9.92,16.88,10.75
	c3.06,0.32,7.07,5.23,10.51,8.17c3.47,2.97,6.38,6.91,11.37,8.32c3.47,0.98,5.03,5.14,8.16,7.33c3.34,2.33,5.87,5.75,10.31,6.3
	c0.79,0.1,2.04,0.5,2.19,1.02c1.32,4.59,5.26,6.08,9.01,7.54c4.2,1.63,6.24,7.18,9.38,7.77c5.95,1.13,8.42,6.13,13,8.51
	c2.93,1.52,5.48,3.99,7.96,6.59c5.31,5.54,12.77,9.02,19.37,13.32c0.23,0.15,0.65,0.02,0.99,0.02c-5.15,3.76-11.15,5.71-16.98,7.99
	c-8.72-1.82-15.28-6.81-21.65-12.92c-2.25-2.16-4.31-7.5-9.55-5.71c-3.12-5.61-10.11-6.69-13.71-11.72
	c-0.38-0.52-0.49-1.6-0.89-1.69c-7.81-1.77-10.48-10.75-17.99-12.82c-6.26-1.72-9.39-7.69-14.89-10.62
	c-5.85-3.11-10.62-8-16.12-11.83c-5.88-4.09-13.83-5.33-17.81-11.95c-3.09-5.14-7.35-7.81-13.19-9.01
	c-2.87-0.59-2.83-4.99-5.43-6.71c-0.89-0.59-1.25-2.25-2.68-1.72c-4.83,1.76-7.61-1.05-9.68-4.6c-1.77-3.03-5.3-2.44-7.48-4.42
	c-3.95-3.57-7.78-7.23-13.1-8.9c-2.49-0.78-4.35-2.22-5.08-5.43c-0.78-3.4-5.12-2.34-7.59-3.87c0.09-3.09-0.13-6.16,0.79-9.24
	c0.9-2.98,0.09-5.26-3.79-4.76c0.72-3.02,3.26-2.08,5.22-2.4C1138.7,644.32,1142.19,643.18,1145.17,645.56z"/>
<path class="st21" d="M1341,767.47c-1.77-0.83-2.98-2.28-3.45-4.07c-0.74-2.84-2.19-4.35-5.27-3.96c-2.73,0.34-2.76-2.38-4.06-3.67
	c-7.42-7.36-15.13-14.39-25.29-17.8c-3.98-1.34-6.24-4.79-9.31-7.17c-5.91-4.57-11.59-9.66-17.49-14.09
	c-8-6-15.69-12.54-24.28-17.83c-7.78-4.79-14.99-10.5-22.4-15.81c-5.77-4.13-11.09-8.5-16.21-13.29c-0.5-0.47-1.72-0.78-2.26-0.5
	c-4.73,2.42-6.13-1.3-7.77-4.24c-0.67-1.19-1.19-2.45-2.41-3.03c-5.83-2.74-10.82-6.69-15.62-10.87c-2.79-2.43-6.91-2.31-9.45-5.21
	c-0.66-0.75-1.51-1.26-1.56-2.37c0.07-0.15,0.1-0.39,0.21-0.43c7.28-3.12,14.9-4.84,22.77-5.57c1.69,3.82,5.7,4.85,8.67,7.1
	c7.82,5.91,15.04,12.45,24.39,16.51c5.08,2.21,11.59,4.9,13.57,11.96c0.41,1.46,3.38,2.79,5.33,3.09c3.22,0.49,5.5,2.43,6.66,4.74
	c2.71,5.39,9.15,6.58,12.06,11.58c0.61,1.04,1.74,0.86,2.58,0.09c1.81-1.66,2.75-0.23,3.39,1.1c2.94,6.11,9.72,7.61,14.18,11.89
	c1.41,1.36,3.81,0.35,5.86,1.5c2.35,1.32,6.05,0.65,3.89,5.19c-0.11,0.24,0.9,1.46,1.19,1.39c6.43-1.54,7.24,5.25,11.12,7.56
	c8.74,5.19,16.55,11.72,24.29,18.37c2.21,1.9,5.95,1.99,6.5,5.92c0.04,0.26,1.08,0.7,1.22,0.58c5.13-4.73,5.27,1.6,7.42,3.35
	c2.35,1.92,3.91,4.49,5.52,7.01C1351.31,761.41,1346.24,764.55,1341,767.47z"/>
<path class="st22" d="M782.51,842.41c-10.19-0.13-19.9-2.23-28.96-7.03c2.05-4.51,4.94-8.68,8.25-12.1
	c7.42-7.66,13.7-16.14,20.3-24.43c6.9-8.67,13.41-17.68,21.47-25.45c3.97-3.83,5.77-9.65,9.95-13.58c9.08-3,18.31-5.59,26.8-10.14
	c1.44-0.66,2.89-1.29,4.26-2.09c1.19-0.6,1.84-1.75,2.69-2.7c-0.02-0.55,1.66-0.32,0.7-1.03c-1.37-1.01-3.27-1.43-2.5-3.78
	c6.43-4.35,14.14-5.69,21.02-8.99c1.81-0.87,3.72-1.44,3.77-3.92c2.58-1.64,4.89-4.12,8.44-2.69c0.64,1.07,0.41,2.05-0.29,2.99
	c-1.23,0.36-2.49,0.65-3.68,1.11c-2.78,1.06-2.71,2.44-0.33,3.97c-0.86,3.99-2.77,7.16-6.27,9.57c-3.96,2.72-7.35,6.14-9.53,10.57
	c-0.81,1.64-1.63,3.44-3.04,4.53c-7.66,5.93-11.73,14.7-17.48,22.11c-5.7,7.34-13.06,13.25-17.84,21.32
	c-3.31,5.59-8.02,9.87-12.44,14.53c-7.12,7.51-12,16.95-19.16,24.57C786.94,841.54,785.59,843.86,782.51,842.41z"/>
<path class="st23" d="M166.1,428.75c3.55,5.26,4.1,11.55,5.93,17.4c0.46,1.48,0.51,2.95,2.23,3.49c2.3,0.73,1.86,2.33,1.36,4.03
	c-0.92,3.13-0.95,5.91,2.78,7.38c0.65,0.26,1.55,1.28,1.47,1.82c-0.83,5.51,2.18,10.59,1.64,16.04c-0.06,0.64-0.06,1.29-0.09,1.94
	c5.95-0.1,2.46,6.61,5.97,8.35c0.41,0.2,0.71,1.22,0.61,1.78c-1.18,6.8,3.16,11.57,6.12,16.85c0.23,0.41,0.65,0.95,0.54,1.3
	c-2.65,8.39,3.61,14.84,5.11,22.34c1.82,9.13,5.51,17.89,7.72,27.08c1.25,5.22,1.48,11.91,7.61,15.77c1.5,0.94,2.14,6.37,0.7,9.75
	c-0.88,2.07-0.59,3.59,0.52,5.55c3.48,6.11,7.91,11.96,6.75,19.7c-0.22,1.44,0.78,2.44,1.62,3.5c1.45,1.86,2.48,3.97,1.97,6.4
	c-0.97,4.61,2.03,8.34,2.88,12.55c1.19,5.95,4.42,11.44,4.56,17.78c0.1,4.53,1.78,9.08,4.02,12.53c2.05,3.16,1.33,7.18,4.31,9.77
	c1.08,0.94-0.21,2.27-1.15,2.83c-3,1.76-2.34,3.89-1.02,6.34c1.93,3.57,3.46,7.24,3.87,11.42c0.43,4.39,3.34,7.92,5.39,11.62
	c2.83,5.12,3.51,10.76,4.24,16.12c1.05,7.7,1.08,15.18,4.98,22.54c3.32,6.28,4.75,13.62,3.88,21.37
	c-0.63,5.59,3.04,10.87,4.83,16.28c0.3,0.91,1.53,1.81,1.39,2.52c-1.66,8.19,3.59,15.26,3.66,23.21c0.02,2.12,2.28,4.23,3.5,6.34
	c-1.24,0.69-2.54,1.16-3.99,1.01c-5.52-5.07-3.28-12.3-4.7-18.43c-1.55-6.65-3.43-13.3-4.48-20.1c-0.26-1.65-2.23-2.99-2.6-4.66
	c-2.29-10.27-4.9-20.5-7.5-30.67c-2.12-8.32-3.52-16.99-7.41-24.96c-1.81-3.72-3.92-7.99-2.4-12.71c0.68-2.12-1.34-3.67-2.13-5.41
	c-2.59-5.68-4.4-11.95-5.79-17.64c-2.07-8.52-4.65-16.9-6.83-25.38c-0.75-2.9-1.83-5.69-3.2-8.16c-1.25-2.26-2.29-3.65-0.47-6.08
	c1.29-1.74,0-3.07-1.89-3.66c-2.51-0.79-3.18-2.24-1.58-4.48c1.45-2.04,0.62-3.8-1.36-4.3c-3.13-0.79-2.87-2.07-1.35-4.15
	c0.33-0.45,0.49-1.39,0.24-1.83c-4.33-7.71-4.35-16.82-8.18-24.72c-3.21-6.61-6.63-13.21-5.61-21.11c0.23-1.78-1.56-3.89-2.63-5.74
	c-5-8.69-3.76-19.95-11.36-27.56c0.56-5.94-3.42-10.68-4.32-16.11c-0.84-5.09-4.34-8.66-5.57-13.49
	c-4.16-16.32-13.07-30.93-17.51-47.17c-2.66-9.72-5.6-19.28-10.56-28.11c-0.94-1.68,1.33-5.07-2.71-5.1
	C152.97,428.09,161.06,426.57,166.1,428.75z"/>
<path class="st24" d="M1127.2,540.65c-11.88-12.45-22.57-25.85-32.13-40.17c-1.16-1.74-1.86-3.95-4.03-4.9
	c-2.03-4.02,0.87-7.55,1.13-11.34c1.13-5.31,2.26-10.63,3.24-15.97c0.2-1.1-0.73,0.22-0.96-0.26c-0.45-0.23-0.78-0.56-1-1.01
	c-1.03-2.63,0.5-5.12,0.4-7.7c1.07-5.55,0.83-11.36,3.38-16.59c1.49-0.55,2.29,0.47,2.64,1.54c1.83,5.57,6.47,8.66,10.58,12.21
	c1.14,0.98,2.53,1.84,3.01,3.24c1.96,5.72,5.94,9.72,10.64,13.21c1.61,1.19,2.75,2.82,3.48,4.75c0.71,1.88,1.67,3.95,3.45,4.74
	c4.24,1.88,6.1,6.03,7.42,9.48c2.28,5.98,6.88,8.7,11.72,11.5c2.23,1.29,3.89,2.74,5.09,5.13c2.35,4.7,5.33,8.99,10.28,11.46
	c1.61,0.8,2.76,1.92,1.76,3.95c-2.9,1.81-6.3,2.04-9.49,2.91c-2.73,0.75-4.9,2-6.09,4.65c-9.71-0.77-16.12,4.98-22.27,11.27
	C1127.54,543.3,1127.97,541.33,1127.2,540.65z"/>
<path class="st25" d="M782.51,842.41c4.17,0.48,5.28-3.41,6.83-5.65c4.15-6.01,10.21-10.43,13.06-17.77
	c1.15-2.96,4.38-7.38,8.93-8.67c1.74-0.49,2.56-1.94,3.42-3.41c4.85-8.25,10.87-15.48,17.55-22.41c4.2-4.35,8.35-9.28,11.12-14.95
	c1.67-3.42,3.89-6.45,6.9-8.77c5.98-4.6,7.85-12.54,13.71-17.03c4.19-3.21,7.53-6.92,10.38-11.23c7,7.45,13.97,14.93,19.01,23.94
	c-1.25,6.13-5.56,10.51-9.24,15.08c-2.23,2.76-4.8,5.52-7.9,7.53c-1.46,0.95-2.75,2.63-4.85,1.37c-4.95-2.97-9.88-5.98-14.87-8.9
	c-2.16-1.26-4.24-1.93-4.07,1.93c0.67,2.32,0.72,4.64-0.02,6.96c-1.37,14.53-6.17,27.64-15.52,39.05
	c-9.97,12.16-22.65,19.83-37.99,22.34C793.69,842.71,788.06,844.79,782.51,842.41z"/>
<path class="st26" d="M813.49,760.55c-4.04,5.46-6.4,12.05-11.95,16.54c-3.55,2.87-5.87,6.99-8.56,10.73
	c-2.92,4.06-7.25,7.19-9.85,11.59c-4.13,7.01-9.43,13.28-14.96,18.92c-5.31,5.41-8.66,12.34-14.62,17.05
	c-7.22-4.24-14.65-8.2-19.98-14.96c0.14-1.25,0.91-2.15,1.85-2.84c6.55-4.79,11.61-10.84,15.24-18.06c2.51-5,6.58-8.63,10.39-12.54
	c7.06-7.24,11.94-16.28,19.12-23.45c1.2-1.2,1.85-2.72,2.43-4.3c0.64-1.76,1.44-3.4,3.66-3.58c7.46,2.93,15.11,4.47,23.17,3.52
	C810.88,759.01,812.43,759.23,813.49,760.55z"/>
<path class="st27" d="M974.31,794.43c-5.29,13.72-5.01,27.73-2.2,41.88c-2.87-1.34-9.71-8.76-13.76-14.89
	c-1.54-3.46-1.11-7.19-1.23-10.79c-0.39-12.77,0.3-25.53,0.15-38.32c-0.13-10.24,0.23-20.6,0.81-30.89c0.19-3.4-0.41-6.62-0.91-9.88
	c-1.01-6.51,0.5-12.93,0.58-19.4c0.09-7.74-1.58-15.58,0.6-23.27c3.57-3.93,8.49-4.87,13.33-5.99c2.29,0.9,2.95,3.08,2.53,4.93
	c-1.77,7.66,0.73,15.17,0.4,22.77c-0.42,9.95-1.66,19.93-0.75,29.87c1.24,13.43-0.26,26.85,0.46,40.25
	C974.57,785.28,972.61,789.85,974.31,794.43z"/>
<path class="st28" d="M959.32,688.41c-0.19,14.35-0.82,28.72-0.36,43.05c0.17,5.27,0.36,10.57,0.37,15.85
	c0.02,15.94-0.55,31.87-0.72,47.79c-0.07,6.76-1.32,13.68,0.49,20.51c0.46,1.75-0.46,3.86-0.74,5.81
	c-6.08-6.59-11.14-13.87-15-21.97c-2.13-7.33-0.51-14.8-0.7-22.2c-0.47-17.89,1.18-35.8-0.6-53.68c-0.1-0.99-0.31-2.01-0.13-2.98
	c1.83-10.1,0.08-20.18-0.17-30.26c0.49-3.82,3.12-5.15,6.52-5.6C951.74,686.58,955.77,686.8,959.32,688.41z"/>
<path class="st29" d="M785.66,756.42c-3.56,9.24-11.86,15.04-16.91,23.27c-2.68,4.36-6.33,8.33-10.49,11.58
	c-3.79,2.96-5.88,7.27-7.96,11.26c-3.97,7.64-10.04,12.98-16.74,17.89c-5.92-5.39-10.65-11.66-13.94-18.98
	c5.47-3.78,8.71-9.54,12.74-14.56c4.68-5.83,8.93-12.02,14.29-17.26c3.27-3.2,4.47-7.74,7.63-10.97
	c10.13-2.24,20.43-3.04,30.76-3.63C785.64,755.31,785.84,755.78,785.66,756.42z"/>
<path class="st30" d="M974.31,794.43c-2.58-1.22-2.2-3.64-1.92-5.66c1.21-8.71,0.27-17.47,0.69-26.21
	c0.55-11.62-0.59-23.31-0.68-34.97c-0.05-6.04,0.65-12.08,0.88-18.12c0.09-2.47,0.46-5.2-0.41-7.38c-1.51-3.82-0.96-7.38-0.21-11.09
	c0.54-2.68,0.89-5.34-1.42-7.49c0.18-2.87,3.18-3.18,4.52-5.01c1.22-0.97,2.51-1.7,4.15-1.13c0.8,0.26,1.56,0.3,2.41,0.02
	c5.52-1.85,7.31-0.87,7.27,4.99c-0.11,16.21,0.82,32.45-0.73,48.63c-0.62,6.48,1.47,12.77,0.99,19.3c-0.4,5.35-0.7,10.75-0.56,16.15
	c-5,7.5-10.41,14.75-13.64,23.29C975.07,791.29,974.17,792.7,974.31,794.43z"/>
<path class="st31" d="M1092.19,588.6c2.56-8.66,7.34-16.07,13.02-22.96c4.68-0.5,6.86,3.54,9.36,6.01
	c6.85,6.74,14.39,12.78,20.69,20.06c3.98,4.6,8.63,8.53,12.72,13.03c-0.06,4.95-3.43,8.78-4.47,13.4c-1.83,4.08-2.5,8.61-4.89,12.46
	c-2.1,1.59-3.67,0.35-5.27-0.94c-5.66-4.56-10.1-10.43-15.43-15.17c-7.9-7.04-13.6-16.19-22.32-22.33
	C1094.28,591.22,1092.93,590.15,1092.19,588.6z"/>
<path class="st32" d="M1092.19,588.6c4.07,1.35,6.68,4.75,9.72,7.4c3.69,3.21,6.63,7.25,10.03,10.81c4.09,4.27,8.3,8.42,12.49,12.59
	c3.24,3.22,5.93,6.98,9.82,9.61c1.3,0.88,2.36,1.67,3.93,1.59c0.87,5.37-0.89,10.21-2.99,14.99c-1.69,0.24-3.59-0.64-5,0.99
	c-4.8-0.3-9.22,2.08-13.99,1.98c-6.81-9.26-15.78-16.31-24.29-23.83c-2.99-2.64-4.79-6.31-7.63-9.1
	C1085.86,606.29,1087.43,596.98,1092.19,588.6z"/>
<path class="st26" d="M989.29,766.46c-3.36-1.9-0.97-4.96-1.09-7.28c-0.4-7.21,0.99-14.44-0.72-21.71
	c-0.9-3.83,0.62-7.91,0.71-11.82c0.34-14.71,0.21-29.43,0.1-44.15c-0.04-4.88-1.42-5.61-5.48-2.52c-2.85,2.17-2.97,0.43-3.49-1.54
	c-0.21-1.47,0.88-2.19,1.9-2.56c6.98-2.53,11.53-8.08,16.6-13.02c1.49-1.46,2.88-3.34,5.47-2.66c3.62,2.66,3.67,6.56,3.2,10.36
	c-1.01,8.27-0.1,16.57-0.44,24.77c-0.56,13.75,0.4,27.5-0.68,41.22c-0.21,2.65-0.42,5.27-0.09,7.91
	c-3.76,7.42-9.47,13.43-14.45,19.96C990.11,764.37,989.34,765.21,989.29,766.46z"/>
<path class="st33" d="M1008.35,651.73c3.76-5.09,7.64-10.1,11.24-15.3c3.36-4.86,6.43-9.93,9.63-14.91
	c2.87,14.26,8.32,28.18,7.8,42.89c-0.67,18.81-3.77,37.23-14.55,53.42c-0.53,0.8-0.81,1.77-1.2,2.67c-4.39,0.75-4.27-3.12-3.98-5.07
	c1.2-7.95-0.31-15.85,0.21-23.78c1.02-15.48-0.18-30.98,0.44-47.31c-2.4,2.37-3.58,4.6-5.41,6.21
	C1011.41,651.53,1010.38,653.63,1008.35,651.73z"/>
<path class="st34" d="M1008.35,651.73c3.42-0.42,4.08-3.75,6.07-5.69c1.27-1.24,2.8-2.21,4.27-3.35c1.8,4.68,0.52,10.03,0.43,15.13
	c-0.23,13.3,0.6,26.59-0.43,39.92c-0.43,5.6,0.62,11.38-0.26,17.15c-0.3,1.99-0.07,4.74,2.83,5.61
	c-4.44,8.28-9.85,15.88-15.99,22.97c-1.65-1.43-2.22-3.3-1.88-5.37c1.65-9.94,0.99-19.89,0.42-29.86c-0.15-2.56,0.56-5.18,0.86-7.77
	c0.82-7.01-1.24-13.96-0.42-21c0.36-3.09,0.23-6.2,0.81-9.34c0.71-3.83,0.85-7.98-3.07-10.7c-0.08-3,1.72-4.69,4.16-5.91
	C1006.79,652.8,1007.24,651.86,1008.35,651.73z"/>
<path class="st11" d="M1147.18,604.61c-11.65-8.32-19.48-20.66-30.91-29.34c-3.8-2.88-6.98-6.84-11.05-9.64
	c3.66-5.58,7.62-10.89,12.99-14.99c2.94-1.51,4.91,0.53,6.36,2.33c8.73,10.81,19.31,19.83,28.62,30.07
	c1.32,1.45,2.79,2.84,3.55,4.74C1154.81,594.1,1152.62,600.28,1147.18,604.61z"/>
<path class="st27" d="M1104.22,790.43c-4.86-0.83-8.89-3.49-13-5.96c-1.02-13.18-3.03-26.24-5.18-39.26
	c-1.42-8.59-1.28-17.51-4.82-25.71c3.41-2.09,7.2-2.06,10.99-2c3.7-1.44,5.55-0.07,7.08,3.58c2.93,6.96,2.6,14.38,3.29,21.53
	c0.99,10.26,3.29,20.27,4.48,30.46c0.5,4.27,1.06,8.52,1.08,12.86C1108.17,788.94,1106.73,789.97,1104.22,790.43z"/>
<path class="st35" d="M710.46,762.37c0.84-1.53,1.88-2.91,3.85-2c6.79,3.13,14.22,1.48,21.22,2.91c1.11-1.15,2.64-1.5,4.05-1.49
	c4.16,0.02,8.47,0.95,11.38-3.39c0.37-0.55,1.52,0.09,2.2,0.58c0.14,0.21,0.27,0.41,0.4,0.62c-0.06,4.96-3.51,8.23-6.46,11.35
	c-7.78,8.24-14.17,17.53-21.13,26.39c-1.57,2-3.13,4.45-6.34,4.09c-5.75-9.38-7-19.93-8.07-30.55
	C711.27,768.04,712.73,764.95,710.46,762.37z"/>
<path class="st36" d="M1081.23,719.5c4.98,3.24,4.19,8.96,4.57,13.43c0.59,6.83,2.17,13.46,2.89,20.24
	c0.88,8.35,2.32,16.64,3.53,24.96c0.32,2.23-0.59,4.24-1,6.34c-5.25-5.17-12.47-7.95-17-13.98c-2.29-15.01-3.97-30.11-6.99-45
	C1071.27,722.02,1076.08,720.37,1081.23,719.5z"/>
<path class="st37" d="M1084.27,615.6c5.5,1.5,6.51,7.54,10.76,10.53c5.47,3.86,10.35,8.6,15.25,13.2c2.68,2.52,4.87,5.55,5.92,9.21
	c-8.3,3.07-16.14,6.74-21.13,14.65c-1.88,2.97-2.85,6.29-4.49,10.26c-3.38-8.94-5.05-17.55-6.37-26.27
	C1082.61,636.64,1082.96,626.12,1084.27,615.6z"/>
<path class="st28" d="M871.44,780.46c9.27-4.59,14.59-12.94,20.04-21.15c0.63-0.95,1.29-1.89,1.94-2.83
	c4.93,4.81,7.42,11.2,10.74,17.01c2.52,4.4,4.19,9.29,6.24,13.96c-3.7,6.81-8.69,12.48-14.99,16.99
	C888.45,795.41,880.18,787.7,871.44,780.46z"/>
<path class="st38" d="M1104.22,790.43c4.16-1.7,2.78-5.7,2.53-8.29c-0.84-8.52-2.79-16.93-3.88-25.44
	c-1.06-8.25-2.67-16.48-2.6-24.84c0.03-4.64-1.96-8.69-3.25-12.93c-0.74-2.42-3.14-1.06-4.79-1.42c3.24-1.98,6.82-1.18,10.11-0.64
	c2.64,0.43,5.24,0.53,7.88,0.66c2.22,3.55,2,7.66,2.31,11.54c0.91,11.25,3.09,22.3,4.73,33.43c1.09,7.38,1.43,14.84,2.7,22.2
	c0.23,1.33,0.22,2.65-0.75,3.76C1114.36,790.25,1109.33,790.67,1104.22,790.43z"/>
<path class="st39" d="M1119.2,788.45c-2.75-17.38-4.41-34.92-7.56-52.27c-1.08-5.95-1.98-12.36-1.43-18.66
	c4.56,1.06,8.89,2.73,12.99,4.99c2.01,4.8,2.82,9.97,3.03,15.02c0.5,12.19,2.99,24.07,4.78,36.05c0.44,2.96,1.17,5.89,0.18,8.88
	C1127.67,785.41,1123.92,787.89,1119.2,788.45z"/>
<path class="st40" d="M1131.19,782.46c-1.58-8.89-3.49-17.73-4.65-26.67c-1.44-11.05-2.26-22.18-3.34-33.28
	c18.97,11.77,27.54,35.17,14.97,52.98C1136.25,778.21,1133.93,780.55,1131.19,782.46z"/>
<path class="st7" d="M1156.17,587.62c-5.63-5.09-10.82-10.61-15.85-16.29c-5.01-5.66-11.58-9.83-15.59-16.51
	c-1.35-2.25-3.64-3.89-6.53-4.17c1.5-2.44,3.68-4.11,6.02-5.71c1.45-0.99,2.95-2.19,2.98-4.29c0.66,0.67,1.33,1.33,1.99,2
	c4.69,2.13,7.37,6.57,11.18,9.73c7.53,6.26,14.93,12.69,22.58,18.82c1.15,0.92,2.44,1.78,2.89,3.34c-1.07,5.48-5.15,9.05-8.34,13.19
	C1157.04,587.98,1156.59,587.94,1156.17,587.62z"/>
<path class="st39" d="M895.41,804.44c5-5.66,9.99-11.33,14.99-16.99c5.31,10.44,9.1,21.39,10.98,32.98c-2,4.87-4.64,9.16-9.99,10.99
	C906.88,821.94,901.43,813.02,895.41,804.44z"/>
<path class="st32" d="M1067.23,725.49c3.67,3.22,2.34,7.9,3.42,11.87c2.54,9.33,2.05,19.16,4.5,28.53c0.38,1.45,0.62,3.33-0.93,4.61
	c-4.47-0.79-6.91-4.83-10.74-6.83c-2.7-1.41-5.57-2.62-8.21-4.19c1.93-2.54,2.29-5.27,1.59-8.4c-1.08-4.82-1.62-9.75-2.63-14.59
	C1057.58,731.65,1061.96,728.03,1067.23,725.49z"/>
<path class="st41" d="M911.4,831.42c3.93-3.12,6.52-7.45,9.99-10.99c2.43,6.1,2.42,12.59,3,18.99c0.79,6.99,0.8,13.99,0,20.98
	c-0.67,5.66-1.34,11.32-2,16.98c-2.48-0.21-1.21-2.14-1.44-3.3c-0.37-1.87,0.49-3.87-0.55-5.69c-0.44-11.93-3.39-23.26-8.07-34.18
	C911.94,833.3,911.7,832.34,911.4,831.42z"/>
<path class="st42" d="M1054.24,736.48c1.34,0.62,1.83,1.7,2.05,3.15c0.71,4.56,1.81,9.08,2.28,13.66c0.26,2.48,1.2,5.97-3.3,6.19
	c-5.26-2.07-9.99-0.49-15.7,3.31C1043.74,752.43,1046.68,743.21,1054.24,736.48z"/>
<path class="st43" d="M1066.25,695.52c-2.19,1.16-4.36,2.4-6.99,2c-1.61-7.74-1.65-15.42,1-22.97c2.36-0.44,4.22,0.66,5.98,2
	C1067.77,682.88,1066.45,689.2,1066.25,695.52z"/>
<path class="st44" d="M1053.23,695.56c-4.98-1.58-6.38-5.42-5.92-10.07c0.48-4.92,2.5-8.88,7.95-9.96c1.78,1.99,0.97,4.43,0.98,6.65
	c0.03,3.11-0.5,6.2-0.07,9.36C1056.45,693.52,1056.11,695.62,1053.23,695.56z"/>
<path class="st22" d="M1053.23,695.56c1.3-0.63,2.36-1.71,1.92-3.1c-1.8-5.69,0.38-11.29,0.11-16.93c1.41-1.64,3.31-0.76,5-0.98
	c-0.33,7.66-0.67,15.31-1,22.97C1057,697.63,1054.84,697.44,1053.23,695.56z"/>
<path class="st3" d="M1066.25,695.52c-2.19-6.32-0.24-12.65,0-18.97C1073.53,679.87,1072.52,691.73,1066.25,695.52z"/>
<path class="st45" d="M924.39,860.39c0-6.99,0-13.99,0-20.98C926,846.41,926,853.4,924.39,860.39z"/>
<path class="st45" d="M920.39,868.38c2.49,2.59-0.5,6.4,1.99,8.99c-0.04,1.19-0.47,2.2-1.99,3.74
	C920.39,876.38,920.39,872.38,920.39,868.38z"/>
<path class="st45" d="M186.08,822.43c2.65,0.43,5.54-0.99,7.99,1C191.42,822.98,188.54,824.42,186.08,822.43z"/>
<path class="st46" d="M1386.95,425.75c0.33,0.33,0.67,0.67,1,1c2.99,1.95,4.29,5.85,7.99,6.99c0.74,8.44,4.58,14.92,12.2,18.85
	c1.74,0.9,3.17,1.02,0.95,3.22c-2.54,2.53-0.18,2.79,1.83,2.91c-6.06,11.7-15.25,20.15-26.96,25.99c-1.34,1.03-2.05,0.14-2.82-0.85
	c-4.24-5.48-7.82-11.55-13.77-15.51c-1.17-0.78-1.48-2.15-1.99-3.38c-1.91-4.55-3.45-9.1-7.77-12.44c-3.02-2.33-3.55-6.88-5.9-10.21
	c-5.58-7.92-10.9-16.21-17.33-23.28c-4.3-4.73-7.12-9.9-10.54-14.99c-4.1-6.1-8.42-12.26-14.33-17c-2.09-1.68-2.91-4.54-3.32-7.13
	c-0.55-3.53-2.26-6.14-4.78-8.48c-2.98-2.77-4.91-6.14-6.19-10.08c-1.68-5.17-5.06-9.23-9.75-12.08c-1-0.61-2.64-1.25-2.55-2.2
	c0.56-6.29-4.69-9.67-7.51-13.86c-5.25-7.81-8.35-17.17-15.38-23.62c-5.28-4.85-8.08-11.16-11.91-16.86
	c-1.47-2.18-2.51-4.68-4.31-6.67c-0.56-0.62-1.45-1.25-1.39-2.01c0.5-6.43-4.13-10.98-6.1-16.5c-1.46-4.08-5.25-7.06-7.75-10.74
	c-5-7.38-11.19-13.95-14.81-22.28c-1.12-2.58-2.73-5.01-4.75-7c-2.6-2.56-5.69-4.41-3.46-9.15c0.99-2.11-1.76-4.57-3.14-6.47
	c-3.93-5.4-7.51-10.75-9.19-17.43c-1.02-4.06-5.35-6.21-8.09-9.31c-3.46-3.91-5.69-8.15-6.24-13.28c-0.44-4.14-3.24-6.83-5.84-9.58
	c-2.08-2.2-3.97-4.45-4.92-7.37c4.08-3.5,9.14-5.04,13.99-6.99c3.35,2.99,4.6,7.46,7.38,10.97c1.94,2.44,1.69,5.54,5.92,3.94
	c-0.16,4.43,3.6,6.43,5.68,9.51c1.2,1.77,2.17,3.94,2.24,6.42c0.05,1.78,1.5,2.31,3.28,1.14c2.49-1.63,3.39-0.17,3.22,2.13
	c-0.47,6.5,3.54,11.12,6.73,16.02c0.8,1.23,1.7,2.39,2.36,3.72c1.41,2.81,2.09,6.2,6.8,5.38c1.99-0.35,3.62,2.12,5,3.71
	c0.68,0.78,0.49,2.18-0.11,3.32c-0.66,1.27-3.54-1.56-2.9,1.46c0.37,1.75,2.39,0.35,3.49,0.92c0.71,0.36,1.58,0.88,1.84,1.54
	c1.65,4.2,3.9,7.17,8.87,8.34c2.18,0.51,1.34,4.28,0.31,6.62c-2.17,4.92-1.56,6.15,3.53,7.08c2.27,0.41,3.21,2.39,4.05,4.01
	c1.04,2.02,1.68,3.91,4.49,3.79c1.29-0.06,1.81,1.03,1.06,2.05c-2.06,2.82,0.1,3.98,1.83,5.54c4.81,4.3,8.49,9.42,10.84,15.46
	c0.3,0.76,0.52,2.06,0.98,2.16c7.97,1.68,8.59,11.85,16.22,13.95c1.97,0.54,1.77,2.08,0.47,3.49c-3.03,3.3-1.59,5.27,2.01,6.6
	c2.61,0.97,3.57,2.85,4.75,5.53c1.84,4.17,4.97,8.73,8.81,10.84c6.48,3.57,7.05,9.89,9.62,15.33c0.46,0.98,0.16,2.3,1.4,2.97
	c5.54,3,9.4,7.24,10.05,13.81c0.1,1.02,1.1,1.59,1.73,1.53c6.16-0.55,6,5.67,9.09,8.37c0.12,0.1,0.29,0.33,0.25,0.41
	c-4.05,8.14,5.19,8.02,7.72,12.07c0.98,1.57,2.74,2.1,2.11,4.74c-0.76,3.18,2.14,4.12,4.6,4.72c1.73,0.42,2.81,0.41,2.45,3.04
	c-0.52,3.82,3.53,4.34,5.94,5.66c2.16,1.18,4.51,1.58,3.1,4.88c-0.56,1.32,0.53,2.26,1.43,2.91c2.79,2,3.01,6.27,7.04,7.38
	c1.34,0.37,2.82,2.77,2.98,4.37c0.56,5.73,4.99,7.09,9.12,8.94c1.91,0.09,2.91,1.09,3,3
	C1384.63,420.25,1384.61,423.59,1386.95,425.75z"/>
<path class="st47" d="M1168.15,154.97c3.83,4.41,7.85,8.67,11.36,13.32c1.03,1.36,0.47,3.85,0.85,5.79c1.2,6.2,5.57,10.31,9.8,14.46
	c2.61,2.55,4.69,4.89,5.35,9.03c0.7,4.42,3.61,8.43,7.06,11.82c2.26,2.22,2.58,5.95,5.21,8.12c0.19,0.16,0.29,0.81,0.17,0.92
	c-5.9,4.99,0.98,5.98,2.65,8.65c2.85,4.57,5.43,9.31,8.38,13.81c3.24,4.95,7.19,9.48,10.06,14.63c2.84,5.09,9.5,7.81,9.16,14.8
	c6.46,4.62,3.4,14.01,9.58,18.94c2.23,1.78,1.29,6.41,5.47,6.91c0.09,8.91,9.99,11.25,12.44,18.27c2.83,8.08,10.3,13.24,12.51,21.56
	c0.34,1.27,1.46,2.33,2.81,2.66c2.78,0.68,3.45,2.16,2.35,4.77c-0.62,1.47-0.5,3.22,1.09,3.95c7.53,3.46,11.28,9.65,13.25,17.35
	c0.31,1.21,1.24,2.41,2.19,3.29c4.04,3.74,7.47,7.63,8.19,13.55c0.37,3.02,2.87,4.91,5.43,7.03c3.05,2.53,5.48,6.35,8.09,9.68
	c3.3,4.22,6.24,8.73,7.47,14.1c0.28,1.24,1.02,2.19,2.32,2.27c3.02,0.2,3.47,3.07,5.14,4.52c4.47,3.88,5.71,9.77,10.11,13.81
	c4.3,3.95,7.27,9.52,9.85,15c0.63,1.34,0.85,3.52,1.83,3.93c5.23,2.18,6.44,7.01,7.63,11.52c0.88,3.33,3.65,4.33,5.49,6.45
	c4.25,4.89,8.37,9.9,12.55,14.86c-0.57,1.31-1.57,1.99-3.01,2c-2.92-0.03-5.19-2.21-8.06-2.44c-0.33-0.03-0.78-0.23-0.82-0.5
	c-1.01-6.1-8.39-8.26-9.16-14.18c-0.6-4.61-4.76-5.46-6.98-8.28c-1.61-2.06-3.6-3.87-4.88-6.21c-1.7-3.11-4.44-5.32-6.63-7.96
	c-4.9-5.9-11.35-10.59-14.05-18.31c-1.37-3.93-4.96-6.52-8.02-9.25c-3.72-3.33-7.61-6.47-9.13-11.5c-0.38-1.28-1.13-2.01-2.33-2.32
	c-3.9-1.03-5.76-4.12-6.54-7.54c-0.83-3.64-4.08-6.11-4.16-10.04c-0.03-1.47-1.93-1.64-3.04-2.3c-3.86-2.29-6.49-5.31-9.14-9.18
	c-2.73-3.99-4.87-8.6-7.99-12.05c-4.08-4.5-6.79-9.81-10.46-14.5c-1.65-2.1-3.2-4.16-5.31-5.78c-2.7-2.08-4.96-4.25-5.1-8.09
	c-0.11-2.89-2.74-4.07-5.04-4.98c-3.89-1.54-6.42-4.14-7.13-8.27c-0.42-2.41-1.77-3.84-3.93-4.73c-1.24-0.51-2.54-1.16-3.09-2.41
	c-1.77-4.07-3.19-8.34-7.74-10.34c-0.54-0.24-0.95-1.07-0.9-1.72c0.38-5.53-3.55-8.29-7.2-11.16c-2.96-2.33-4.59-5.69-6.75-8.59
	c-4.63-6.23-8.66-12.97-13.65-18.89c-4.52-5.36-8.06-11.13-11.04-17.39c-1.06-2.22-3.03-3.38-5.38-4.62
	c-2.9-1.53-6.29-4.37-6.14-8.26c0.15-4.06-1.81-6.23-4.75-8.03c-2.2-1.35-4.12-2.77-4.69-5.48c-0.21-1.02-0.97-1.75-1.98-2.08
	c-4.69-1.54-6.49-4.78-5.92-9.6c0.4-3.42-1.59-5.06-4.59-6.17c-5.96-2.2-9.06-6.6-11.96-12.4c-2.02-4.05-3.37-7.81-4.34-12.1
	c-0.54-2.4-4.06-3.34-5.08-5.96c-0.09-0.69-0.03-1.44,0.5-1.85c6.4-4.99,12.79-10.02,20.8-12.29
	C1162.2,157.71,1164.84,155.58,1168.15,154.97z"/>
<path class="st48" d="M1358.98,616.59c-20.53,0.72-41.02,2.44-61.6,2.07c-5.48-0.1-10.83-1.76-16.33-1.06
	c-19.08-0.91-37.69-4.47-55.94-10.01c-0.38-0.37-0.63-0.82-0.75-1.33c0.93-5.79,4.34-10.92,4.45-16.93
	c1.86-10.29,1.22-20.37-2.15-30.31c-2.17-6.38-5.35-12.03-10.25-16.73c-1.83-1.76-4.29-3.35-3.76-6.54c1.75-2.8,4.87-3.32,7.6-4.29
	c7.95-2.82,15.95-5.5,24.05-7.87c16.66-4.6,33.61-7.87,50.53-11.28c2.44-0.49,4.89-0.9,7.28-1.62c6.96-1.33,13.83-3.1,20.78-4.5
	c2.05-0.41,4.2-1.23,6.12,0.49c3.61-0.06,7.1-0.25,7.29,5.02c0.07,1.82,1.7,2.1,3.36,0.85c1.04-0.79,1.79-3.7,3.12-2.04
	c1.47,1.83,4.4,4.14,3.26,6.62c-2.14,4.64-1.36,9.5-1.01,13.93c0.2,2.54,1.19,5.79,2.14,8.56c0.89,2.57-0.05,4.3-1.28,5.93
	c-1.57,2.07-2.44-0.4-3.55-0.99c-1.35-0.72-2.34,0.39-2.07,1.07c1.01,2.59,0.96,6.14,4.02,7.25c3.79,1.37,5.82,3.97,7.12,7.51
	c0.45,1.23,0.86,3.27,1.64,3.45c6.25,1.47,10.44,7.15,17.21,7.9c2.1,0.23,3.74,0.87,6.13,0.3c2.42-0.58,1.39,3.08,2.77,4.54
	c1.66,1.76-0.67,2.85-1.69,3.96c-0.51,0.55-1.36,0.8-2.55,1.45c-0.22-2.25,2.02-4.53-0.68-5.85c-3.98,5.44-3.29,10.74,1.35,15.03
	c3.4,3.15,0.49,6.97-0.33,10.18c-0.66,2.57-2.42,4.3-1.14,7.66c1.23,3.23-3.73,4.03-5.14,6.58
	C1365.65,616.05,1362.14,614.56,1358.98,616.59z"/>
<path class="st49" d="M1329,506.68c-7.21,0.62-14.09,2.87-21.14,4.28c-1.95,0.39-3.85,0.74-5.82,0.72c-4.97,1.57-8.1-1.9-11.38-4.45
	c-1.91-1.49-4.09-3.51-4.9-5.49c-2.24-5.53-7.62-7.51-11.22-11.41c-1.86-2.02-3.58-4.03-2.98-7.01c0.41-2.05-0.68-3.02-2.27-3.91
	c-2.71-1.51-4.72-3.65-5.5-6.77c-0.2-0.81-0.46-1.72-1.16-2.17c-4.63-2.99-7.27-7.08-7.72-12.67c-0.13-1.56-1.86-2.2-3.31-2.71
	c-6.88-2.4-11.04-7.56-13.87-13.95c-2.09-4.72-6.34-7.63-9.36-11.57c-2.33-3.04-4.61-6.02-6.55-9.35c-2.25-3.86-4.94-7.48-9.12-9.64
	c-2.45-1.26-4.2-3.23-5.02-5.94c-1.58-5.23-5.78-8.89-8.17-13.65c-0.64-1.27-1.98-1.72-3.23-2.19c-1.79-0.67-3.34-1.76-4.05-3.51
	c-2.48-6.09-6.64-10.86-11.44-15.17c-1.03-0.93-1.62-2.14-1.75-3.5c-0.49-4.82-3.3-8.22-6.71-11.3c-4.7-4.23-9.09-8.78-13.73-13.07
	c-0.73-0.67-1.97-1.33-1.69-2.31c2.26-8-5.37-10.36-8.6-15.19c-0.77-1.16-3.05-1.63-2.82-3.23c1.02-7.13-4.79-8.89-9.12-11.39
	c-3.14-1.81-5-3.79-5.98-7.32c-1.02-3.66-3.09-7.04-5.85-9.76c-2.68-2.64-4.3-5.68-5.66-9.2c-1.41-3.63-5.45-5.46-7.87-8.53
	c-0.8-1.02-2.53-1.7-2.61-2.92c-0.54-8.26-8.19-11.42-12.09-17.24c-0.55-0.83-1.63-1.65-1.47-2.54c1.03-5.66-3-7.99-6.42-11.21
	c-2.82-2.66-5.32-5.94-7.16-9.53c5.06-8.69,11.26-16.53,17.98-23.98c2.37-0.27,4.19,1.74,6.66,1.48c1.61-0.17,2.49,1.35,1.97,2.75
	c-1.12,2.98,0.69,4.71,1.85,7.12c1.7,3.52,3.2,6.5,7.15,7.84c1.23,0.42,1.34,2.19,1.68,3.48c0.65,2.52,2.07,4.87,4.13,6.07
	c4.18,2.43,6.78,6.23,8.29,10.3c3.83,10.29,11.4,17.9,17.75,26.38c7.32,9.77,16.15,18.37,22.57,28.87c1.78,2.9,5.03,4.3,7.33,6.71
	c3.08,3.22,5.47,6.69,5.89,11.25c0.3,3.24,1.87,5.65,4.85,7.05c2.18,1.03,4.37,2.51,5.01,4.66c1.85,6.23,6.62,10.29,10.35,15.13
	c1.02,1.33,2.04,2.63,3.58,3.4c1.04,0.53,2.59,1.01,2.68,2.08c0.63,7.37,8.69,10.01,10.43,16.76c0.68,2.67,3.22,4.13,5.87,5.61
	c4.5,2.51,6.36,8.33,12.02,10.13c1.34,0.43,1.75,4.71,2.4,7.19c0.72,2.77,2.08,4.87,3.92,6.76c3.27,3.34,5.82,7.03,8.21,11.11
	c3.19,5.46,9.19,8.49,14.24,12.25c1.38,1.03,3.17,1.75,2.39,3.76c-1.33,3.44,0.61,4.91,2.96,6.92c5.14,4.38,8.95,10.24,15.11,13.57
	c1.36,0.74,1.87,2.56,1.27,4.03c-1.56,3.84,1,5.58,3.53,7.21c5.99,3.87,10.83,8.62,13.17,15.57c0.59,1.74,1.57,3.79,3.32,4.19
	c7.63,1.75,8.81,8.78,12,14.15c0.56,0.94,0.48,2.58,2.2,1.91c2.03-0.79,4.02-1.19,5.32,0.93c1.95,3.17,6.68,5.11,4.68,10.12
	C1332.24,505.12,1330.39,505.33,1329,506.68z"/>
<path class="st50" d="M1121.21,185.95c5.4-4.66,10.89-9.22,16.97-12.99c3.7,3.2,9.25,5.34,6.26,12.16
	c-0.71,1.62,0.95,2.59,2.64,2.82c1.56,0.21,3.6,0.93,2.48,2.63c-2.23,3.35,0.61,3.89,2.03,5.79c2.89,3.88,6.59,5.96,11,7.35
	c3.23,1.02,2.75,3.91,2.51,6.31c-0.43,4.34,0.49,7.47,5.49,8.02c0.72,0.08,2,0.85,1.96,1.2c-0.46,4.74,3.63,5.8,6.34,7.85
	c2.55,1.93,4.23,3.84,3.35,7.41c-0.52,2.1,4.7,7.24,6.95,7.59c3.99,0.63,4.22,4.7,5.92,7.21c2.83,4.2,3.29,9.39,8.61,12.72
	c2.66,1.66,5.31,6.6,7,10.51c1.81,4.17,5.45,6.82,7.71,10.7c2.61,4.49,5.95,8.97,10.55,12.16c2.3,1.59,5.02,3.59,3.22,7.37
	c-0.41,0.87,0.15,2.2,1.13,2.54c4.2,1.47,4.88,5.87,7.24,8.36c4.3,4.53,7.87,9.17,10.61,14.66c0.36,0.72,1.62,1.02,2.49,1.46
	c3.46,1.76,8.28,2.3,6.78,8.29c-0.27,1.08,0.7,2.64,1.94,3.3c6.93,3.7,9.95,10.73,14.04,16.75c1.22,1.8,2.25,3.51,4.08,4.69
	c2.8,1.81,3.04,4.44,3.04,7.6c0,3.61,6.29,1.2,6.2,5.16c-0.15,6.72,5.75,7.47,9.63,9.92c1.75,1.11,4.69,0.31,2.15,3.67
	c-0.25,0.33-0.03,1.54,0.32,1.75c3.45,2.06,3.05,6.07,4.51,9.08c1.39,2.89,3.01,4.62,6.2,4.78c1.02,0.05,2.25,0.13,2.25,1.42
	c-0.02,6.73,5.41,9.05,9.42,12.89c2.46,2.35,5.65,4.7,6.98,8.12c2.05,5.27,6.2,8.91,9.25,13.21c3.13,4.41,8.47,6.68,10.35,11.9
	c1.72,4.77,5.45,8.62,9.13,11.14c4.39,3,5.1,6.87,6.38,10.98c0.61,1.95,2.42,2.18,3.83,2.8c2.8,1.23,4.89,2.45,1.29,6.19
	c4.55-0.93,6.95,1.38,9.52,3.29c-9.12,6.35-19.61,9.5-29.98,12.97c-2.6-1.89-4.67-4.24-6.21-7.06c-0.73-1.33-1.51-2.73-2.81-3.45
	c-3.89-2.16-6.1-5.21-8.18-9.31c-1.71-3.36-5.84-5.88-8.65-9.13c-1.67-1.94-3.08-3.55-3.72-6.07c-0.78-3.07-2.13-5.96-4.64-8.12
	c-3.62-3.12-6.47-7.03-10.35-9.87c-0.82-0.6-1.51-1.4-1.79-2.36c-1.8-6.1-6.8-9.69-10.9-13.97c-2.54-2.65-5.26-5.14-5.78-9.06
	c-0.07-0.5-0.14-1.04-0.48-1.39c-5.97-6.17-9.07-14.31-14.4-20.92c-0.42-0.52-0.7-1.18-1.27-1.53
	c-8.37-5.16-12.05-14.29-18.24-21.25c-3.74-4.2-5.3-9.6-8.88-13.45c-6.18-6.66-12.11-13.32-16.7-21.25
	c-1.78-3.07-4.59-5.65-6.15-8.99c-1.29-2.77-2.74-5.29-6.07-6.12c-2.07-0.51-2.66-2.37-2.86-4.27c-0.39-3.78-1.78-6.91-4.72-9.56
	c-2.2-1.99-3.38-4.91-4.82-7.54c-1.05-1.91-1.91-4.15-3.75-5.22c-5.91-3.46-7.76-9.66-10.88-15.06c-2.98-5.14-5.75-10.5-11.16-13.71
	c-1.63-0.97-2.38-2.74-3.23-4.36c-3.62-6.91-6.92-13.98-11.3-20.49c-1.89-2.82-4.24-5.09-6.61-7.42c-2.68-2.63-6.17-4.84-5.32-9.47
	c-6.1-6.2-6.4-16.72-15.43-20.77c-1.9-0.85-3.49-2.28-3.51-4.5c-0.09-7.61-4.41-12.62-10.03-16.9
	C1121.73,186.81,1121.44,186.4,1121.21,185.95z"/>
<path class="st51" d="M1121.21,185.95c6.17,2.1,11.93,9.33,11.88,15.65c-0.03,3.39,1.12,5.38,4.22,6.38
	c3.84,1.23,5.92,4.54,7.44,7.67c2.03,4.18,3.42,8.61,7.23,11.64c0.37,0.29,0.87,0.93,0.77,1.21c-2.25,6.41,3.71,8.05,6.72,11.12
	c5.41,5.5,8.62,12.34,12.27,18.86c2.85,5.09,5.14,9.94,9.94,14.08c5.39,4.65,9.29,11.43,11.64,18.59c0.69,2.1,1.69,3.67,3.83,4.85
	c3.07,1.69,5.51,4.31,6.87,7.67c2.89,7.15,11.13,11.55,10.49,20.55c-0.07,0.93,1.2,1.64,2.32,1.17c1.84-0.79,2.58,0.61,3.03,1.71
	c3.04,7.35,9.4,12.45,12.93,19.54c1.94,3.89,4.15,7.79,8.52,10.23c4.2,2.34,6.41,6.89,7.73,11.57c0.27,0.95,0.15,2.14,1.07,2.67
	c4.66,2.69,6.51,7.47,9.45,11.55c3.52,4.88,6.88,10.2,12.64,13.44c3.42,1.92,4.72,6.5,7.03,9.79c2.05,2.92,6.24,5.34,5.08,10.06
	c-0.03,0.12,0.13,0.42,0.21,0.42c6.47,0.58,3.87,7.57,7.42,10.43c3.81,3.07,7.11,6.8,10.49,10.38c1.34,1.42,2.39,3.03,2.76,5.17
	c0.35,1.98,0.85,4.49,4,3.99c0.79-0.13,1.47,0.44,1.48,1.03c0.05,4.9,5.64,4.99,7.4,8.57c0.71,1.44,2.68,2.46,2.94,4.37
	c0.8,5.88,5.9,9.21,8.33,14.12c0.46,0.93,1.66,1.83,2.69,2.07c2.88,0.7,4.24,2.15,4.05,5.25c-0.1,1.66,0.59,3.31,2.47,3.92
	c6.89,2.24,8.64,9.01,12.42,14c-5.41,2.53-11.47,2.83-16.98,5c-0.05-4.35-4.32-6.25-5.77-9.87c-0.67-1.66-2.58-1.34-3.7,0.1
	c-2.31,2.96-3.16,0.95-3.92-1.11c-2.23-6.03-3.32-12.84-11.06-14.82c-3.29-0.85-5.05-4.39-4.88-6.59c0.27-3.36-1.04-4.07-3.44-4.78
	c-0.46-0.14-1.2-0.41-1.24-0.71c-0.76-5.14-5.1-6.56-8.73-8.97c-2.41-1.6-6.02-3.45-2.51-7.76c1.33-1.63-1-3.33-2.71-3.99
	c-7.48-2.88-9.85-11.58-17.11-14.79c-1.82-0.8-0.72-2.99,0.06-4.46c0.99-1.89,0.11-2.13-1.42-3.45c-5.94-5.1-14.16-7.9-16.75-16.64
	c-1.17-3.94-5.84-5.64-8.06-9.16c-0.65-1.03-4.11-9.25-3.93-10.5c0.41-2.92-1.41-3.51-3.62-3.36c-3.48,0.23-5.47-0.85-5.16-4.73
	c0.13-1.67-0.66-3.23-2.44-3.16c-5.5,0.23-6.54-4.33-8.37-7.77c-1.58-2.96-1.87-6.58-6.49-6.88c-2.04-0.13-1.57-2.59-1.62-4.2
	c-0.09-2.63-0.36-5.03-3.76-5.42c-1.96-0.22-2.18-2.35-3.36-3.45c-1.92-1.79-1.79-6.01-6.29-4.86c-1.13,0.29-1.47-1.86-1.59-3.24
	c-0.45-5.48-2.76-9.7-8.05-11.99c-3-1.3-4.82-3.82-4.79-6.97c0.05-6.74-4.25-10.93-8.89-14.23c-5.05-3.59-7.5-9.01-11.1-13.52
	c-3.36-4.2-5.65-9.09-10.63-11.94c-2.8-1.6-3.43-5.15-5.19-7.71c-5.4-7.85-13.27-14.01-16.19-23.59
	c-2.06-6.77-7.93-10.74-12.35-15.75c-0.93-1.05-1.84-1.87-1.7-3.34c0.27-3.02-1.39-3.95-4.11-4.42c-2.13-0.37-4.94-0.88-3.17-4.47
	c0.66-1.33-0.58-2.01-1.53-2.75c-2.35-1.83-4.44-3.7-1.67-6.93c0.77-0.9,0.5-2.83-1.24-2.03c-3.29,1.52-4.33-1.4-6.28-2.55
	C1106.14,200.19,1113.45,192.85,1121.21,185.95z"/>
<path class="st48" d="M1349.23,548.13c0.77,0.85,1.05,1.15,1.33,1.45c-0.3,0.25-0.65,0.75-0.88,0.7c-0.37-0.09-0.81-0.49-0.91-0.85
	C1348.69,549.12,1349.02,548.68,1349.23,548.13z"/>
<path class="st0" d="M1386.95,425.75c-4.96-0.85-3.85-4.73-4-7.99c2.96-0.4,4.5,1.76,5.99,3.63
	C1390.88,423.81,1389.74,425.26,1386.95,425.75z"/>
<path class="st0" d="M1395.94,433.74c-5.97,1.45-5.59-4.37-7.99-6.99C1391.48,428.09,1395.81,428.51,1395.94,433.74z"/>
<path class="st0" d="M1307.99,231.74c-1.8,1.26-3.16,2.12-4.42,3.11c-1.12,0.87-2,1.15-2.71-0.41c-0.53-1.17-0.1-2.19,1-2.25
	C1303.76,232.08,1305.47,230.44,1307.99,231.74z"/>
<path class="st0" d="M1290.93,226.98c0.84,0.06,1.69,0.15,1.85,1.19c0.15,1-0.4,1.55-1.37,1.56c-0.89,0.01-1.64-0.43-1.88-1.29
	C1289.23,227.31,1290.06,227.08,1290.93,226.98z"/>
<path class="st0" d="M1420.63,232.51c-0.16,1.17-0.8,1.35-1.45,1.19c-0.36-0.09-0.93-0.75-0.87-0.87c0.26-0.51,0.7-1.22,1.13-1.26
	C1419.84,231.52,1420.32,232.24,1420.63,232.51z"/>
<path class="st0" d="M1299.9,228.24c-0.59,0.05-1.14,0.24-1.3,0.07c-0.27-0.28-0.44-0.83-0.36-1.21c0.1-0.54,0.65-0.59,1-0.23
	C1299.51,227.17,1299.61,227.63,1299.9,228.24z"/>
<path class="st0" d="M1412.97,228.59c-0.81,0.48-1.18,0.84-1.58,0.89c-0.33,0.04-0.71-0.3-1.06-0.47c0.26-0.31,0.47-0.79,0.8-0.9
	C1411.44,228.01,1411.88,228.28,1412.97,228.59z"/>
<path class="st0" d="M1400.16,225.88c0.11,0.77-0.31,0.99-0.78,0.87c-0.38-0.09-0.87-0.39-0.98-0.72c-0.18-0.49,0.21-0.92,0.76-0.79
	C1399.55,225.35,1399.88,225.7,1400.16,225.88z"/>
<path class="st52" d="M166.1,428.75c-5.48,0.23-10.91,0.67-16,2.99c-5.87,1.1-11.3,3.19-16,6.99c-8.5,3.54-14.1,10.47-19.97,17.07
	c-1.08,1.21-1.99,2.58-2.97,3.88c0.53-11.56,1.72-23.05,3.67-34.46c0.25-1.46,0.22-2.97,0.32-4.46c1.56-6.15,3.01-12.33,4.69-18.45
	c2.35-8.53,4.86-17.01,7.3-25.52c0.22-6.02,3.32-11.09,5.64-16.36c5.49-12.47,11.62-24.63,19.29-35.95
	c6.55-10.26,14.01-19.84,21.71-29.23c1.48-1.8,2.95-3.63,5.3-4.38c0.33-0.01,0.65-0.02,0.98-0.03c1.76-0.67,3.25,0.23,4.73,0.92
	c19.68,9.13,39.58,17.79,59.15,27.15c1.75,0.84,3.77,1.46,4.51,3.61c-0.62,2.62-4.11,4.31-2.09,7.94c0.81,1.46-1.46,2.21-2.81,2.83
	c-1.67,0.76-3.39,0.91-5.7-0.15c2.01,4.88,2.36,9.71,7.47,11.5c0.59,0.21,1.03,0.86,1.27,1.49c1.49,3.93,4.91,6.56,7.01,9.77
	c3.27,5,8.93,10.03,5.86,17.68c-1.34,3.34-1.33,7.14-1.38,10.81c-0.02,1.74-0.74,3.32-2.57,3.9c-1.93,0.61-3.15-0.28-3.84-2.15
	c-0.46,4.76-0.91,9.58-3.79,13.71c-0.77,1.1-0.23,1.84,0.83,2.35c0.4,0.24,0.72,0.56,0.96,0.96c1.61,4.18,3.18,8.04,8.69,8.76
	c3.34,0.44,3.7,3.55,1.33,7.45c4.21,1.07,5.47,4.47,6.17,8.14c0.6,3.13-0.07,5.68-3.87,6.13c-1.58,0.19-3.24,0.53-2.76,2.6
	c1.07,4.65-2.42,6.34-5.22,8.52c-1.66-0.33-3.33-0.66-4.99-1c-11.55-3.71-23.12-7.34-34.96-9.99c-7.57-1.84-15.12-3.83-22.98-4.01
	c-3-0.33-5.99-0.66-8.99-0.99c-1,0-1.99-0.01-2.99-0.01c-3.34-0.84-6.67-0.84-10.01,0C168.09,428.74,167.1,428.75,166.1,428.75z"/>
<path class="st53" d="M266,229.91c9.12-5.38,19.32-8.13,29.12-11.82c3.5-1.32,6.99-2.96,10.84-3.16c0.81,0.28,1.32,1.07,2.05,1.37
	c6.1,2.46,7.02,6.6,6.52,13.06c-0.38,4.9,0.67,10.75,4.67,15.23c2.87,3.21,1.91,7.88,2.95,11.84c1.38,5.27,0.27,11.28,4.86,15.59
	c0.77,0.72,0.4,1.9,0.15,2.87c-0.42,1.68-0.38,3.35,0.37,4.88c3.16,6.46,3.03,13.86,6,20.43c1.76,3.89,1.53,8.25,5.42,11.73
	c2.69,2.4,3.13,7.45,2.67,11.78c-0.43,4.09,0.37,7.76,2.08,11.84c2.17,5.18,5.51,10.32,5.21,16.82c1.42-0.79,1.26-3.18,3.19-2.6
	c1.26,1.49,1.13,3.36,1.41,5.11c-0.65,5.4-3.61,10.65-1.04,16.27c-0.25,3.66,0.22,7.38-0.82,10.97c-1.35,1.92-2.76,0.66-3.81-0.19
	c-12.83-10.37-26.63-19.32-40.64-27.96c-0.85-0.52-1.49-1.32-1.95-2.23c-0.63-1.52-0.93-3.41-2.63-4.06
	c-3.64-1.4-4.08-4.65-3.43-7.41c1.25-5.32-0.63-9.91-2.6-14.34c-1.58-3.55-2.22-7.27-3.38-10.87c-0.3-0.94-0.06-2.33-0.82-2.81
	c-4.96-3.11-3.87-7.99-3.58-12.45c0.25-3.81-2.25-6.5-3.09-9.75c-1.95-7.53-4.2-15.01-5.53-22.69c-0.36-2.1-0.84-3.74-2.63-5.04
	c-2.97-2.16-3.7-5.45-2.22-8.44c1.71-3.46,0.91-6.53-1.11-8.77C270.22,240.62,268.32,235.19,266,229.91z"/>
<path class="st23" d="M153.11,324.83c-9.56,15.23-17.74,31.14-24.12,47.97c-0.51,1.36-0.54,2.99-1.84,4
	c-1.49-5.28-5.63-9.73-4.86-15.74c0.12-0.93-0.06-2.19-0.63-2.86c-3.74-4.36-5.01-9.76-6.91-14.98
	c-3.31-9.06-6.31-18.45-11.26-26.59c-2.62-4.31-3.91-9-5.96-13.34c-4.49-9.48-9.37-19.11-9.54-30.11c-0.04-2.26-2.31-3.61-3.2-5.49
	c-2.51-5.29-4.86-10.7-8.81-15.04c-3.43-3.77-2.81-8.39-3.73-12.71c-0.24-1.12-0.15-2.28-0.87-3.31c-2.52-3.57-0.71-5.09,2.81-5.73
	c16.54,12.85,34.25,23.89,52.65,33.84c1.15,0.62,2.21,1.41,3.3,2.13c3,3.82,1.64,9.12,4.37,13.01c3.41,4.86,3.84,10.76,5.66,16.17
	c1.01,3.01,2.14,5.93,3.73,8.6c2.7,4.51,4.8,9.26,6.15,14.3C150.64,321.23,153.82,321.99,153.11,324.83z"/>
<path class="st54" d="M266,229.91c1.73,0.11,2.62,0.99,2.99,2.73c0.85,4.04,2.99,7.2,5.55,10.53c1.85,2.41,6.5,6.07,1.9,10.79
	c-1.32,1.35-1.42,5.45,0.75,6.28c5.68,2.17,4.11,7.37,5.34,11.19c2.41,7.47,2.61,15.5,6.93,22.6c1.72,2.83,1.06,7.37,0.32,11.1
	c-0.23,1.16-1,2.5,0.31,3.06c5.74,2.46,4.54,8.09,5.78,12.51c0.84,2.98,2.17,5.9,3.45,8.47c1.57,3.14,1.65,5.88,1.37,8.97
	c-0.3,3.35-1.63,6.9,3.28,8.45c2.15,0.68,2.09,3.16,1.98,5.2c-2.21,0.82-3.82-0.6-5.51-1.54c-12.93-7.15-25.87-14.27-39.45-20.14
	c-2.24-0.97-4.74-1.75-5.85-4.32c-0.51-3.27-0.85-6.6-3.78-8.87c-0.65-0.5-1.11-1.29-1.22-2.12c-1.65-12.38-8.14-23.71-7.94-36.49
	c0.02-1,0.09-2.21-0.64-2.85c-6.46-5.69-4.2-14.79-8.44-21.39c-1.45-2.26,0.96-4.73,0.9-7.21C243.87,239.69,254.9,234.73,266,229.91
	z"/>
<path class="st55" d="M351.67,349.8c-0.77,0.8-0.69,1.81-0.77,2.8c-0.09,1.06,0.4,2.83-1.24,2.7c-1.45-0.11-2.76-1.36-2.3-3.2
	c0.91-3.73-1.48-6.48-2.47-9.7c-2-6.51-6.41-12.24-4.67-20.12c0.8-3.64,0.81-9.7-5.03-11.97c-1.2-0.47-2.53-1.74-2.04-3.09
	c1.01-2.85-0.05-5.37-1.19-7.6c-3.25-6.37-2.42-13.87-5.91-20.14c-0.65-1.17-1.67-2.75-0.64-4.22c1.32-1.89,1.81-3.2-1.21-3.58
	c-1.12-0.14-1.98-1.47-1.73-2.14c1.67-4.64-1.21-8.71-1.86-12.95c-0.67-4.39-0.49-9.08-4.1-13.54c-2.88-3.55-4.52-9.92-3.3-15.58
	c0.85-3.97,1.41-7.53-3.96-8.64c-1.92-0.4-3.12-1.81-3.28-3.9c9.16-4.15,19.06-5.67,28.74-7.93c3.32-0.77,6.74-1.47,10.23-1.06
	c0.16-0.05,0.32-0.09,0.48-0.14c-1.01,5.91,3.83,10.32,3.92,16.38c0.07,4.25,1.13,9.26,2.64,13.82c1.76,5.29,2.48,10.9,4.46,16.21
	c2.52,6.75,3.65,13.92,4.57,21.06c0.62,4.81,4.99,7.38,6.59,11.58c-0.09,7.71-3,14.74-5.55,21.81c-1.65,4.57-2.58,9.25-3.45,13.98
	c-0.25,1.18-0.57,2.34-0.89,3.51c-0.62,2.59-1.16,5.19-1.57,7.82c-0.51,2.13-0.99,4.27-1.09,6.47c-0.06,0.48-0.16,0.96-0.28,1.42
	C353.08,342.97,354.43,347.03,351.67,349.8z"/>
<path class="st56" d="M367,284.87c-4.56-4.84-8.96-9.68-7.47-17.24c0.19-0.99-1.11-2.31-1.82-3.41c-0.53-0.81-1.97-1.7-1.41-2.42
	c3.57-4.61-1.22-7.9-2.02-11.63c-1.58-7.34-2.66-15.08-5.07-21.87c-1.89-5.32,1.92-12.72-5.41-16.48c-2.47-1.27,2.85-3.43,1.13-5.89
	c1.47-1.62,3.41-0.95,5.15-0.97c16.65-0.16,33.33-0.67,49.61,3.89c0.92,0.26,1.98,0.05,2.97,0.05c1.14,2.42-1.12,3.39-2.06,4.87
	c-0.16,0.08-0.26,0.15-0.26,0.15c0.27,0.31,0.39,0.26,0.38-0.2c2.39-2.59,3.78-5.85,6.14-8.41c1.1-1.19,1.89-2.79,3.89-2.63
	c0,0.16-0.01,0.33,0.01,0.49c0.43,3.05-4.68,4.88-2.46,7.63c1.5,1.85,4.96,2.13,7.54,3.11c0.76,1.87-0.42,3.22-1.25,4.67
	c-4.83,3.77-10.51,6.48-14.44,11.4c-3.42,2.42-3.84,5.99-4.61,9.84c-1.77,8.9-4.95,17.47-7.54,26.18c-1.07,3.6-1.15,7.56-3.57,10.72
	c-1.99,0.94-2.66-0.79-2.42-1.84c0.84-3.72-1.76-2.83-3.63-3.01c-3.41-1.25-4.81-3.37-2.94-6.87c2.46-6.71,6.31-12.82,8.69-19.47
	c-0.32-0.27,0.01,0.01-0.1,0.27c-2.74,6.53-6.11,12.76-8.78,19.32c-1.55,5.04-3.51,9.94-5.24,14.92
	C369.38,281.84,369.13,283.95,367,284.87z"/>
<path class="st57" d="M234.03,246.89c0.57,0.57,1.66,1.61,1.64,1.63c-4.88,5.31,1.96,9.09,1.88,13.89
	c-0.07,4.48,0.81,9.33,5.47,12.09c0.46,0.27,0.88,1.17,0.81,1.72c-0.92,7.29,2.29,14.14,2.28,21.33c0,0.74,0.51,1.5,0.86,2.22
	c0.13,0.28,0.58,0.43,0.67,0.72c2.81,8.45,5.58,16.91,8.37,25.36c-3.52,1.28-5.74-0.91-7.99-3.01c-7.85-5.41-16.91-8.42-25.4-12.54
	c-14.03-6.8-28.36-13-42.56-19.45C195.78,273.39,213.52,258.45,234.03,246.89z"/>
<path class="st58" d="M153.11,324.83c-4.23-4.28-6.76-9.37-7.38-15.4c-0.06-0.57-0.75-1.06-1.13-1.6
	c-4.25-5.98-7.18-12.49-7.48-19.93c-0.09-2.31-2.06-3.31-2.92-5.07c-2.47-5.06-3.48-10.43-4.06-15.94
	c16.32,8,32.64,15.99,48.96,23.99C169.8,301.7,161.06,312.96,153.11,324.83z"/>
<path class="st59" d="M17.24,139.98c-1.66-1.4-0.76-3.31-1-5C17.9,136.39,17,138.3,17.24,139.98z"/>
<path class="st5" d="M13.68,491.97c-2.07-0.67-2.97,0.66-3.63,2.64c-0.32,0.97-1.31,1.69-2.32,1.16c-0.8-0.42-0.32-1.48-0.3-2.29
	c0.09-3.19,4.5-5.12,2.58-8.9c-0.06-0.12,0.3-0.67,0.5-0.68c2.1-0.19,4.38-0.85,5.57,1.78c0.94,2.07,3.41,4,0.66,6.44
	C15.84,492.91,14.89,492.45,13.68,491.97z"/>
<path class="st5" d="M27.44,477.61c1.64-2.43,2.85-4.34,5.66-3.65c0.31,0.08,0.77,0.9,0.66,1.09
	C32.46,477.31,30.39,477.71,27.44,477.61z"/>
<path class="st5" d="M34.5,486.61c-0.54,0.74-1.22,1.09-2.06,0.53c-0.54-0.36-1.1-0.9-0.76-1.6c0.44-0.9,1.28-0.88,2.06-0.46
	C34.3,485.38,34.86,485.8,34.5,486.61z"/>
<path class="st5" d="M40.2,486.54c-0.37-0.55-0.75-0.88-0.78-1.24c-0.06-0.66,0.25-1.29,1.04-1.07c0.28,0.08,0.55,0.73,0.54,1.11
	C40.99,485.68,40.58,486.01,40.2,486.54z"/>
<path class="st60" d="M248.02,322.83c2.66,1,5.33,2,7.99,3.01c3.25,3.02,7.6,3.82,11.43,5.68c13.07,6.35,25.81,13.3,38.53,20.29
	c15.59,9.41,30.81,19.35,44.88,30.96c1.37,1.71,2.42,3.89,5.18,3.62c1.5,0.77,3.1,1.45,3.23,3.49c-1.11,2.68-2.11,5.4-2.58,8.29
	c-1.16,2.31-0.11,5.94-3.96,6.65c-2.88-4.39-3.15-9.46-3.74-14.36c0,0.08-0.05,0.2-0.05,0.27c0.63,6.75,0.16,13.46,0.37,20.25
	c1.59-0.14,1.39-2.35,2.91-2.45c2.01,0.74,1.8,2.46,1.81,4.08c-1.04,3.18-0.51,6.54-1.1,9.77c-1.03,2.09-0.02,4.91-2.34,6.54
	c-1.16-0.06-1.16-0.71-0.79-1.55c-0.52,0.66-0.45,1.47-0.57,2.23c-4.96,11.95-6.93,24.14-3.02,36.82c0.35,1.12,0.59,2.26-0.29,3.29
	c-2.33,0-4.66,0-6.99,0c-13.8-2.73-27.45-6.08-40.96-9.98c-7.72-1.1-14.45-5.29-21.98-6.99c-7.18-3.06-14.97-4.47-21.99-7.99
	c0.8-1.64,1.44-3.47,3.09-4.42c1.73-0.99,1.47-2.01,0.98-3.67c-0.81-2.75-0.56-5.08,3.49-4.24c3.3,0.68,3.7-1.7,3.33-3.97
	c-0.76-4.63-2.25-8.8-8.29-8c-0.1-1.99,1.37-2.03,2.24-2.6c1.14-0.75,2.63-1.47,1.47-3.01c-0.85-1.13-1.63-3.44-3.79-2.03
	c-2.9,1.89-2.73-0.29-3.87-2.06c-1.65-2.55-4.53-4.32-3.63-7.99c-1.24-0.31-2.57,1.59-3.63,0.1c-0.82-1.15,0.26-2.19,1.01-3.05
	c3.53-4.03,3.21-9.25,4.31-14.01c0.24-1.04-0.55-2.64,1.24-2.56c1.46,0.07,0.88,1.44,0.72,2.37c-0.22,1.28,0.49,1.88,1.6,2
	c1.36,0.15,2.37-0.64,2.53-1.89c0.54-4.15-0.17-8.4,1.06-12.52c0.15-0.52-0.74-1.37-0.04-2.19c3.43-3.98-0.64-6.44-2.28-9.02
	c-0.69-1.09-2.27-1.46-1.67-3.33c0.3-0.94,0.21-2.34-0.91-2.56c-5.09-0.98-5.66-5.33-7.11-9.08c-0.28-0.71-0.88-1.7-1.48-1.82
	c-7.01-1.41-5.3-8.24-7.81-12.41c-0.38-0.62-0.25-1.31,0.46-1.66c0.69-0.34,1.39-0.1,1.74,0.49c2.22,3.75,4.47,0.06,6.32-0.39
	c1.53-0.37-0.55-2.24-1.05-3.49C242.52,323.94,247.27,324.96,248.02,322.83z"/>
<path class="st61" d="M1225.1,606.61c0,0.33,0,0.66,0.01,0.98c-3.33,5-6.67,9.99-10,14.99c-4.79,3.11-7.5,8.69-12.98,11
	c-6.56-6.63-12.87-13.53-20.05-19.5c-6.43-5.36-10.06-13.04-16-18.85c-2.83-2.77-5.45-5.65-8.92-7.61c1.74-4.9,6.26-8.09,8-12.99
	c0.42-0.31,0.88-0.4,1.39-0.28c11.03,7.32,22.1,14.56,33.84,20.76c6.61,3.49,13.44,6.4,20.27,9.37
	C1222.17,605.13,1223.89,605.34,1225.1,606.61z"/>
<path class="st13" d="M169.09,428.74c3.34-1.55,6.67-1.54,10.01,0C175.76,428.74,172.42,428.74,169.09,428.74z"/>
<path class="st62" d="M1157.16,587.61c1.64,0.03,3.37-0.25,4.64,1.18c4.15,4.66,8.68,9.04,12.31,14.07
	c3.3,4.59,6.79,8.72,11.4,12.02c2.09,1.49,3.93,3.52,5.41,5.63c2.05,2.91,4.47,5.19,7.62,6.86c2.37,1.26,3.03,3.77,3.6,6.21
	c-0.88,2.31-3.75,2.14-5,3.99c-7.33,3.25-15.29,4.13-22.98,6c-1-0.01-2-0.01-3.01-0.02c-10-8.27-18.29-18.44-28.96-25.96
	c1.43-4.42,4.13-8.35,4.99-12.99c3.47-5.41,6.32-11.16,9-16.99C1156.5,587.62,1156.83,587.61,1157.16,587.61z"/>
<path class="st63" d="M1142.19,617.59c9.4,3.41,14.87,11.67,21.79,18.06c2.53,2.34,6.33,3.9,7.16,7.9
	c-8.61,1.35-17.41,0.1-25.98,2.01c-3.33,0-6.65,0-9.98,0c-0.11-5.22,1.67-10.06,2.99-14.99
	C1139.52,626.25,1140.85,621.92,1142.19,617.59z"/>
<path class="st64" d="M1244.09,524.67c-10.32,3.66-20.65,7.33-30.97,10.99c-0.41,0.36-0.88,0.55-1.43,0.55
	c-5.05-1.67-9.09-5.34-14.18-7.01c-6.31-2.07-12.61-3.97-19.32-4.08c-3.7-0.34-7.62,1.08-11.02-1.45c-0.31-0.74-0.47-2-0.96-2.15
	c-7.18-2.2-9.8-8.3-12.94-14.24c-1.7-3.2-5.97-3.78-8.89-5.88c-3.03-2.18-4.81-4.77-6.59-8.09c-1.66-3.09-2.42-7.48-6.86-9.1
	c-1.86-0.68-3.63-3.16-4.29-5.19c-1.39-4.23-4.33-6.53-7.86-8.73c-2.07-1.29-3.94-2.75-4.29-6.06c-0.5-4.66-5-7.25-8.39-9.83
	c-4.23-3.22-6.66-7.14-8.03-12.02c-1.72-2.2-1-4.63-0.65-7.02c0.44-3.05,0.9-6.1,0.68-9.21c1.28-7.36,2.02-14.77,1.78-22.25
	c0.74-4.79,1.79-9.56,0.3-14.4c0.03-6.43-1.39-12.76-1.32-19.19c0.08-4.18-0.95-8.22-1.52-12.32c-0.34-1.61-0.42-3.21,0.32-4.75
	c1.43-1.94,3.23-2.21,5.24-1.04c5.57,3.25,10.89,8.16,12.81,13.38c2.51,6.81,6.71,10.95,11.76,15.09c0.65,0.53,1.2,1.27,1.33,2.07
	c1.19,7.32,5.94,11.99,11.67,16c2.23,1.56,3.72,3.64,4.22,6.5c0.44,2.53,1.85,4.92,4.32,5.76c3.3,1.11,5.01,3.46,6.85,6.13
	c2.56,3.7,7,6.13,7.47,11.25c0.03,0.29,0.4,0.56,0.71,0.67c8.12,2.71,10.24,10.81,14.9,16.62c3,3.75,7.35,6.12,9.93,10.37
	c1.06,1.74,2.1,3.15,2.15,5.3c0.08,3.72,1.1,6.92,5.55,7.63c1.31,0.21,2.75,0.96,3.28,2.12c1.65,3.57,3.56,6.6,7.9,7.27
	c1,0.15,1.1,1.51,1.21,2.53c0.63,5.83,3.82,9.71,9.18,11.89c0.92,0.37,2.13,0.54,2.49,1.52c2.84,7.62,8.9,12.64,14.57,17.9
	C1239.06,515.78,1240.52,520.95,1244.09,524.67z"/>
<path class="st1" d="M1166.15,574.63c-0.33,0-0.66,0-0.99-0.01c-11.04-9.25-22.53-17.98-32.71-28.23c-1.16-1.17-2.18-2.49-3.26-3.74
	c3.53-7.14,10.32-9.99,17.09-12.77c1.84-0.75,2.94,2,4.89,1.77c3.68,1.51,6.18,4.51,8.27,7.58c5.3,7.8,12.72,13.29,19.8,19.2
	c0.28,0.66,0.31,1.4-0.15,1.88C1174.63,564.96,1171.19,570.52,1166.15,574.63z"/>
<path class="st65" d="M1179.15,558.64c-0.81-0.11-1.94,0.1-2.4-0.36c-5.67-5.7-12.93-9.84-17.16-16.91
	c-2.27-3.79-6.19-5.98-8.42-9.71c-0.48-2.81,0.91-4.43,3.45-5.18c4.11-1.21,8.18-2.65,12.54-2.81c4,0,7.99,0,11.99,0
	c6.59,5.38,10.58,13.14,17.1,18.59c0.64,0.54,0.68,1.48,0.59,2.33c-0.81,2.56-3.31,3.32-5.13,4.81c-2.97,2.26-5.62,4.89-8.47,7.29
	C1182.07,557.68,1181.13,559.29,1179.15,558.64z"/>
<path class="st11" d="M1244.09,524.67c-2.11-0.06-3.66-1.46-4.26-3.05c-2.41-6.29-7.24-10.11-12.17-14.33
	c-2.75-2.35-5.55-5.84-6.99-9.66c-0.69-1.83-1.32-2.8-3.43-3.77c-5.4-2.46-9.84-6.27-9.33-13.24c0.15-2.04-1.45-1.91-2.76-1.91
	c-2.94-0.01-4.82-1.25-4.99-4.33c-0.16-2.94-2.44-4.52-4.51-4.44c-5.97,0.23-6.19-5.05-6.04-7.74c0.29-5.52-3.62-8.41-6.47-10.57
	c-5.26-3.98-7.99-9.53-11.45-14.53c-2.11-3.05-3.84-5.66-7.56-6.38c-1.02-0.2-2.55-0.56-2.4-1.39c1.18-6.73-6.41-8.04-7.97-13.12
	c-0.58-1.88-2.08-3.44-4.79-3.65c-3.16-0.24-5.2-3.66-5.33-5.83c-0.34-5.26-3.96-7.69-7.39-9.75c-4.07-2.45-6.96-5.98-7.45-9.94
	c-0.68-5.43-5.04-6.78-7.74-9.99c-2.35-2.8-7.4-4.43-5.21-9.75c0.11-0.28,0.14-0.83-0.02-0.94c-5.58-4.1-8.63-10.93-15.1-14.01
	c-0.6-0.29-1.6,0.24-2.42,0.4c-0.2-0.15-0.39-0.29-0.6-0.44c-1.38-1.87-1.53-4.1-1.84-6.28c-0.22-1.23-0.68-2.39-1.14-3.55
	c-1.3-11.46-4.23-22.59-6.78-33.79c-0.09-1.78-0.76-3.44-1.09-5.17c-0.7-2.34-1.73-4.56-2.53-6.86c-2.24-6.51-3.99-13.17-6.18-19.7
	c-0.31-1.1-0.66-2.2-1-3.29c-0.63-2.06-1.26-4.11-2.26-6.03c-0.2-0.38-0.36-0.78-0.5-1.19c-0.46-1.68-1.18-3.24-2.2-4.66
	c-1.23-2.94-3.31-5.6-3.03-9.04c3.97-6.99,7.05-14.49,12.09-20.86c5.6,2.62,6.54,10.11,12.86,12.19c1.4,0.46,2.27,2.67,2.14,4.74
	c-0.24,3.85,4.34,11.96,7.75,12.69c3.57,0.76,4.05,3.14,4.15,5.75c0.26,6.76,6.03,9.01,10.12,12.52c1.1,0.95,1.85,1.51,1.94,2.93
	c0.25,3.65,1.71,6.5,4.79,8.8c1.76,1.31,3.45,3.47,3.99,5.55c2.2,8.49,8.46,12.97,15.56,16.7c1.36,0.71,2.66,2.03,2.31,2.88
	c-1.91,4.55,1.35,6.13,3.99,8.55c3.22,2.95,5.18,7.12,8.59,10c0.42,0.35,0.64,1.2,0.6,1.8c-0.29,4.52-0.09,4.82,3.24,7.92
	c4.34,4.04,8.58,8.17,12.78,12.35c2.41,2.4,4.02,5.25,4.09,8.8c0.02,0.81,0.07,2.16,0.49,2.33c4.29,1.75,6.79,5.72,8.5,9.2
	c2.94,6,7.79,9.99,12.3,14.26c6.12,5.8,5.78,16.39,15.38,19.66c2.33,0.79,4.18,4.19,5.41,6.79c3.35,7.05,8.57,12.57,13.95,17.96
	c3.08,3.08,3.66,7.5,6.69,10.73c2.62,2.78,4.92,5.65,8.65,6.69c3.37,0.93,6.01,2.07,4.96,6.33c-0.51,2.04,1.22,4.46,1.89,4.77
	c6.64,3.09,6.01,12.96,13.95,14.67c1.85,0.4,1.57,1.92,0.74,3.16c-1.24,1.87-0.83,3.84,0.6,4.96c3.14,2.45,4.92,6.71,9.53,7.25
	c0.56,0.06,1.56,0.76,1.51,0.97c-1.2,5.08,3.93,6.36,5.89,9.46c2.43,3.85,6.8,5.73,11.43,6.45c-7.71,2.84-15.92,3.5-23.84,5.39
	C1266.86,519.77,1255.46,522.15,1244.09,524.67z"/>
<path class="st66" d="M1179.15,558.64c4.21-3.08,7.46-7.3,11.99-9.99c2.69-0.49,4.32,1.37,5.96,2.89c4.25,3.93,8.05,8.19,11.3,13.1
	c5.56,8.41,11.94,16.24,19.82,22.68c0.79,0.65,1.27,1.52,1.88,2.29c-0.21,6.1-3.16,11.38-5,17c-7.84-0.73-14.44-4.91-21.16-8.27
	c-12.6-6.3-24.79-13.44-36.12-21.91c-0.64-0.48-1.11-1.19-1.66-1.79C1169.36,568.38,1174.87,564.01,1179.15,558.64z"/>
<path class="st67" d="M1230.1,589.61c-4.45-1.83-7.46-5.28-10.44-8.88c-5.06-6.11-10.38-11.95-14.58-18.81
	c-3.37-5.5-8.36-9.83-13.94-13.28c1.67-1.33,3.33-2.67,5-4c4.16-5.07,10.06-7.05,15.98-8.99c0.33,0,0.67,0,1,0
	c0.04,2.32,1.93,3.41,3.31,4.77c13.51,13.33,16.49,29.68,13.75,47.68C1230.1,588.61,1230.12,589.11,1230.1,589.61z"/>
<path class="st52" d="M248.99,402.85c0.23-0.95-0.39-2.42,0.89-2.51c1.3-0.09,0.83,0.97,0.31,1.6
	C249.89,402.3,249.43,402.52,248.99,402.85z"/>
<path class="st68" d="M1212.11,535.66c-5.33,3-10.66,5.99-15.98,8.99c0.01-1.75-1.44-2.31-2.48-3.34
	c-5.4-5.4-10.43-11.13-14.51-17.64C1191.21,524.71,1202.23,528.64,1212.11,535.66z"/>
<path class="st56" d="M415.84,213.91c0,0,568.7,81.33,613.38,407.61c16.03,117.09-26.19,114.57-86.92,63.21
	c-108.51-91.76-276.1-339.42-276.1-339.42L425.9,659.76C425.9,659.76,235.31,417.05,415.84,213.91z"/>
<path class="st56" d="M410.81,681.04c0,0,279.69,116.36,362.72,103.43s168.77-99.74,168.77-99.74L695.48,320.85
	C695.48,320.85,342.37,549.43,410.81,681.04z"/>
<path class="st56" d="M1069.16,252.75c0,0-288.08,56.23-265.56,189.81s323.04,36.46,323.04,36.46S1210.66,207.82,1069.16,252.75z"/>
<path class="st52" d="M326.07,366.03c0,0,378.5,348.81,359.32,404.47C666.2,826.16,139.1,642.45,326.07,366.03z"/>
</svg>
