<svg width="70" height="70" viewBox="0 0 70 70" fill="none" xmlns="http://www.w3.org/2000/svg">
<path d="M69.3125 35.8438C69.3125 34.0156 69.0312 32.0469 68.75 29.9375H35.5625V42.0312H55.3906C54.9688 44.1406 54.125 46.25 53 48.2188C51.3125 50.75 49.2031 52.8594 46.6719 54.2656C43.4375 56.2344 39.7812 57.0781 35.5625 57.0781C31.625 57.0781 27.9688 56.0938 24.7344 54.125C21.3594 52.1562 18.8281 49.4844 16.8594 46.1094C14.8906 42.7344 13.9062 39.0781 13.9062 35C13.9062 30.3594 15.1719 26.1406 17.7031 22.4844C19.9531 19.1094 23.0469 16.5781 26.9844 14.8906C30.7812 13.2031 34.7188 12.6406 38.6562 13.2031C42.875 13.7656 46.3906 15.5938 49.4844 18.4062L58.9062 9.26562C52.4375 3.21875 44.5625 0.125 35.5625 0.125C29.2344 0.125 23.4688 1.8125 18.125 4.90625C12.7812 8 8.42188 12.2188 5.32812 17.5625C2.23438 22.9062 0.6875 28.8125 0.6875 35C0.6875 41.3281 2.23438 47.0938 5.32812 52.4375C8.42188 57.7812 12.7812 62.1406 18.125 65.2344C23.4688 68.3281 29.2344 69.875 35.5625 69.875C42.1719 69.875 48.0781 68.4688 53.1406 65.5156C58.2031 62.7031 62.2812 58.625 65.0938 53.4219C67.9062 48.3594 69.3125 42.4531 69.3125 35.8438Z" fill="black"/>
</svg>
