<svg width="141" height="68" viewBox="0 0 141 68" fill="none" xmlns="http://www.w3.org/2000/svg">
<path d="M86.625 0.625C87.1875 2 87.625 3.4375 88 5C88.3125 6.5625 88.5 8.125 88.5 9.625C88.5 13.25 87.75 16.5 86.375 19.5C84.9375 22.5 83 24.9375 80.5 26.75C77.875 28.625 75 29.6875 71.75 29.9375C69.375 30.1875 67.1875 29.8125 65.1875 28.75C63.4375 27.875 62 26.6875 60.875 25.125C59.5 26.25 58.3125 27.5 57.4375 28.875C56.9375 29.625 56.5625 30.25 56.375 30.75C56.125 31.25 55.75 31.625 55.25 31.875C54.75 32.125 54.25 32.125 53.75 31.875C53.25 31.6875 52.875 31.3125 52.625 30.8125C52.375 30.3125 52.375 29.75 52.625 29.25C53.3125 27.625 54.4375 25.9375 56 24.1875C58.125 21.875 60.6875 20 63.6875 18.625C67.4375 16.875 71.6875 16 76.5 16C76.75 16 77 15.9375 77.1875 15.75C77.375 15.5625 77.5 15.3125 77.5 15C77.5 14.75 77.375 14.5 77.1875 14.3125C77 14.125 76.75 14 76.5 14C69.4375 14 63.5 15.75 58.625 19.25L58.5625 19.125C58.5 18.625 58.5 18.25 58.5 18C58.5 15.875 59 13.875 60.125 12C61.1875 10.1875 62.625 8.75 64.5 7.625C66.3125 6.5625 68.3125 6 70.5 6H75.5C77.4375 6 79.25 5.5625 80.875 4.5625C82.5 3.5625 83.875 2.25 84.875 0.5C85.0625 0.1875 85.375 0 85.75 0C86.125 0 86.4375 0.25 86.625 0.625Z" fill="#39A7A0"/>
<path d="M2.6647 67H3.8647V60.052H6.3367V58.996H0.180702V60.052H2.6647V67ZM16.8156 67H18.0156V58.996H16.8156V62.356H12.3876V58.996H11.1876V67H12.3876V63.424H16.8156V67ZM23.3892 67H28.7652V65.944H24.5892V63.448H28.6812V62.392H24.5892V60.052H28.7652V58.996H23.3892V67ZM40.2258 63.004C40.2258 65.5 42.0858 67.156 44.3778 67.156C45.7338 67.156 46.8378 66.592 47.6058 65.74V62.8H43.8378V63.856H46.4058V65.296C46.0218 65.656 45.2658 66.088 44.3778 66.088C42.7098 66.088 41.4618 64.792 41.4618 63.004C41.4618 61.204 42.7098 59.932 44.3778 59.932C45.3138 59.932 46.1178 60.4 46.5738 61.012L47.5458 60.448C46.8738 59.548 45.8778 58.864 44.3778 58.864C42.0858 58.864 40.2258 60.508 40.2258 63.004ZM57.348 67H58.74L56.688 63.796C57.708 63.664 58.68 62.896 58.68 61.456C58.68 59.98 57.636 58.996 56.112 58.996H52.74V67H53.94V63.916H55.44L57.348 67ZM57.444 61.456C57.444 62.296 56.82 62.86 55.956 62.86H53.94V60.052H55.956C56.82 60.052 57.444 60.616 57.444 61.456ZM63.7579 67H69.1339V65.944H64.9579V63.448H69.0499V62.392H64.9579V60.052H69.1339V58.996H63.7579V67ZM74.2368 67H79.6128V65.944H75.4368V63.448H79.5288V62.392H75.4368V60.052H79.6128V58.996H74.2368V67ZM90.3437 67H91.5077V58.996H90.3077V64.996L85.9517 58.996H84.7157V67H85.9157V60.856L90.3437 67ZM103.576 67H108.412V65.944H104.776V58.996H103.576V67ZM113.328 67H118.704V65.944H114.528V63.448H118.62V62.392H114.528V60.052H118.704V58.996H113.328V67ZM129.519 67H130.839L127.659 58.996H126.159L122.979 67H124.299L124.947 65.344H128.871L129.519 67ZM126.903 60.04L128.523 64.276H125.295L126.903 60.04ZM135.399 67H136.599V63.448H140.691V62.392H136.599V60.052H140.775V58.996H135.399V67Z" fill="#39A7A0"/>
</svg>
