<?xml version="1.0" encoding="utf-8"?>
<!-- Generator: Adobe Illustrator 24.1.3, SVG Export Plug-In . SVG Version: 6.00 Build 0)  -->
<svg version="1.1" id="Layer_1" xmlns="http://www.w3.org/2000/svg" xmlns:xlink="http://www.w3.org/1999/xlink" x="0px" y="0px"
	 viewBox="0 0 512 512" style="enable-background:new 0 0 512 512;" xml:space="preserve">
<style type="text/css">
	.st0{fill:#2D827C;}
</style>
<path class="st0" d="M419.09,197.45c31.58-25.8,20.67-76.81-18.79-87.38c-10.31-2.76-20.99-2.19-30.77,1.54l-31.36-54.31
	c-12.76-22.1-44.41-22.69-57.99-1.14c-38.57,61.17-89.95,113.2-150.95,152.68c-3.47,2.24-4.76,6.88-2.71,10.65
	c0.33,0.6,52.27,90.55,52.61,91.15c2.23,3.87,7.18,5.2,11.05,2.96c3.87-2.23,5.2-7.18,2.96-11.05l-48.71-84.36
	c58.16-38.88,109.68-90.36,149.42-153.4c7.11-11.28,23.63-10.93,30.28,0.6l112.28,194.47c6.66,11.54-1.33,26.01-14.62,26.53
	c-74.61,2.91-147.65,21.99-214.44,56.15c-0.28,0.14-76,43.87-81.22,46.88c-13.54,7.82-30.9,3.16-38.72-10.37l-40.99-71
	c-7.81-13.53-3.16-30.9,10.37-38.72l49.33-28.48c3.87-2.23,5.2-7.18,2.96-11.05c-2.23-3.87-7.18-5.2-11.05-2.96L48.73,255.3
	c-21.26,12.27-28.57,39.56-16.3,60.82l40.99,71c12.28,21.26,39.56,28.57,60.83,16.3l1.87-1.08L186.72,490
	c7.27,12.59,23.34,16.9,35.94,9.63l17.75-10.25c12.59-7.27,16.9-23.35,9.63-35.94l-35.87-62.12c-2.23-3.87-7.18-5.2-11.05-2.96
	c-3.87,2.23-5.2,7.18-2.96,11.05l35.87,62.12c2.8,4.85,1.14,11.03-3.71,13.83l-17.75,10.25c-4.85,2.8-11.03,1.14-13.83-3.71
	l-50.61-87.65l64.79-37.41c63.4-32.4,133.94-51.42,207.52-54.29c25.5-0.99,40.75-28.73,28.01-50.79L419.09,197.45z M416.78,141.56
	c7.99,13.84,5.12,31.01-5.94,41.6l-33.06-57.27C392.27,121.64,408.66,127.49,416.78,141.56z M495.93,105.58l-20.94,12.09
	c-3.87,2.24-8.82,0.91-11.05-2.96c-2.24-3.87-0.91-8.82,2.96-11.05l20.94-12.09c3.87-2.24,8.82-0.91,11.05,2.96
	C501.13,98.39,499.8,103.34,495.93,105.58z M405.88,59.46l5.11-19.05c1.16-4.32,5.59-6.88,9.91-5.72c4.32,1.16,6.88,5.59,5.72,9.91
	l-5.11,19.05c-1.15,4.31-5.58,6.88-9.91,5.72C407.29,68.21,404.73,63.77,405.88,59.46z M511.72,191.99c-0.97,3.62-4.24,6-7.81,6
	c-1.46,0-0.44,0.17-21.15-5.38c-4.32-1.16-6.88-5.59-5.72-9.91c1.16-4.32,5.59-6.88,9.91-5.72l19.05,5.11
	C510.32,183.23,512.88,187.67,511.72,191.99L511.72,191.99z"/>
<path class="st0" d="M403.09,193.45c31.58-25.8,20.67-76.81-18.79-87.38c-10.31-2.76-20.99-2.19-30.77,1.54l-31.36-54.31
	c-12.76-22.1-44.41-22.69-57.99-1.14c-38.57,61.17-89.95,113.2-150.95,152.68c-3.47,2.24-4.76,6.88-2.71,10.65
	c0.33,0.6,52.27,90.55,52.61,91.15c2.23,3.87,7.18,5.2,11.05,2.96c3.87-2.23,5.2-7.18,2.96-11.05l-48.71-84.36
	c58.16-38.88,109.68-90.36,149.42-153.4c7.11-11.28,23.63-10.93,30.28,0.6l112.28,194.47c6.66,11.54-1.33,26.01-14.62,26.53
	c-74.61,2.91-147.65,21.99-214.44,56.15c-0.28,0.14-76,43.87-81.22,46.88c-13.54,7.82-30.9,3.16-38.72-10.37l-40.99-71
	c-7.81-13.53-3.16-30.9,10.37-38.72l49.33-28.48c3.87-2.23,5.2-7.18,2.96-11.05c-2.23-3.87-7.18-5.2-11.05-2.96L32.73,251.3
	c-21.26,12.27-28.57,39.56-16.3,60.82l40.99,71c12.28,21.26,39.56,28.57,60.83,16.3l1.87-1.08L170.72,486
	c7.27,12.59,23.34,16.9,35.94,9.63l17.75-10.25c12.59-7.27,16.9-23.35,9.63-35.94l-35.87-62.12c-2.23-3.87-7.18-5.2-11.05-2.96
	c-3.87,2.23-5.2,7.18-2.96,11.05l35.87,62.12c2.8,4.85,1.14,11.03-3.71,13.83l-17.75,10.25c-4.85,2.8-11.03,1.14-13.83-3.71
	l-50.61-87.65l64.79-37.41c63.4-32.4,133.94-51.42,207.52-54.29c25.5-0.99,40.75-28.73,28.01-50.79L403.09,193.45z M400.78,137.56
	c7.99,13.84,5.12,31.01-5.94,41.6l-33.06-57.27C376.27,117.64,392.66,123.49,400.78,137.56z M479.93,101.58l-20.94,12.09
	c-3.87,2.24-8.82,0.91-11.05-2.96c-2.24-3.87-0.91-8.82,2.96-11.05l20.94-12.09c3.87-2.24,8.82-0.91,11.05,2.96
	C485.13,94.39,483.8,99.34,479.93,101.58z M389.88,55.46l5.11-19.05c1.16-4.32,5.59-6.88,9.91-5.72c4.32,1.16,6.88,5.59,5.72,9.91
	l-5.11,19.05c-1.15,4.31-5.58,6.88-9.91,5.72C391.29,64.21,388.73,59.77,389.88,55.46z M495.72,187.99c-0.97,3.62-4.24,6-7.81,6
	c-1.46,0-0.44,0.17-21.15-5.38c-4.32-1.16-6.88-5.59-5.72-9.91c1.16-4.32,5.59-6.88,9.91-5.72l19.05,5.11
	C494.32,179.23,496.88,183.67,495.72,187.99L495.72,187.99z"/>
<path class="st0" d="M415.09,192.45c31.58-25.8,20.67-76.81-18.79-87.38c-10.31-2.76-20.99-2.19-30.77,1.54l-31.36-54.31
	c-12.76-22.1-44.41-22.69-57.99-1.14c-38.57,61.17-89.95,113.2-150.95,152.68c-3.47,2.24-4.76,6.88-2.71,10.65
	c0.33,0.6,52.27,90.55,52.61,91.15c2.23,3.87,7.18,5.2,11.05,2.96c3.87-2.23,5.2-7.18,2.96-11.05l-48.71-84.36
	c58.16-38.88,109.68-90.36,149.42-153.4c7.11-11.28,23.63-10.93,30.28,0.6l112.28,194.47c6.66,11.54-1.33,26.01-14.62,26.53
	c-74.61,2.91-147.65,21.99-214.44,56.15c-0.28,0.14-76,43.87-81.22,46.88c-13.54,7.82-30.9,3.16-38.72-10.37l-40.99-71
	c-7.81-13.53-3.16-30.9,10.37-38.72l49.33-28.48c3.87-2.23,5.2-7.18,2.96-11.05c-2.23-3.87-7.18-5.2-11.05-2.96L44.73,250.3
	c-21.26,12.27-28.57,39.56-16.3,60.82l40.99,71c12.28,21.26,39.56,28.57,60.83,16.3l1.87-1.08L182.72,485
	c7.27,12.59,23.34,16.9,35.94,9.63l17.75-10.25c12.59-7.27,16.9-23.35,9.63-35.94l-35.87-62.12c-2.23-3.87-7.18-5.2-11.05-2.96
	c-3.87,2.23-5.2,7.18-2.96,11.05l35.87,62.12c2.8,4.85,1.14,11.03-3.71,13.83l-17.75,10.25c-4.85,2.8-11.03,1.14-13.83-3.71
	l-50.61-87.65l64.79-37.41c63.4-32.4,133.94-51.42,207.52-54.29c25.5-0.99,40.75-28.73,28.01-50.79L415.09,192.45z M412.78,136.56
	c7.99,13.84,5.12,31.01-5.94,41.6l-33.06-57.27C388.27,116.64,404.66,122.49,412.78,136.56z M491.93,100.58l-20.94,12.09
	c-3.87,2.24-8.82,0.91-11.05-2.96c-2.24-3.87-0.91-8.82,2.96-11.05l20.94-12.09c3.87-2.24,8.82-0.91,11.05,2.96
	C497.13,93.39,495.8,98.34,491.93,100.58z M401.88,54.46l5.11-19.05c1.16-4.32,5.59-6.88,9.91-5.72c4.32,1.16,6.88,5.59,5.72,9.91
	l-5.11,19.05c-1.15,4.31-5.58,6.88-9.91,5.72C403.29,63.21,400.73,58.77,401.88,54.46z M507.72,186.99c-0.97,3.62-4.24,6-7.81,6
	c-1.46,0-0.44,0.17-21.15-5.38c-4.32-1.16-6.88-5.59-5.72-9.91c1.16-4.32,5.59-6.88,9.91-5.72l19.05,5.11
	C506.32,178.23,508.88,182.67,507.72,186.99L507.72,186.99z"/>
</svg>
