<svg width="55" height="64" viewBox="0 0 55 64" fill="none" xmlns="http://www.w3.org/2000/svg">
<path d="M16.6094 37.625C16.8906 36.0781 17.7344 35.0938 19 34.5312C19.8438 34.25 21.5312 34.25 24.0625 34.25H27.2969C37.4219 34.1094 44.0312 29.8906 46.9844 21.4531C48.5312 16.9531 48.9531 13.0156 48.1094 9.64062C47.125 5.98438 44.7344 3.45312 40.7969 1.76562C38.5469 0.921875 36.4375 0.5 34.3281 0.359375C32.6406 0.21875 28.5625 0.078125 22.375 0.078125L12.1094 0.21875C11.2656 0.21875 10.7031 0.5 10.1406 0.921875C9.57812 1.34375 9.29688 1.90625 9.29688 2.60938L1 54.7812C0.859375 55.3438 1 55.9062 1.42188 56.1875C1.70312 56.6094 2.125 56.75 2.6875 56.75H13.2344C13.375 56.75 13.5156 56.75 13.6562 56.4688L14.5 50.8438C15.625 43.25 16.3281 38.8906 16.6094 37.625ZM51.2031 17.375C54.5781 19.9062 55.7031 24.2656 54.5781 30.4531C52.4688 41 45.7188 46.2031 34.4688 46.2031H33.9062C32.7812 46.2031 31.9375 46.3438 31.6562 46.4844C31.0938 46.9062 30.6719 47.75 30.3906 49.0156L28.2812 61.8125C28.1406 62.375 27.8594 62.9375 27.4375 63.3594C26.875 63.7812 26.4531 63.9219 25.8906 63.9219H16.8906C16.3281 63.9219 16.0469 63.7812 15.7656 63.3594C15.4844 63.0781 15.3438 62.6562 15.4844 62.0938L19.2812 38.1875C19.2812 37.3438 19.8438 36.9219 20.8281 36.9219H22.5156C26.4531 36.9219 29.5469 36.7812 31.9375 36.5C35.875 35.9375 39.25 34.6719 42.0625 32.7031C45.4375 30.3125 47.8281 26.7969 49.5156 22.2969C50.0781 20.6094 50.5 18.9219 50.7812 17.5156C50.7812 17.375 50.7812 17.2344 50.9219 17.2344C50.9219 17.2344 51.0625 17.375 51.2031 17.375Z" fill="black"/>
</svg>
